NunitoSans-OpszBold.ufo
<glyph name="exclam" format="2">
  <advance width="276.66474"/>
  <unicode hex="0021"/>
  <outline>
    <contour>
      <point x="87" y="231" type="line"/>
      <point x="190" y="231" type="line"/>
      <point x="223" y="705" type="line"/>
      <point x="53" y="705" type="line"/>
    </contour>
    <contour>
      <point x="60" y="0" type="line"/>
      <point x="217" y="0" type="line"/>
      <point x="217" y="143" type="line"/>
      <point x="60" y="143" type="line"/>
    </contour>
  </outline>
</glyph>
<glyph name="dollar" format="2">
  <advance width="600"/>
  <unicode hex="0024"/>
  <outline>
    <contour>
      <point x="256" y="-115" type="line"/>
      <point x="362" y="-115" type="line"/>
      <point x="362" y="37" type="line"/>
      <point x="342" y="17" type="line"/>
      <point x="475" y="29"/>
      <point x="568" y="97"/>
      <point x="568" y="209" type="curve" smooth="yes"/>
      <point x="568" y="308"/>
      <point x="508" y="370"/>
      <point x="379" y="390" type="curve" smooth="yes"/>
      <point x="273" y="407" type="line" smooth="yes"/>
      <point x="200" y="417"/>
      <point x="173" y="439"/>
      <point x="173" y="488" type="curve" smooth="yes"/>
      <point x="173" y="542"/>
      <point x="226" y="581"/>
      <point x="312" y="581" type="curve" smooth="yes"/>
      <point x="391" y="581"/>
      <point x="456" y="557"/>
      <point x="506" y="517" type="curve"/>
      <point x="546" y="615" type="line"/>
      <point x="497" y="658"/>
      <point x="418" y="686"/>
      <point x="340" y="690" type="curve"/>
      <point x="362" y="673" type="line"/>
      <point x="362" y="820" type="line"/>
      <point x="256" y="820" type="line"/>
      <point x="256" y="673" type="line"/>
      <point x="278" y="689" type="line"/>
      <point x="138" y="678"/>
      <point x="46" y="604"/>
      <point x="46" y="491" type="curve" smooth="yes"/>
      <point x="46" y="385"/>
      <point x="108" y="329"/>
      <point x="227" y="310" type="curve" smooth="yes"/>
      <point x="334" y="293" type="line" smooth="yes"/>
      <point x="404" y="283"/>
      <point x="439" y="262"/>
      <point x="439" y="211" type="curve" smooth="yes"/>
      <point x="439" y="161"/>
      <point x="397" y="123"/>
      <point x="298" y="123" type="curve" smooth="yes"/>
      <point x="210" y="123"/>
      <point x="134" y="145"/>
      <point x="73" y="191" type="curve"/>
      <point x="32" y="88" type="line"/>
      <point x="94" y="38"/>
      <point x="185" y="17"/>
      <point x="281" y="14" type="curve"/>
      <point x="256" y="37" type="line"/>
    </contour>
  </outline>
</glyph>
<glyph name="parenright" format="2">
  <advance width="384.41618"/>
  <unicode hex="0029"/>
  <outline>
    <contour>
      <point x="130" y="-195" type="line"/>
      <point x="238" y="-58"/>
      <point x="288" y="88"/>
      <point x="288" y="263" type="curve" smooth="yes"/>
      <point x="288" y="438"/>
      <point x="238" y="585"/>
      <point x="130" y="721" type="curve"/>
      <point x="36" y="685" type="line"/>
      <point x="117" y="546"/>
      <point x="154" y="408"/>
      <point x="154" y="263" type="curve" smooth="yes"/>
      <point x="154" y="118"/>
      <point x="117" y="-20"/>
      <point x="36" y="-159" type="curve"/>
    </contour>
  </outline>
</glyph>
<glyph name="plus" format="2">
  <advance width="600"/>
  <unicode hex="002B"/>
  <outline>
    <contour>
      <point x="253" y="40" type="line"/>
      <point x="347" y="40" type="line"/>
      <point x="347" y="242" type="line"/>
      <point x="544" y="242" type="line"/>
      <point x="544" y="333" type="line"/>
      <point x="347" y="333" type="line"/>
      <point x="347" y="528" type="line"/>
      <point x="253" y="528" type="line"/>
      <point x="253" y="333" type="line"/>
      <point x="56" y="333" type="line"/>
      <point x="56" y="242" type="line"/>
      <point x="253" y="242" type="line"/>
    </contour>
  </outline>
</glyph>
<glyph name="one" format="2">
  <advance width="600"/>
  <unicode hex="0031"/>
  <outline>
    <contour>
      <point x="77" y="0" type="line"/>
      <point x="577" y="0" type="line"/>
      <point x="577" y="115" type="line"/>
      <point x="402" y="115" type="line"/>
      <point x="402" y="705" type="line"/>
      <point x="304" y="705" type="line"/>
      <point x="60" y="556" type="line"/>
      <point x="117" y="451" type="line"/>
      <point x="336" y="586" type="line"/>
      <point x="268" y="596" type="line"/>
      <point x="268" y="115" type="line"/>
      <point x="77" y="115" type="line"/>
    </contour>
  </outline>
</glyph>
<glyph name="six" format="2">
  <advance width="600"/>
  <unicode hex="0036"/>
  <outline>
    <contour>
      <point x="324" y="-10" type="curve" smooth="yes"/>
      <point x="462" y="-10"/>
      <point x="559" y="89"/>
      <point x="559" y="227" type="curve" smooth="yes"/>
      <point x="559" y="359"/>
      <point x="469" y="452"/>
      <point x="346" y="452" type="curve" smooth="yes"/>
      <point x="263" y="452"/>
      <point x="194" y="408"/>
      <point x="171" y="331" type="curve"/>
      <point x="165" y="331" type="line"/>
      <point x="165" y="361" type="line" smooth="yes"/>
      <point x="165" y="517"/>
      <point x="232" y="600"/>
      <point x="350" y="600" type="curve" smooth="yes"/>
      <point x="409" y="600"/>
      <point x="463" y="583"/>
      <point x="514" y="535" type="curve"/>
      <point x="560" y="636" type="line"/>
      <point x="500" y="689"/>
      <point x="432" y="715"/>
      <point x="350" y="715" type="curve" smooth="yes"/>
      <point x="159" y="715"/>
      <point x="46" y="579"/>
      <point x="46" y="342" type="curve" smooth="yes"/>
      <point x="46" y="119"/>
      <point x="146" y="-10"/>
    </contour>
    <contour>
      <point x="318" y="100" type="curve" smooth="yes"/>
      <point x="242" y="100"/>
      <point x="194" y="147"/>
      <point x="194" y="222" type="curve" smooth="yes"/>
      <point x="194" y="294"/>
      <point x="243" y="342"/>
      <point x="317" y="342" type="curve" smooth="yes"/>
      <point x="391" y="342"/>
      <point x="439" y="295"/>
      <point x="439" y="222" type="curve" smooth="yes"/>
      <point x="439" y="147"/>
      <point x="392" y="100"/>
    </contour>
  </outline>
</glyph>
<glyph name="eight" format="2">
  <advance width="600"/>
  <unicode hex="0038"/>
  <outline>
    <contour>
      <point x="300" y="-10" type="curve" smooth="yes"/>
      <point x="464" y="-10"/>
      <point x="565" y="65"/>
      <point x="565" y="189" type="curve" smooth="yes"/>
      <point x="565" y="284"/>
      <point x="501" y="344"/>
      <point x="428" y="359" type="curve"/>
      <point x="428" y="365" type="line"/>
      <point x="492" y="385"/>
      <point x="547" y="441"/>
      <point x="547" y="524" type="curve" smooth="yes"/>
      <point x="547" y="643"/>
      <point x="451" y="715"/>
      <point x="300" y="715" type="curve" smooth="yes"/>
      <point x="149" y="715"/>
      <point x="53" y="643"/>
      <point x="53" y="524" type="curve" smooth="yes"/>
      <point x="53" y="440"/>
      <point x="106" y="385"/>
      <point x="171" y="365" type="curve"/>
      <point x="171" y="359" type="line"/>
      <point x="94" y="343"/>
      <point x="35" y="284"/>
      <point x="35" y="189" type="curve" smooth="yes"/>
      <point x="35" y="65"/>
      <point x="136" y="-10"/>
    </contour>
    <contour>
      <point x="300" y="100" type="curve" smooth="yes"/>
      <point x="208" y="100"/>
      <point x="157" y="138"/>
      <point x="157" y="200" type="curve" smooth="yes"/>
      <point x="157" y="262"/>
      <point x="208" y="302"/>
      <point x="300" y="302" type="curve" smooth="yes"/>
      <point x="392" y="302"/>
      <point x="443" y="262"/>
      <point x="443" y="200" type="curve" smooth="yes"/>
      <point x="443" y="138"/>
      <point x="392" y="100"/>
    </contour>
    <contour>
      <point x="300" y="412" type="curve" smooth="yes"/>
      <point x="222" y="412"/>
      <point x="175" y="448"/>
      <point x="175" y="509" type="curve" smooth="yes"/>
      <point x="175" y="567"/>
      <point x="222" y="605"/>
      <point x="300" y="605" type="curve" smooth="yes"/>
      <point x="378" y="605"/>
      <point x="425" y="567"/>
      <point x="425" y="509" type="curve" smooth="yes"/>
      <point x="425" y="448"/>
      <point x="378" y="412"/>
    </contour>
  </outline>
</glyph>
<glyph name="less" format="2">
  <advance width="600"/>
  <unicode hex="003C"/>
  <outline>
    <contour>
      <point x="544" y="30" type="line"/>
      <point x="544" y="131" type="line"/>
      <point x="189" y="282" type="line"/>
      <point x="189" y="288" type="line"/>
      <point x="544" y="440" type="line"/>
      <point x="544" y="540" type="line"/>
      <point x="56" y="332" type="line"/>
      <point x="56" y="237" type="line"/>
    </contour>
  </outline>
</glyph>
<glyph name="greater" format="2">
  <advance width="600"/>
  <unicode hex="003E"/>
  <outline>
    <contour>
      <point x="56" y="30" type="line"/>
      <point x="544" y="238" type="line"/>
      <point x="544" y="333" type="line"/>
      <point x="56" y="540" type="line"/>
      <point x="56" y="440" type="line"/>
      <point x="411" y="288" type="line"/>
      <point x="411" y="282" type="line"/>
      <point x="56" y="130" type="line"/>
    </contour>
  </outline>
</glyph>
<glyph name="at" format="2">
  <advance width="1007"/>
  <unicode hex="0040"/>
  <outline>
    <contour>
      <point x="512" y="-158" type="curve" smooth="yes"/>
      <point x="628" y="-158"/>
      <point x="730" y="-124"/>
      <point x="794" y="-64" type="curve"/>
      <point x="753" y="4" type="line"/>
      <point x="693" y="-49"/>
      <point x="610" y="-76"/>
      <point x="512" y="-76" type="curve" smooth="yes"/>
      <point x="302" y="-76"/>
      <point x="166" y="54"/>
      <point x="166" y="267" type="curve" smooth="yes"/>
      <point x="166" y="489"/>
      <point x="311" y="633"/>
      <point x="528" y="633" type="curve" smooth="yes"/>
      <point x="723" y="633"/>
      <point x="849" y="524"/>
      <point x="849" y="341" type="curve" smooth="yes"/>
      <point x="849" y="221"/>
      <point x="797" y="138"/>
      <point x="734" y="138" type="curve" smooth="yes"/>
      <point x="701" y="138"/>
      <point x="684" y="156"/>
      <point x="684" y="199" type="curve" smooth="yes"/>
      <point x="684" y="213"/>
      <point x="685" y="230"/>
      <point x="691" y="263" type="curve" smooth="yes"/>
      <point x="731" y="490" type="line"/>
      <point x="635" y="490" type="line"/>
      <point x="625" y="429" type="line"/>
      <point x="619" y="429" type="line"/>
      <point x="599" y="476"/>
      <point x="560" y="502"/>
      <point x="503" y="502" type="curve" smooth="yes"/>
      <point x="378" y="502"/>
      <point x="288" y="395"/>
      <point x="288" y="249" type="curve" smooth="yes"/>
      <point x="288" y="133"/>
      <point x="351" y="61"/>
      <point x="452" y="61" type="curve" smooth="yes"/>
      <point x="508" y="61"/>
      <point x="566" y="94"/>
      <point x="596" y="147" type="curve"/>
      <point x="603" y="147" type="line"/>
      <point x="614" y="96"/>
      <point x="654" y="61"/>
      <point x="726" y="61" type="curve" smooth="yes"/>
      <point x="844" y="61"/>
      <point x="932" y="171"/>
      <point x="932" y="341" type="curve" smooth="yes"/>
      <point x="932" y="566"/>
      <point x="781" y="715"/>
      <point x="528" y="715" type="curve" smooth="yes"/>
      <point x="259" y="715"/>
      <point x="74" y="535"/>
      <point x="74" y="267" type="curve" smooth="yes"/>
      <point x="74" y="14"/>
      <point x="254" y="-158"/>
    </contour>
    <contour>
      <point x="476" y="144" type="curve" smooth="yes"/>
      <point x="421" y="144"/>
      <point x="391" y="181"/>
      <point x="391" y="250" type="curve" smooth="yes"/>
      <point x="391" y="349"/>
      <point x="444" y="418"/>
      <point x="519" y="418" type="curve" smooth="yes"/>
      <point x="576" y="418"/>
      <point x="603" y="386"/>
      <point x="603" y="323" type="curve" smooth="yes"/>
      <point x="603" y="217"/>
      <point x="551" y="144"/>
    </contour>
  </outline>
</glyph>
<glyph name="A" format="2">
  <advance width="802"/>
  <unicode hex="0041"/>
  <anchor x="401" y="0" name="bottom"/>
  <anchor x="732" y="0" name="ogonek"/>
  <anchor x="401" y="705" name="top"/>
  <outline>
    <contour>
      <point x="22" y="0" type="line"/>
      <point x="164" y="0" type="line"/>
      <point x="248" y="197" type="line"/>
      <point x="189" y="146" type="line"/>
      <point x="611" y="146" type="line"/>
      <point x="551" y="197" type="line"/>
      <point x="635" y="0" type="line"/>
      <point x="780" y="0" type="line"/>
      <point x="463" y="705" type="line"/>
      <point x="339" y="705" type="line"/>
    </contour>
    <contour>
      <point x="397" y="561" type="line"/>
      <point x="403" y="561" type="line"/>
      <point x="541" y="232" type="line"/>
      <point x="567" y="261" type="line"/>
      <point x="233" y="261" type="line"/>
      <point x="258" y="232" type="line"/>
    </contour>
  </outline>
</glyph>
<glyph name="B" format="2">
  <advance width="761"/>
  <unicode hex="0042"/>
  <anchor x="376" y="0" name="bottom"/>
  <anchor x="375" y="705" name="top"/>
  <outline>
    <contour>
      <point x="101" y="0" type="line"/>
      <point x="431" y="0" type="line" smooth="yes"/>
      <point x="592" y="0"/>
      <point x="688" y="73"/>
      <point x="688" y="198" type="curve" smooth="yes"/>
      <point x="688" y="297"/>
      <point x="630" y="347"/>
      <point x="568" y="362" type="curve"/>
      <point x="568" y="368" type="line"/>
      <point x="624" y="386"/>
      <point x="670" y="438"/>
      <point x="670" y="522" type="curve" smooth="yes"/>
      <point x="670" y="640"/>
      <point x="577" y="705"/>
      <point x="421" y="705" type="curve" smooth="yes"/>
      <point x="101" y="705" type="line"/>
    </contour>
    <contour>
      <point x="240" y="115" type="line"/>
      <point x="240" y="298" type="line"/>
      <point x="427" y="298" type="line" smooth="yes"/>
      <point x="504" y="298"/>
      <point x="549" y="273"/>
      <point x="549" y="207" type="curve" smooth="yes"/>
      <point x="549" y="149"/>
      <point x="508" y="115"/>
      <point x="427" y="115" type="curve" smooth="yes"/>
    </contour>
    <contour>
      <point x="240" y="413" type="line"/>
      <point x="240" y="590" type="line"/>
      <point x="410" y="590" type="line" smooth="yes"/>
      <point x="494" y="590"/>
      <point x="531" y="561"/>
      <point x="531" y="504" type="curve" smooth="yes"/>
      <point x="531" y="442"/>
      <point x="492" y="413"/>
      <point x="410" y="413" type="curve" smooth="yes"/>
    </contour>
  </outline>
</glyph>
<glyph name="F" format="2">
  <advance width="641"/>
  <unicode hex="0046"/>
  <anchor x="337" y="0" name="bottom"/>
  <anchor x="355" y="705" name="top"/>
  <outline>
    <contour>
      <point x="101" y="0" type="line"/>
      <point x="240" y="0" type="line"/>
      <point x="240" y="288" type="line"/>
      <point x="572" y="288" type="line"/>
      <point x="572" y="406" type="line"/>
      <point x="240" y="406" type="line"/>
      <point x="240" y="587" type="line"/>
      <point x="592" y="587" type="line"/>
      <point x="592" y="705" type="line"/>
      <point x="101" y="705" type="line"/>
    </contour>
  </outline>
</glyph>
<glyph name="H" format="2">
  <advance width="829"/>
  <unicode hex="0048"/>
  <anchor x="415" y="0" name="bottom"/>
  <anchor x="415" y="561" name="center"/>
  <anchor x="414" y="705" name="top"/>
  <anchor x="46" y="705" name="topleft"/>
  <outline>
    <contour>
      <point x="101" y="0" type="line"/>
      <point x="240" y="0" type="line"/>
      <point x="240" y="297" type="line"/>
      <point x="589" y="297" type="line"/>
      <point x="589" y="0" type="line"/>
      <point x="728" y="0" type="line"/>
      <point x="728" y="705" type="line"/>
      <point x="589" y="705" type="line"/>
      <point x="589" y="417" type="line"/>
      <point x="240" y="417" type="line"/>
      <point x="240" y="705" type="line"/>
      <point x="101" y="705" type="line"/>
    </contour>
  </outline>
</glyph>
<glyph name="L" format="2">
  <advance width="621"/>
  <unicode hex="004C"/>
  <anchor x="340" y="0" name="bottom"/>
  <anchor x="216" y="387" name="center"/>
  <anchor x="447" y="394" name="dot"/>
  <anchor x="169" y="705" name="top"/>
  <anchor x="341" y="705" name="topright"/>
  <outline>
    <contour>
      <point x="101" y="0" type="line"/>
      <point x="579" y="0" type="line"/>
      <point x="579" y="120" type="line"/>
      <point x="240" y="120" type="line"/>
      <point x="240" y="705" type="line"/>
      <point x="101" y="705" type="line"/>
    </contour>
  </outline>
</glyph>
<glyph name="N" format="2">
  <advance width="837"/>
  <unicode hex="004E"/>
  <anchor x="421" y="0" name="bottom"/>
  <anchor x="425" y="705" name="top"/>
  <outline>
    <contour>
      <point x="101" y="0" type="line"/>
      <point x="236" y="0" type="line"/>
      <point x="236" y="487" type="line"/>
      <point x="242" y="487" type="line"/>
      <point x="603" y="0" type="line"/>
      <point x="736" y="0" type="line"/>
      <point x="736" y="705" type="line"/>
      <point x="601" y="705" type="line"/>
      <point x="601" y="210" type="line"/>
      <point x="595" y="210" type="line"/>
      <point x="225" y="705" type="line"/>
      <point x="101" y="705" type="line"/>
    </contour>
  </outline>
</glyph>
<glyph name="R" format="2">
  <advance width="756"/>
  <unicode hex="0052"/>
  <anchor x="378" y="0" name="bottom"/>
  <anchor x="377" y="705" name="top"/>
  <outline>
    <contour>
      <point x="101" y="0" type="line"/>
      <point x="240" y="0" type="line"/>
      <point x="240" y="269" type="line"/>
      <point x="344" y="269" type="line" smooth="yes"/>
      <point x="397" y="269"/>
      <point x="426" y="257"/>
      <point x="450" y="211" type="curve" smooth="yes"/>
      <point x="561" y="0" type="line"/>
      <point x="713" y="0" type="line"/>
      <point x="593" y="227" type="line" smooth="yes"/>
      <point x="570" y="270"/>
      <point x="551" y="287"/>
      <point x="528" y="297" type="curve" smooth="yes"/>
      <point x="522" y="300" type="line"/>
      <point x="522" y="306" type="line"/>
      <point x="606" y="328"/>
      <point x="673" y="389"/>
      <point x="673" y="495" type="curve" smooth="yes"/>
      <point x="673" y="631"/>
      <point x="583" y="705"/>
      <point x="421" y="705" type="curve" smooth="yes"/>
      <point x="101" y="705" type="line"/>
    </contour>
    <contour>
      <point x="240" y="381" type="line"/>
      <point x="240" y="590" type="line"/>
      <point x="406" y="590" type="line" smooth="yes"/>
      <point x="495" y="590"/>
      <point x="535" y="558"/>
      <point x="535" y="487" type="curve" smooth="yes"/>
      <point x="535" y="416"/>
      <point x="497" y="381"/>
      <point x="410" y="381" type="curve" smooth="yes"/>
    </contour>
  </outline>
</glyph>
<glyph name="S" format="2">
  <advance width="699"/>
  <unicode hex="0053"/>
  <anchor x="350" y="0" name="bottom"/>
  <anchor x="366" y="705" name="top"/>
  <outline>
    <contour>
      <point x="358" y="-10" type="curve" smooth="yes"/>
      <point x="531" y="-10"/>
      <point x="644" y="81"/>
      <point x="644" y="211" type="curve" smooth="yes"/>
      <point x="644" y="313"/>
      <point x="578" y="380"/>
      <point x="441" y="403" type="curve" smooth="yes"/>
      <point x="324" y="423" type="line" smooth="yes"/>
      <point x="243" y="437"/>
      <point x="217" y="458"/>
      <point x="217" y="504" type="curve" smooth="yes"/>
      <point x="217" y="565"/>
      <point x="282" y="594"/>
      <point x="373" y="594" type="curve" smooth="yes"/>
      <point x="453" y="594"/>
      <point x="523" y="577"/>
      <point x="579" y="529" type="curve"/>
      <point x="625" y="642" type="line"/>
      <point x="567" y="689"/>
      <point x="476" y="715"/>
      <point x="374" y="715" type="curve" smooth="yes"/>
      <point x="202" y="715"/>
      <point x="78" y="632"/>
      <point x="78" y="505" type="curve" smooth="yes"/>
      <point x="78" y="401"/>
      <point x="134" y="328"/>
      <point x="270" y="304" type="curve" smooth="yes"/>
      <point x="388" y="283" type="line" smooth="yes"/>
      <point x="470" y="268"/>
      <point x="505" y="255"/>
      <point x="505" y="204" type="curve" smooth="yes"/>
      <point x="505" y="142"/>
      <point x="453" y="111"/>
      <point x="358" y="111" type="curve" smooth="yes"/>
      <point x="265" y="111"/>
      <point x="177" y="125"/>
      <point x="109" y="172" type="curve"/>
      <point x="63" y="59" type="line"/>
      <point x="130" y="12"/>
      <point x="240" y="-10"/>
    </contour>
  </outline>
</glyph>
<glyph name="Y" format="2">
  <advance width="660"/>
  <unicode hex="0059"/>
  <anchor x="330" y="0" name="bottom"/>
  <anchor x="330" y="705" name="top"/>
  <anchor x="67" y="705" name="topleft"/>
  <outline>
    <contour>
      <point x="260" y="0" type="line"/>
      <point x="399" y="0" type="line"/>
      <point x="399" y="367" type="line"/>
      <point x="375" y="267" type="line"/>
      <point x="665" y="705" type="line"/>
      <point x="513" y="705" type="line"/>
      <point x="334" y="427" type="line"/>
      <point x="328" y="427" type="line"/>
      <point x="148" y="705" type="line"/>
      <point x="-5" y="705" type="line"/>
      <point x="284" y="267" type="line"/>
      <point x="260" y="367" type="line"/>
    </contour>
  </outline>
</glyph>
<glyph name="Z" format="2">
  <advance width="648"/>
  <unicode hex="005A"/>
  <anchor x="330" y="0" name="bottom"/>
  <anchor x="324" y="705" name="top"/>
  <outline>
    <contour>
      <point x="58" y="0" type="line"/>
      <point x="604" y="0" type="line"/>
      <point x="604" y="120" type="line"/>
      <point x="177" y="120" type="line"/>
      <point x="192" y="65" type="line"/>
      <point x="593" y="612" type="line"/>
      <point x="593" y="705" type="line"/>
      <point x="58" y="705" type="line"/>
      <point x="58" y="585" type="line"/>
      <point x="473" y="585" type="line"/>
      <point x="457" y="640" type="line"/>
      <point x="58" y="95" type="line"/>
    </contour>
  </outline>
</glyph>
<glyph name="backslash" format="2">
  <advance width="328.30058"/>
  <unicode hex="005C"/>
  <outline>
    <contour>
      <point x="241" y="-71" type="line"/>
      <point x="344" y="-44" type="line"/>
      <point x="87" y="760" type="line"/>
      <point x="-16" y="732" type="line"/>
    </contour>
  </outline>
</glyph>
<glyph name="bracketright" format="2">
  <advance width="381.40462"/>
  <unicode hex="005D"/>
  <outline>
    <contour>
      <point x="17" y="-180" type="line"/>
      <point x="275" y="-180" type="line"/>
      <point x="275" y="705" type="line"/>
      <point x="17" y="705" type="line"/>
      <point x="17" y="601" type="line"/>
      <point x="141" y="601" type="line"/>
      <point x="141" y="-76" type="line"/>
      <point x="17" y="-76" type="line"/>
    </contour>
  </outline>
</glyph>
<glyph name="b" format="2">
  <advance width="682"/>
  <unicode hex="0062"/>
  <anchor x="338" y="0" name="bottom"/>
  <anchor x="356" y="705" name="top"/>
  <outline>
    <contour>
      <point x="391" y="-10" type="curve" smooth="yes"/>
      <point x="538" y="-10"/>
      <point x="625" y="99"/>
      <point x="625" y="252" type="curve" smooth="yes"/>
      <point x="625" y="402"/>
      <point x="538" y="513"/>
      <point x="395" y="513" type="curve" smooth="yes"/>
      <point x="314" y="513"/>
      <point x="259" y="476"/>
      <point x="229" y="417" type="curve"/>
      <point x="223" y="417" type="line"/>
      <point x="223" y="705" type="line"/>
      <point x="84" y="705" type="line"/>
      <point x="84" y="0" type="line"/>
      <point x="205" y="0" type="line"/>
      <point x="205" y="100" type="line"/>
      <point x="212" y="100" type="line"/>
      <point x="247" y="27"/>
      <point x="308" y="-10"/>
    </contour>
    <contour>
      <point x="355" y="98" type="curve" smooth="yes"/>
      <point x="271" y="98"/>
      <point x="221" y="157"/>
      <point x="221" y="252" type="curve" smooth="yes"/>
      <point x="221" y="346"/>
      <point x="270" y="405"/>
      <point x="354" y="405" type="curve" smooth="yes"/>
      <point x="439" y="405"/>
      <point x="488" y="346"/>
      <point x="488" y="252" type="curve" smooth="yes"/>
      <point x="488" y="157"/>
      <point x="440" y="98"/>
    </contour>
  </outline>
</glyph>
<glyph name="c" format="2">
  <advance width="539.09827"/>
  <unicode hex="0063"/>
  <anchor x="316" y="0" name="bottom"/>
  <anchor x="316" y="484" name="top"/>
  <outline>
    <contour>
      <point x="325" y="-10" type="curve" smooth="yes"/>
      <point x="403" y="-10"/>
      <point x="472" y="13"/>
      <point x="513" y="48" type="curve"/>
      <point x="470" y="151" type="line"/>
      <point x="435" y="125"/>
      <point x="388" y="108"/>
      <point x="342" y="108" type="curve" smooth="yes"/>
      <point x="250" y="108"/>
      <point x="196" y="156"/>
      <point x="196" y="251" type="curve" smooth="yes"/>
      <point x="196" y="346"/>
      <point x="250" y="395"/>
      <point x="343" y="395" type="curve" smooth="yes"/>
      <point x="388" y="395"/>
      <point x="436" y="378"/>
      <point x="473" y="350" type="curve"/>
      <point x="515" y="454" type="line"/>
      <point x="473" y="489"/>
      <point x="403" y="513"/>
      <point x="326" y="513" type="curve" smooth="yes"/>
      <point x="164" y="513"/>
      <point x="57" y="411"/>
      <point x="57" y="251" type="curve" smooth="yes"/>
      <point x="57" y="93"/>
      <point x="163" y="-10"/>
    </contour>
  </outline>
</glyph>
<glyph name="d" format="2">
  <advance width="682"/>
  <unicode hex="0064"/>
  <anchor x="318" y="0" name="bottom"/>
  <anchor x="309" y="248" name="center"/>
  <anchor x="471" y="596" name="stroke"/>
  <anchor x="326" y="595" name="top"/>
  <anchor x="648" y="705" name="topright"/>
  <outline>
    <contour>
      <point x="291" y="-10" type="curve" smooth="yes"/>
      <point x="374" y="-10"/>
      <point x="435" y="27"/>
      <point x="470" y="100" type="curve"/>
      <point x="477" y="100" type="line"/>
      <point x="477" y="0" type="line"/>
      <point x="598" y="0" type="line"/>
      <point x="598" y="705" type="line"/>
      <point x="459" y="705" type="line"/>
      <point x="459" y="417" type="line"/>
      <point x="453" y="417" type="line"/>
      <point x="423" y="476"/>
      <point x="368" y="513"/>
      <point x="287" y="513" type="curve" smooth="yes"/>
      <point x="144" y="513"/>
      <point x="57" y="402"/>
      <point x="57" y="252" type="curve" smooth="yes"/>
      <point x="57" y="99"/>
      <point x="144" y="-10"/>
    </contour>
    <contour>
      <point x="328" y="98" type="curve" smooth="yes"/>
      <point x="244" y="98"/>
      <point x="194" y="157"/>
      <point x="194" y="252" type="curve" smooth="yes"/>
      <point x="194" y="346"/>
      <point x="244" y="405"/>
      <point x="328" y="405" type="curve" smooth="yes"/>
      <point x="413" y="405"/>
      <point x="461" y="346"/>
      <point x="461" y="252" type="curve" smooth="yes"/>
      <point x="461" y="157"/>
      <point x="413" y="98"/>
    </contour>
  </outline>
</glyph>
<glyph name="e" format="2">
  <advance width="628.12139"/>
  <unicode hex="0065"/>
  <anchor x="320" y="0" name="bottom"/>
  <anchor x="404" y="0" name="ogonek"/>
  <anchor x="324" y="484" name="top"/>
  <outline>
    <contour>
      <point x="356" y="-10" type="curve" smooth="yes"/>
      <point x="424" y="-10"/>
      <point x="501" y="5"/>
      <point x="557" y="45" type="curve"/>
      <point x="518" y="141" type="line"/>
      <point x="473" y="109"/>
      <point x="414" y="99"/>
      <point x="362" y="99" type="curve" smooth="yes"/>
      <point x="247" y="99"/>
      <point x="187" y="144"/>
      <point x="187" y="254" type="curve" smooth="yes"/>
      <point x="187" y="270" type="line" smooth="yes"/>
      <point x="187" y="365"/>
      <point x="245" y="413"/>
      <point x="325" y="413" type="curve" smooth="yes"/>
      <point x="407" y="413"/>
      <point x="456" y="370"/>
      <point x="456" y="276" type="curve"/>
      <point x="471" y="295" type="line"/>
      <point x="165" y="295" type="line"/>
      <point x="165" y="208" type="line"/>
      <point x="572" y="208" type="line"/>
      <point x="572" y="250" type="line" smooth="yes"/>
      <point x="572" y="415"/>
      <point x="474" y="513"/>
      <point x="324" y="513" type="curve" smooth="yes"/>
      <point x="155" y="513"/>
      <point x="57" y="399"/>
      <point x="57" y="252" type="curve" smooth="yes"/>
      <point x="57" y="89"/>
      <point x="161" y="-10"/>
    </contour>
  </outline>
</glyph>
<glyph name="f" format="2">
  <advance width="439.73988"/>
  <unicode hex="0066"/>
  <anchor x="188" y="0" name="bottom"/>
  <anchor x="181" y="705" name="top"/>
  <outline>
    <contour>
      <point x="118" y="0" type="line"/>
      <point x="257" y="0" type="line"/>
      <point x="257" y="399" type="line"/>
      <point x="410" y="399" type="line"/>
      <point x="410" y="503" type="line"/>
      <point x="237" y="503" type="line"/>
      <point x="257" y="498" type="line"/>
      <point x="257" y="515" type="line" smooth="yes"/>
      <point x="257" y="581"/>
      <point x="294" y="594"/>
      <point x="355" y="597" type="curve" smooth="yes"/>
      <point x="436" y="601" type="line"/>
      <point x="426" y="714" type="line"/>
      <point x="358" y="711" type="line" smooth="yes"/>
      <point x="202" y="705"/>
      <point x="118" y="634"/>
      <point x="118" y="492" type="curve" smooth="yes"/>
      <point x="118" y="464" type="line"/>
      <point x="156" y="503" type="line"/>
      <point x="18" y="503" type="line"/>
      <point x="18" y="399" type="line"/>
      <point x="118" y="399" type="line"/>
    </contour>
  </outline>
</glyph>
<glyph name="g" format="2">
  <advance width="682"/>
  <unicode hex="0067"/>
  <anchor x="329" y="484" name="top"/>
  <outline>
    <contour>
      <point x="309" y="-190" type="curve" smooth="yes"/>
      <point x="488" y="-190"/>
      <point x="598" y="-89"/>
      <point x="598" y="67" type="curve" smooth="yes"/>
      <point x="598" y="503" type="line"/>
      <point x="471" y="503" type="line"/>
      <point x="471" y="407" type="line"/>
      <point x="465" y="407" type="line"/>
      <point x="436" y="471"/>
      <point x="373" y="513"/>
      <point x="295" y="513" type="curve" smooth="yes"/>
      <point x="153" y="513"/>
      <point x="57" y="415"/>
      <point x="57" y="267" type="curve" smooth="yes"/>
      <point x="57" y="119"/>
      <point x="153" y="21"/>
      <point x="295" y="21" type="curve" smooth="yes"/>
      <point x="373" y="21"/>
      <point x="435" y="64"/>
      <point x="463" y="122" type="curve"/>
      <point x="471" y="122" type="line"/>
      <point x="471" y="59" type="line" smooth="yes"/>
      <point x="471" y="-31"/>
      <point x="413" y="-75"/>
      <point x="306" y="-75" type="curve" smooth="yes"/>
      <point x="250" y="-75"/>
      <point x="177" y="-54"/>
      <point x="128" y="-22" type="curve"/>
      <point x="91" y="-131" type="line"/>
      <point x="147" y="-168"/>
      <point x="233" y="-190"/>
    </contour>
    <contour>
      <point x="328" y="129" type="curve" smooth="yes"/>
      <point x="245" y="129"/>
      <point x="193" y="182"/>
      <point x="193" y="268" type="curve" smooth="yes"/>
      <point x="193" y="352"/>
      <point x="245" y="405"/>
      <point x="328" y="405" type="curve" smooth="yes"/>
      <point x="410" y="405"/>
      <point x="462" y="352"/>
      <point x="462" y="268" type="curve" smooth="yes"/>
      <point x="462" y="182"/>
      <point x="410" y="129"/>
    </contour>
  </outline>
</glyph>
<glyph name="h" format="2">
  <advance width="671"/>
  <unicode hex="0068"/>
  <anchor x="341" y="0" name="bottom"/>
  <anchor x="341" y="248" name="center"/>
  <anchor x="336" y="351" name="dot"/>
  <anchor x="186" y="596" name="stroke"/>
  <anchor x="322" y="705" name="top"/>
  <anchor x="242" y="705" name="topright"/>
  <outline>
    <contour>
      <point x="84" y="0" type="line"/>
      <point x="223" y="0" type="line"/>
      <point x="223" y="270" type="line" smooth="yes"/>
      <point x="223" y="340"/>
      <point x="279" y="397"/>
      <point x="353" y="397" type="curve" smooth="yes"/>
      <point x="421" y="397"/>
      <point x="449" y="356"/>
      <point x="449" y="289" type="curve" smooth="yes"/>
      <point x="449" y="0" type="line"/>
      <point x="588" y="0" type="line"/>
      <point x="588" y="294" type="line" smooth="yes"/>
      <point x="588" y="443"/>
      <point x="520" y="513"/>
      <point x="396" y="513" type="curve" smooth="yes"/>
      <point x="317" y="513"/>
      <point x="253" y="471"/>
      <point x="221" y="408" type="curve"/>
      <point x="214" y="408" type="line"/>
      <point x="214" y="705" type="line"/>
      <point x="84" y="705" type="line"/>
    </contour>
  </outline>
</glyph>
<glyph name="i" format="2">
  <advance width="307"/>
  <unicode hex="0069"/>
  <anchor x="151" y="0" name="bottom"/>
  <anchor x="197" y="0" name="ogonek"/>
  <outline>
    <contour>
      <point x="72" y="601" type="line"/>
      <point x="232" y="601" type="line"/>
      <point x="232" y="741" type="line"/>
      <point x="72" y="741" type="line"/>
    </contour>
    <contour>
      <point x="84" y="0" type="line"/>
      <point x="223" y="0" type="line"/>
      <point x="223" y="503" type="line"/>
      <point x="84" y="503" type="line"/>
    </contour>
  </outline>
</glyph>
<glyph name="l" format="2">
  <advance width="362.78035"/>
  <unicode hex="006C"/>
  <anchor x="222" y="1" name="bottom"/>
  <anchor x="163" y="357" name="center"/>
  <anchor x="377" y="357" name="dot"/>
  <anchor x="154" y="705" name="top"/>
  <anchor x="273" y="705" name="topright"/>
  <outline>
    <contour>
      <point x="258" y="-10" type="curve" smooth="yes"/>
      <point x="298" y="-10"/>
      <point x="323" y="-6"/>
      <point x="355" y="6" type="curve"/>
      <point x="344" y="104" type="line"/>
      <point x="323" y="99"/>
      <point x="306" y="97"/>
      <point x="285" y="97" type="curve" smooth="yes"/>
      <point x="244" y="97"/>
      <point x="223" y="124"/>
      <point x="223" y="174" type="curve" smooth="yes"/>
      <point x="223" y="705" type="line"/>
      <point x="84" y="705" type="line"/>
      <point x="84" y="162" type="line" smooth="yes"/>
      <point x="84" y="53"/>
      <point x="146" y="-10"/>
    </contour>
  </outline>
</glyph>
<glyph name="m" format="2">
  <advance width="996"/>
  <unicode hex="006D"/>
  <anchor x="498" y="0" name="bottom"/>
  <anchor x="496" y="484" name="top"/>
  <outline>
    <contour>
      <point x="86" y="0" type="line"/>
      <point x="222" y="0" type="line"/>
      <point x="222" y="275" type="line" smooth="yes"/>
      <point x="222" y="333"/>
      <point x="269" y="397"/>
      <point x="343" y="397" type="curve" smooth="yes"/>
      <point x="401" y="397"/>
      <point x="431" y="359"/>
      <point x="431" y="290" type="curve" smooth="yes"/>
      <point x="431" y="0" type="line"/>
      <point x="565" y="0" type="line"/>
      <point x="565" y="273" type="line" smooth="yes"/>
      <point x="565" y="342"/>
      <point x="611" y="397"/>
      <point x="687" y="397" type="curve" smooth="yes"/>
      <point x="754" y="397"/>
      <point x="774" y="360"/>
      <point x="774" y="290" type="curve" smooth="yes"/>
      <point x="774" y="0" type="line"/>
      <point x="911" y="0" type="line"/>
      <point x="911" y="294" type="line" smooth="yes"/>
      <point x="911" y="444"/>
      <point x="844" y="513"/>
      <point x="728" y="513" type="curve" smooth="yes"/>
      <point x="638" y="513"/>
      <point x="580" y="462"/>
      <point x="555" y="405" type="curve"/>
      <point x="549" y="405" type="line"/>
      <point x="531" y="467"/>
      <point x="471" y="513"/>
      <point x="389" y="513" type="curve" smooth="yes"/>
      <point x="306" y="513"/>
      <point x="243" y="464"/>
      <point x="213" y="398" type="curve"/>
      <point x="207" y="398" type="line"/>
      <point x="207" y="503" type="line"/>
      <point x="86" y="503" type="line"/>
    </contour>
  </outline>
</glyph>
<glyph name="n" format="2">
  <advance width="670.71676"/>
  <unicode hex="006E"/>
  <anchor x="333" y="0" name="bottom"/>
  <anchor x="344" y="484" name="top"/>
  <outline>
    <contour>
      <point x="84" y="0" type="line"/>
      <point x="223" y="0" type="line"/>
      <point x="223" y="270" type="line" smooth="yes"/>
      <point x="223" y="340"/>
      <point x="279" y="397"/>
      <point x="353" y="397" type="curve" smooth="yes"/>
      <point x="422" y="397"/>
      <point x="449" y="356"/>
      <point x="449" y="289" type="curve" smooth="yes"/>
      <point x="449" y="0" type="line"/>
      <point x="588" y="0" type="line"/>
      <point x="588" y="294" type="line" smooth="yes"/>
      <point x="588" y="443"/>
      <point x="520" y="513"/>
      <point x="396" y="513" type="curve" smooth="yes"/>
      <point x="317" y="513"/>
      <point x="250" y="471"/>
      <point x="215" y="401" type="curve"/>
      <point x="209" y="401" type="line"/>
      <point x="209" y="503" type="line"/>
      <point x="84" y="503" type="line"/>
    </contour>
  </outline>
</glyph>
<glyph name="p" format="2">
  <advance width="682"/>
  <unicode hex="0070"/>
  <anchor x="323" y="0" name="bottom"/>
  <anchor x="325" y="484" name="top"/>
  <outline>
    <contour>
      <point x="84" y="-180" type="line"/>
      <point x="223" y="-180" type="line"/>
      <point x="223" y="86" type="line"/>
      <point x="229" y="86" type="line"/>
      <point x="259" y="28"/>
      <point x="315" y="-10"/>
      <point x="394" y="-10" type="curve" smooth="yes"/>
      <point x="541" y="-10"/>
      <point x="625" y="104"/>
      <point x="625" y="252" type="curve" smooth="yes"/>
      <point x="625" y="405"/>
      <point x="536" y="513"/>
      <point x="393" y="513" type="curve" smooth="yes"/>
      <point x="310" y="513"/>
      <point x="247" y="476"/>
      <point x="212" y="404" type="curve"/>
      <point x="205" y="404" type="line"/>
      <point x="205" y="504" type="line"/>
      <point x="84" y="504" type="line"/>
    </contour>
    <contour>
      <point x="355" y="98" type="curve" smooth="yes"/>
      <point x="271" y="98"/>
      <point x="221" y="158"/>
      <point x="221" y="253" type="curve" smooth="yes"/>
      <point x="221" y="347"/>
      <point x="270" y="405"/>
      <point x="355" y="405" type="curve" smooth="yes"/>
      <point x="440" y="405"/>
      <point x="488" y="347"/>
      <point x="488" y="253" type="curve" smooth="yes"/>
      <point x="488" y="158"/>
      <point x="439" y="98"/>
    </contour>
  </outline>
</glyph>
<glyph name="q" format="2">
  <advance width="682"/>
  <unicode hex="0071"/>
  <anchor x="300" y="0" name="bottom"/>
  <anchor x="300" y="486" name="top"/>
  <outline>
    <contour>
      <point x="459" y="-180" type="line"/>
      <point x="598" y="-180" type="line"/>
      <point x="598" y="504" type="line"/>
      <point x="477" y="504" type="line"/>
      <point x="477" y="403" type="line"/>
      <point x="470" y="403" type="line"/>
      <point x="435" y="476"/>
      <point x="374" y="513"/>
      <point x="291" y="513" type="curve" smooth="yes"/>
      <point x="144" y="513"/>
      <point x="57" y="405"/>
      <point x="57" y="251" type="curve" smooth="yes"/>
      <point x="57" y="102"/>
      <point x="144" y="-10"/>
      <point x="287" y="-10" type="curve" smooth="yes"/>
      <point x="368" y="-10"/>
      <point x="423" y="27"/>
      <point x="453" y="86" type="curve"/>
      <point x="459" y="86" type="line"/>
    </contour>
    <contour>
      <point x="329" y="98" type="curve" smooth="yes"/>
      <point x="244" y="98"/>
      <point x="194" y="157"/>
      <point x="194" y="252" type="curve" smooth="yes"/>
      <point x="194" y="346"/>
      <point x="243" y="404"/>
      <point x="328" y="404" type="curve" smooth="yes"/>
      <point x="413" y="404"/>
      <point x="461" y="346"/>
      <point x="461" y="252" type="curve" smooth="yes"/>
      <point x="461" y="157"/>
      <point x="413" y="98"/>
    </contour>
  </outline>
</glyph>
<glyph name="u" format="2">
  <advance width="667"/>
  <unicode hex="0075"/>
  <anchor x="322" y="0" name="bottom"/>
  <anchor x="549" y="0" name="ogonek"/>
  <anchor x="333" y="484" name="top"/>
  <anchor x="488" y="484" name="topright"/>
  <outline>
    <contour>
      <point x="279" y="-10" type="curve" smooth="yes"/>
      <point x="360" y="-10"/>
      <point x="417" y="32"/>
      <point x="453" y="104" type="curve"/>
      <point x="459" y="104" type="line"/>
      <point x="459" y="0" type="line"/>
      <point x="583" y="0" type="line"/>
      <point x="583" y="503" type="line"/>
      <point x="444" y="503" type="line"/>
      <point x="444" y="229" type="line" smooth="yes"/>
      <point x="444" y="164"/>
      <point x="389" y="106"/>
      <point x="319" y="106" type="curve" smooth="yes"/>
      <point x="250" y="106"/>
      <point x="222" y="148"/>
      <point x="222" y="211" type="curve" smooth="yes"/>
      <point x="222" y="503" type="line"/>
      <point x="83" y="503" type="line"/>
      <point x="83" y="204" type="line" smooth="yes"/>
      <point x="83" y="59"/>
      <point x="155" y="-10"/>
    </contour>
  </outline>
</glyph>
<glyph name="v" format="2">
  <advance width="567.57225"/>
  <unicode hex="0076"/>
  <anchor x="285" y="0" name="bottom"/>
  <anchor x="285" y="484" name="top"/>
  <outline>
    <contour>
      <point x="213" y="0" type="line"/>
      <point x="355" y="0" type="line"/>
      <point x="562" y="503" type="line"/>
      <point x="419" y="503" type="line"/>
      <point x="290" y="143" type="line"/>
      <point x="283" y="143" type="line"/>
      <point x="154" y="503" type="line"/>
      <point x="7" y="503" type="line"/>
    </contour>
  </outline>
</glyph>
<glyph name="w" format="2">
  <advance width="877.05202"/>
  <unicode hex="0077"/>
  <anchor x="437" y="0" name="bottom"/>
  <anchor x="441" y="484" name="top"/>
  <outline>
    <contour>
      <point x="187" y="0" type="line"/>
      <point x="304" y="0" type="line"/>
      <point x="435" y="353" type="line"/>
      <point x="441" y="353" type="line"/>
      <point x="571" y="0" type="line"/>
      <point x="689" y="0" type="line"/>
      <point x="859" y="503" type="line"/>
      <point x="724" y="503" type="line"/>
      <point x="621" y="155" type="line"/>
      <point x="615" y="155" type="line"/>
      <point x="491" y="503" type="line"/>
      <point x="386" y="503" type="line"/>
      <point x="261" y="155" type="line"/>
      <point x="255" y="155" type="line"/>
      <point x="153" y="503" type="line"/>
      <point x="17" y="503" type="line"/>
    </contour>
  </outline>
</glyph>
<glyph name="x" format="2">
  <advance width="573.18497"/>
  <unicode hex="0078"/>
  <anchor x="287" y="0" name="bottom"/>
  <anchor x="287" y="484" name="top"/>
  <outline>
    <contour>
      <point x="21" y="0" type="line"/>
      <point x="168" y="0" type="line"/>
      <point x="283" y="179" type="line"/>
      <point x="289" y="179" type="line"/>
      <point x="404" y="0" type="line"/>
      <point x="552" y="0" type="line"/>
      <point x="361" y="293" type="line"/>
      <point x="356" y="215" type="line"/>
      <point x="546" y="503" type="line"/>
      <point x="399" y="503" type="line"/>
      <point x="289" y="335" type="line"/>
      <point x="283" y="335" type="line"/>
      <point x="173" y="503" type="line"/>
      <point x="26" y="503" type="line"/>
      <point x="216" y="214" type="line"/>
      <point x="211" y="294" type="line"/>
    </contour>
  </outline>
</glyph>
<glyph name="y" format="2">
  <advance width="570.08671"/>
  <unicode hex="0079"/>
  <anchor x="445" y="0" name="bottom"/>
  <anchor x="285" y="484" name="top"/>
  <outline>
    <contour>
      <point x="139" y="-180" type="line"/>
      <point x="283" y="-180" type="line"/>
      <point x="562" y="503" type="line"/>
      <point x="419" y="503" type="line"/>
      <point x="291" y="142" type="line"/>
      <point x="284" y="142" type="line"/>
      <point x="154" y="503" type="line"/>
      <point x="7" y="503" type="line"/>
      <point x="245" y="-64" type="line"/>
      <point x="245" y="53" type="line"/>
    </contour>
  </outline>
</glyph>
<glyph name="z" format="2">
  <advance width="556.10405"/>
  <unicode hex="007A"/>
  <anchor x="287" y="0" name="bottom"/>
  <anchor x="286" y="484" name="top"/>
  <outline>
    <contour>
      <point x="60" y="0" type="line"/>
      <point x="508" y="0" type="line"/>
      <point x="508" y="114" type="line"/>
      <point x="189" y="114" type="line"/>
      <point x="193" y="70" type="line"/>
      <point x="497" y="415" type="line"/>
      <point x="497" y="503" type="line"/>
      <point x="66" y="503" type="line"/>
      <point x="66" y="389" type="line"/>
      <point x="365" y="389" type="line"/>
      <point x="360" y="432" type="line"/>
      <point x="60" y="91" type="line"/>
    </contour>
  </outline>
</glyph>
<glyph name="braceleft" format="2">
  <advance width="418.34682"/>
  <unicode hex="007B"/>
  <outline>
    <contour>
      <point x="274" y="-180" type="curve" smooth="yes"/>
      <point x="398" y="-180" type="line"/>
      <point x="398" y="-76" type="line"/>
      <point x="320" y="-76" type="line" smooth="yes"/>
      <point x="290" y="-76"/>
      <point x="277" y="-65"/>
      <point x="277" y="-34" type="curve" smooth="yes"/>
      <point x="277" y="158" type="line" smooth="yes"/>
      <point x="277" y="215"/>
      <point x="244" y="251"/>
      <point x="175" y="258" type="curve"/>
      <point x="175" y="264" type="line"/>
      <point x="244" y="272"/>
      <point x="277" y="310"/>
      <point x="277" y="367" type="curve" smooth="yes"/>
      <point x="277" y="559" type="line" smooth="yes"/>
      <point x="277" y="590"/>
      <point x="290" y="601"/>
      <point x="320" y="601" type="curve" smooth="yes"/>
      <point x="398" y="601" type="line"/>
      <point x="398" y="705" type="line"/>
      <point x="274" y="705" type="line" smooth="yes"/>
      <point x="197" y="705"/>
      <point x="143" y="660"/>
      <point x="143" y="583" type="curve" smooth="yes"/>
      <point x="143" y="390" type="line" smooth="yes"/>
      <point x="143" y="336"/>
      <point x="133" y="319"/>
      <point x="84" y="317" type="curve" smooth="yes"/>
      <point x="40" y="314" type="line"/>
      <point x="40" y="211" type="line"/>
      <point x="84" y="208" type="line" smooth="yes"/>
      <point x="133" y="205"/>
      <point x="143" y="189"/>
      <point x="143" y="135" type="curve" smooth="yes"/>
      <point x="143" y="-58" type="line" smooth="yes"/>
      <point x="143" y="-135"/>
      <point x="197" y="-180"/>
    </contour>
  </outline>
</glyph>
<glyph name="asciitilde" format="2">
  <advance width="600"/>
  <unicode hex="007E"/>
  <outline>
    <contour>
      <point x="408" y="206" type="curve" smooth="yes"/>
      <point x="469" y="206"/>
      <point x="521" y="247"/>
      <point x="544" y="311" type="curve"/>
      <point x="475" y="354" type="line"/>
      <point x="461" y="318"/>
      <point x="439" y="293"/>
      <point x="400" y="293" type="curve" smooth="yes"/>
      <point x="379" y="293"/>
      <point x="350" y="305"/>
      <point x="312" y="325" type="curve" smooth="yes"/>
      <point x="269" y="348"/>
      <point x="230" y="364"/>
      <point x="191" y="364" type="curve" smooth="yes"/>
      <point x="130" y="364"/>
      <point x="78" y="324"/>
      <point x="56" y="259" type="curve"/>
      <point x="125" y="216" type="line"/>
      <point x="139" y="254"/>
      <point x="162" y="278"/>
      <point x="199" y="278" type="curve" smooth="yes"/>
      <point x="222" y="278"/>
      <point x="252" y="265"/>
      <point x="289" y="245" type="curve" smooth="yes"/>
      <point x="334" y="221"/>
      <point x="371" y="206"/>
    </contour>
  </outline>
</glyph>
<glyph name="cent" format="2">
  <advance width="600"/>
  <unicode hex="00A2"/>
  <outline>
    <contour>
      <point x="266" y="-115" type="line"/>
      <point x="372" y="-115" type="line"/>
      <point x="372" y="43" type="line"/>
      <point x="351" y="15" type="line"/>
      <point x="417" y="17"/>
      <point x="477" y="33"/>
      <point x="518" y="65" type="curve"/>
      <point x="484" y="163" type="line"/>
      <point x="445" y="138"/>
      <point x="392" y="124"/>
      <point x="347" y="124" type="curve" smooth="yes"/>
      <point x="252" y="124"/>
      <point x="193" y="172"/>
      <point x="193" y="261" type="curve" smooth="yes"/>
      <point x="193" y="352"/>
      <point x="252" y="399"/>
      <point x="347" y="399" type="curve" smooth="yes"/>
      <point x="393" y="399"/>
      <point x="443" y="385"/>
      <point x="486" y="358" type="curve"/>
      <point x="520" y="456" type="line"/>
      <point x="480" y="490"/>
      <point x="422" y="507"/>
      <point x="352" y="508" type="curve"/>
      <point x="372" y="481" type="line"/>
      <point x="372" y="634" type="line"/>
      <point x="266" y="634" type="line"/>
      <point x="266" y="474" type="line"/>
      <point x="287" y="506" type="line"/>
      <point x="152" y="489"/>
      <point x="64" y="405"/>
      <point x="64" y="262" type="curve" smooth="yes"/>
      <point x="64" y="119"/>
      <point x="152" y="34"/>
      <point x="287" y="17" type="curve"/>
      <point x="266" y="49" type="line"/>
    </contour>
  </outline>
</glyph>
<glyph name="sterling" format="2">
  <advance width="600"/>
  <unicode hex="00A3"/>
  <outline>
    <contour>
      <point x="38" y="0" type="line"/>
      <point x="562" y="0" type="line"/>
      <point x="562" y="109" type="line"/>
      <point x="270" y="109" type="line"/>
      <point x="270" y="301" type="line"/>
      <point x="488" y="301" type="line"/>
      <point x="488" y="398" type="line"/>
      <point x="270" y="398" type="line"/>
      <point x="270" y="499" type="line"/>
      <point x="270" y="568"/>
      <point x="305" y="606"/>
      <point x="379" y="606" type="curve" smooth="yes"/>
      <point x="435" y="606"/>
      <point x="480" y="593"/>
      <point x="532" y="554" type="curve"/>
      <point x="571" y="652" type="line"/>
      <point x="519" y="692"/>
      <point x="450" y="715"/>
      <point x="369" y="715" type="curve" smooth="yes"/>
      <point x="214" y="715"/>
      <point x="141" y="627"/>
      <point x="141" y="494" type="curve"/>
      <point x="141" y="398" type="line"/>
      <point x="38" y="398" type="line"/>
      <point x="38" y="301" type="line"/>
      <point x="141" y="301" type="line"/>
      <point x="141" y="109" type="line"/>
      <point x="38" y="109" type="line"/>
    </contour>
  </outline>
</glyph>
<glyph name="brokenbar" format="2">
  <advance width="331"/>
  <unicode hex="00A6"/>
  <outline>
    <contour>
      <point x="106" y="371" type="line"/>
      <point x="225" y="371" type="line"/>
      <point x="225" y="705" type="line"/>
      <point x="106" y="705" type="line"/>
    </contour>
    <contour>
      <point x="106" y="-180" type="line"/>
      <point x="225" y="-180" type="line"/>
      <point x="225" y="154" type="line"/>
      <point x="106" y="154" type="line"/>
    </contour>
  </outline>
</glyph>
<glyph name="copyright" format="2">
  <advance width="816"/>
  <unicode hex="00A9"/>
  <outline>
    <contour>
      <point x="408" y="-10" type="curve" smooth="yes"/>
      <point x="614" y="-10"/>
      <point x="771.006" y="147.994"/>
      <point x="771.006" y="353" type="curve" smooth="yes"/>
      <point x="771.006" y="558.006"/>
      <point x="614" y="715"/>
      <point x="408" y="715" type="curve" smooth="yes"/>
      <point x="202" y="715"/>
      <point x="45" y="558"/>
      <point x="45" y="353" type="curve" smooth="yes"/>
      <point x="45" y="148"/>
      <point x="202" y="-10"/>
    </contour>
    <contour>
      <point x="427" y="137" type="curve" smooth="yes"/>
      <point x="478" y="137"/>
      <point x="537" y="154"/>
      <point x="572" y="185" type="curve"/>
      <point x="539" y="263" type="line"/>
      <point x="510" y="237"/>
      <point x="473" y="224"/>
      <point x="436" y="224" type="curve" smooth="yes"/>
      <point x="364" y="224"/>
      <point x="320" y="273"/>
      <point x="320" y="353" type="curve" smooth="yes"/>
      <point x="320" y="434"/>
      <point x="364" y="481"/>
      <point x="436" y="481" type="curve" smooth="yes"/>
      <point x="473" y="481"/>
      <point x="510" y="468"/>
      <point x="539" y="442" type="curve"/>
      <point x="572" y="520" type="line"/>
      <point x="537" y="551"/>
      <point x="479" y="568"/>
      <point x="427" y="568" type="curve" smooth="yes"/>
      <point x="293" y="568"/>
      <point x="209" y="486"/>
      <point x="209" y="354" type="curve" smooth="yes"/>
      <point x="209" y="221"/>
      <point x="293" y="137"/>
    </contour>
    <contour>
      <point x="408" y="44" type="curve" smooth="yes"/>
      <point x="233" y="44"/>
      <point x="103" y="178"/>
      <point x="103" y="353" type="curve" smooth="yes"/>
      <point x="103" y="528"/>
      <point x="233" y="661"/>
      <point x="408" y="661" type="curve" smooth="yes"/>
      <point x="583" y="661"/>
      <point x="713" y="528"/>
      <point x="713" y="353" type="curve" smooth="yes"/>
      <point x="713" y="178"/>
      <point x="583" y="44"/>
    </contour>
  </outline>
</glyph>
<glyph name="ordfeminine" format="2">
  <advance width="386"/>
  <unicode hex="00AA"/>
  <outline>
    <contour>
      <point x="154" y="374" type="curve" smooth="yes"/>
      <point x="200" y="374"/>
      <point x="240" y="396"/>
      <point x="262" y="441" type="curve"/>
      <point x="265" y="441" type="line"/>
      <point x="265" y="381" type="line"/>
      <point x="345" y="381" type="line"/>
      <point x="345" y="581" type="line" smooth="yes"/>
      <point x="345" y="670"/>
      <point x="292" y="715"/>
      <point x="192" y="715" type="curve" smooth="yes"/>
      <point x="142" y="715"/>
      <point x="84" y="704"/>
      <point x="47" y="686" type="curve"/>
      <point x="71" y="612" type="line"/>
      <point x="106" y="628"/>
      <point x="149" y="637"/>
      <point x="185" y="637" type="curve" smooth="yes"/>
      <point x="235" y="637"/>
      <point x="261" y="619"/>
      <point x="261" y="581" type="curve" smooth="yes"/>
      <point x="261" y="523" type="line" smooth="yes"/>
      <point x="261" y="471"/>
      <point x="215" y="439"/>
      <point x="175" y="439" type="curve" smooth="yes"/>
      <point x="145" y="439"/>
      <point x="124" y="451"/>
      <point x="124" y="477" type="curve" smooth="yes"/>
      <point x="124" y="510"/>
      <point x="152" y="518"/>
      <point x="211" y="518" type="curve" smooth="yes"/>
      <point x="266" y="518" type="line"/>
      <point x="266" y="576" type="line"/>
      <point x="211" y="576" type="line" smooth="yes"/>
      <point x="96" y="576"/>
      <point x="34" y="548"/>
      <point x="34" y="476" type="curve" smooth="yes"/>
      <point x="34" y="415"/>
      <point x="81" y="374"/>
    </contour>
  </outline>
</glyph>
<glyph name="degree" format="2">
  <advance width="389"/>
  <unicode hex="00B0"/>
  <outline>
    <contour>
      <point x="195" y="398" type="curve" smooth="yes"/>
      <point x="287" y="398"/>
      <point x="356" y="466"/>
      <point x="356" y="557" type="curve" smooth="yes"/>
      <point x="356" y="647"/>
      <point x="286" y="715"/>
      <point x="195" y="715" type="curve" smooth="yes"/>
      <point x="102" y="715"/>
      <point x="33" y="646"/>
      <point x="33" y="557" type="curve" smooth="yes"/>
      <point x="33" y="466"/>
      <point x="102" y="398"/>
    </contour>
    <contour>
      <point x="195" y="474" type="curve" smooth="yes"/>
      <point x="149" y="474"/>
      <point x="115" y="509"/>
      <point x="115" y="557" type="curve" smooth="yes"/>
      <point x="115" y="604"/>
      <point x="149" y="640"/>
      <point x="195" y="640" type="curve" smooth="yes"/>
      <point x="240" y="640"/>
      <point x="274" y="604"/>
      <point x="274" y="557" type="curve" smooth="yes"/>
      <point x="274" y="509"/>
      <point x="240" y="474"/>
    </contour>
  </outline>
</glyph>
<glyph name="periodcentered" format="2">
  <advance width="297.26012"/>
  <unicode hex="00B7"/>
  <outline>
    <contour>
      <point x="65" y="200" type="line"/>
      <point x="232" y="200" type="line"/>
      <point x="232" y="353" type="line"/>
      <point x="65" y="353" type="line"/>
    </contour>
  </outline>
</glyph>
<glyph name="questiondown" format="2">
  <advance width="528.83815"/>
  <unicode hex="00BF"/>
  <outline>
    <contour>
      <point x="256" y="-190" type="curve" smooth="yes"/>
      <point x="339" y="-190"/>
      <point x="441" y="-165"/>
      <point x="508" y="-108" type="curve"/>
      <point x="462" y="-2" type="line"/>
      <point x="400" y="-52"/>
      <point x="333" y="-73"/>
      <point x="268" y="-73" type="curve" smooth="yes"/>
      <point x="203" y="-73"/>
      <point x="144" y="-58"/>
      <point x="144" y="0" type="curve" smooth="yes"/>
      <point x="144" y="50"/>
      <point x="185" y="82"/>
      <point x="233" y="114" type="curve" smooth="yes"/>
      <point x="298" y="157"/>
      <point x="330" y="201"/>
      <point x="330" y="258" type="curve" smooth="yes"/>
      <point x="330" y="272" type="line"/>
      <point x="223" y="272" type="line"/>
      <point x="221" y="261" type="line" smooth="yes"/>
      <point x="216" y="230"/>
      <point x="193" y="206"/>
      <point x="138" y="169" type="curve" smooth="yes"/>
      <point x="78" y="132"/>
      <point x="10" y="83"/>
      <point x="10" y="-12" type="curve" smooth="yes"/>
      <point x="10" y="-132"/>
      <point x="108" y="-190"/>
    </contour>
    <contour>
      <point x="198" y="360" type="line"/>
      <point x="355" y="360" type="line"/>
      <point x="355" y="503" type="line"/>
      <point x="198" y="503" type="line"/>
    </contour>
  </outline>
</glyph>
<glyph name="Thorn" format="2">
  <advance width="723"/>
  <unicode hex="00DE"/>
  <anchor x="367" y="0" name="bottom"/>
  <anchor x="366" y="705" name="top"/>
  <outline>
    <contour>
      <point x="101" y="0" type="line"/>
      <point x="240" y="0" type="line"/>
      <point x="240" y="142" type="line"/>
      <point x="426" y="142" type="line" smooth="yes"/>
      <point x="578" y="142"/>
      <point x="674" y="230"/>
      <point x="674" y="367" type="curve" smooth="yes"/>
      <point x="674" y="505"/>
      <point x="579" y="587"/>
      <point x="426" y="587" type="curve" smooth="yes"/>
      <point x="240" y="587" type="line"/>
      <point x="240" y="705" type="line"/>
      <point x="101" y="705" type="line"/>
    </contour>
    <contour>
      <point x="240" y="257" type="line"/>
      <point x="240" y="472" type="line"/>
      <point x="402" y="472" type="line" smooth="yes"/>
      <point x="490" y="472"/>
      <point x="535" y="441"/>
      <point x="535" y="364" type="curve" smooth="yes"/>
      <point x="535" y="288"/>
      <point x="489" y="257"/>
      <point x="402" y="257" type="curve" smooth="yes"/>
    </contour>
  </outline>
</glyph>
<glyph name="eth" format="2">
  <advance width="646"/>
  <unicode hex="00F0"/>
  <outline>
    <contour>
      <point x="323" y="-10" type="curve" smooth="yes"/>
      <point x="493" y="-10"/>
      <point x="600" y="109"/>
      <point x="600" y="303" type="curve" smooth="yes"/>
      <point x="600" y="429"/>
      <point x="548" y="547"/>
      <point x="444" y="625" type="curve"/>
      <point x="441" y="609" type="line"/>
      <point x="541" y="648" type="line"/>
      <point x="512" y="715" type="line"/>
      <point x="365" y="657" type="line"/>
      <point x="398" y="654" type="line"/>
      <point x="341" y="686"/>
      <point x="272" y="707"/>
      <point x="191" y="715" type="curve"/>
      <point x="167" y="632" type="line"/>
      <point x="206" y="626"/>
      <point x="242" y="616"/>
      <point x="274" y="603" type="curve"/>
      <point x="275" y="621" type="line"/>
      <point x="154" y="573" type="line"/>
      <point x="183" y="507" type="line"/>
      <point x="357" y="576" type="line"/>
      <point x="326" y="578" type="line"/>
      <point x="409" y="530"/>
      <point x="458" y="459"/>
      <point x="463" y="376" type="curve"/>
      <point x="457" y="376" type="line"/>
      <point x="430" y="425"/>
      <point x="377" y="465"/>
      <point x="298" y="465" type="curve" smooth="yes"/>
      <point x="154" y="465"/>
      <point x="57" y="368"/>
      <point x="57" y="227" type="curve" smooth="yes"/>
      <point x="57" y="80"/>
      <point x="165" y="-10"/>
    </contour>
    <contour>
      <point x="327" y="98" type="curve" smooth="yes"/>
      <point x="248" y="98"/>
      <point x="195" y="148"/>
      <point x="195" y="228" type="curve" smooth="yes"/>
      <point x="195" y="309"/>
      <point x="248" y="358"/>
      <point x="327" y="358" type="curve" smooth="yes"/>
      <point x="408" y="358"/>
      <point x="459" y="312"/>
      <point x="459" y="228" type="curve" smooth="yes"/>
      <point x="459" y="145"/>
      <point x="408" y="98"/>
    </contour>
  </outline>
</glyph>
<glyph name="divide" format="2">
  <advance width="600"/>
  <unicode hex="00F7"/>
  <outline>
    <contour>
      <point x="56" y="240" type="line"/>
      <point x="544" y="240" type="line"/>
      <point x="544" y="331" type="line"/>
      <point x="56" y="331" type="line"/>
    </contour>
    <contour>
      <point x="238" y="32" type="line"/>
      <point x="350" y="32" type="line"/>
      <point x="350" y="144" type="line"/>
      <point x="238" y="144" type="line"/>
    </contour>
    <contour>
      <point x="238" y="426" type="line"/>
      <point x="350" y="426" type="line"/>
      <point x="350" y="539" type="line"/>
      <point x="238" y="539" type="line"/>
    </contour>
  </outline>
</glyph>
<glyph name="dcroat" format="2">
  <advance width="695"/>
  <unicode hex="0111"/>
  <outline>
    <contour>
      <point x="291" y="-10" type="curve" smooth="yes"/>
      <point x="374" y="-10"/>
      <point x="437" y="30"/>
      <point x="470" y="100" type="curve"/>
      <point x="477" y="100" type="line"/>
      <point x="477" y="0" type="line"/>
      <point x="598" y="0" type="line"/>
      <point x="598" y="546" type="line"/>
      <point x="677" y="546" type="line"/>
      <point x="677" y="634" type="line"/>
      <point x="598" y="634" type="line"/>
      <point x="598" y="705" type="line"/>
      <point x="459" y="705" type="line"/>
      <point x="459" y="631" type="line"/>
      <point x="281" y="631" type="line"/>
      <point x="281" y="546" type="line"/>
      <point x="459" y="546" type="line"/>
      <point x="459" y="398" type="line"/>
      <point x="453" y="398" type="line"/>
      <point x="423" y="457"/>
      <point x="368" y="491"/>
      <point x="287" y="491" type="curve" smooth="yes"/>
      <point x="144" y="491"/>
      <point x="57" y="382"/>
      <point x="57" y="240" type="curve" smooth="yes"/>
      <point x="57" y="97"/>
      <point x="144" y="-10"/>
    </contour>
    <contour>
      <point x="328" y="92" type="curve" smooth="yes"/>
      <point x="244" y="92"/>
      <point x="194" y="147"/>
      <point x="194" y="239" type="curve" smooth="yes"/>
      <point x="194" y="330"/>
      <point x="244" y="388"/>
      <point x="328" y="388" type="curve" smooth="yes"/>
      <point x="413" y="388"/>
      <point x="461" y="330"/>
      <point x="461" y="239" type="curve" smooth="yes"/>
      <point x="461" y="147"/>
      <point x="413" y="92"/>
    </contour>
  </outline>
</glyph>
<glyph name="hbar" format="2">
  <advance width="682"/>
  <unicode hex="0127"/>
  <outline>
    <contour>
      <point x="95" y="0" type="line"/>
      <point x="234" y="0" type="line"/>
      <point x="234" y="249" type="line" smooth="yes"/>
      <point x="234" y="319"/>
      <point x="290" y="375"/>
      <point x="364" y="375" type="curve" smooth="yes"/>
      <point x="432" y="375"/>
      <point x="460" y="334"/>
      <point x="460" y="267" type="curve" smooth="yes"/>
      <point x="460" y="0" type="line"/>
      <point x="599" y="0" type="line"/>
      <point x="599" y="273" type="line" smooth="yes"/>
      <point x="599" y="421"/>
      <point x="531" y="491"/>
      <point x="407" y="491" type="curve" smooth="yes"/>
      <point x="328" y="491"/>
      <point x="264" y="450"/>
      <point x="232" y="386" type="curve"/>
      <point x="225" y="386" type="line"/>
      <point x="225" y="546" type="line"/>
      <point x="412" y="546" type="line"/>
      <point x="412" y="634" type="line"/>
      <point x="225" y="634" type="line"/>
      <point x="225" y="705" type="line"/>
      <point x="95" y="705" type="line"/>
      <point x="95" y="634" type="line"/>
      <point x="16" y="634" type="line"/>
      <point x="16" y="546" type="line"/>
      <point x="95" y="546" type="line"/>
    </contour>
  </outline>
</glyph>
<glyph name="Eng" format="2">
  <advance width="837"/>
  <unicode hex="014A"/>
  <anchor x="421" y="0" name="bottom"/>
  <anchor x="425" y="705" name="top"/>
  <outline>
    <contour>
      <point x="491" y="-190" type="line"/>
      <point x="535" y="-186" type="line" smooth="yes"/>
      <point x="707" y="-172"/>
      <point x="736" y="-87"/>
      <point x="736" y="12" type="curve" smooth="yes"/>
      <point x="736" y="705" type="line"/>
      <point x="601" y="705" type="line"/>
      <point x="601" y="210" type="line"/>
      <point x="595" y="210" type="line"/>
      <point x="223" y="705" type="line"/>
      <point x="101" y="705" type="line"/>
      <point x="101" y="0" type="line"/>
      <point x="236" y="0" type="line"/>
      <point x="236" y="487" type="line"/>
      <point x="242" y="487" type="line"/>
      <point x="611" y="0" type="line"/>
      <point x="608" y="59" type="line"/>
      <point x="608" y="-8" type="line" smooth="yes"/>
      <point x="608" y="-58"/>
      <point x="575" y="-72"/>
      <point x="524" y="-78" type="curve" smooth="yes"/>
      <point x="479" y="-83" type="line"/>
    </contour>
  </outline>
</glyph>
<glyph name="OE" format="2">
  <advance width="1136"/>
  <unicode hex="0152"/>
  <anchor x="625" y="0" name="bottom"/>
  <anchor x="625" y="705" name="top"/>
  <outline>
    <contour>
      <point x="439" y="0" type="curve" smooth="yes"/>
      <point x="1054.006" y="0" type="line"/>
      <point x="1054" y="118" type="line"/>
      <point x="701" y="118" type="line"/>
      <point x="701" y="298" type="line"/>
      <point x="1033" y="298" type="line"/>
      <point x="1033" y="416" type="line"/>
      <point x="701" y="416" type="line"/>
      <point x="701" y="587" type="line"/>
      <point x="1054" y="587" type="line"/>
      <point x="1054.006" y="705" type="line"/>
      <point x="439" y="705" type="line" smooth="yes"/>
      <point x="200" y="705"/>
      <point x="74" y="560"/>
      <point x="74" y="353" type="curve" smooth="yes"/>
      <point x="74" y="145"/>
      <point x="199" y="0"/>
    </contour>
    <contour>
      <point x="447" y="118" type="line" smooth="yes"/>
      <point x="293" y="118"/>
      <point x="216" y="199"/>
      <point x="216" y="353" type="curve" smooth="yes"/>
      <point x="216" y="506"/>
      <point x="293" y="587"/>
      <point x="447" y="587" type="curve" smooth="yes"/>
      <point x="562" y="587" type="line"/>
      <point x="562" y="118" type="line"/>
    </contour>
  </outline>
</glyph>
<glyph name="Bhook" format="2">
  <advance width="905"/>
  <unicode hex="0181"/>
  <outline>
    <contour>
      <point x="245" y="0" type="line"/>
      <point x="575" y="0" type="line" smooth="yes"/>
      <point x="736" y="0"/>
      <point x="832" y="73"/>
      <point x="832" y="198" type="curve" smooth="yes"/>
      <point x="832" y="297"/>
      <point x="774" y="347"/>
      <point x="712" y="362" type="curve"/>
      <point x="712" y="368" type="line"/>
      <point x="768" y="386"/>
      <point x="814" y="438"/>
      <point x="814" y="522" type="curve" smooth="yes"/>
      <point x="814" y="640"/>
      <point x="731" y="705"/>
      <point x="575" y="705" type="curve" smooth="yes"/>
      <point x="216" y="705" type="line" smooth="yes"/>
      <point x="81" y="705"/>
      <point x="13" y="641"/>
      <point x="13" y="520" type="curve" smooth="yes"/>
      <point x="13" y="469" type="line"/>
      <point x="124" y="469" type="line"/>
      <point x="124" y="516" type="line" smooth="yes"/>
      <point x="124" y="574"/>
      <point x="148" y="599"/>
      <point x="214" y="599" type="curve" smooth="yes"/>
      <point x="245" y="599" type="line"/>
    </contour>
    <contour>
      <point x="384" y="111" type="line"/>
      <point x="384" y="300" type="line"/>
      <point x="571" y="300" type="line" smooth="yes"/>
      <point x="648" y="300"/>
      <point x="693" y="272"/>
      <point x="693" y="206" type="curve" smooth="yes"/>
      <point x="693" y="145"/>
      <point x="652" y="111"/>
      <point x="571" y="111" type="curve" smooth="yes"/>
    </contour>
    <contour>
      <point x="384" y="411" type="line"/>
      <point x="384" y="594" type="line"/>
      <point x="554" y="594" type="line" smooth="yes"/>
      <point x="638" y="594"/>
      <point x="675" y="565"/>
      <point x="675" y="505" type="curve" smooth="yes"/>
      <point x="675" y="441"/>
      <point x="636" y="411"/>
      <point x="554" y="411" type="curve" smooth="yes"/>
    </contour>
  </outline>
</glyph>
<glyph name="Yhook" format="2">
  <advance width="690.28902"/>
  <unicode hex="01B3"/>
  <outline>
    <contour>
      <point x="260" y="0" type="line"/>
      <point x="399" y="0" type="line"/>
      <point x="399" y="367" type="line"/>
      <point x="375" y="267" type="line"/>
      <point x="559" y="546" type="line" smooth="yes"/>
      <point x="585" y="585"/>
      <point x="612" y="602"/>
      <point x="648" y="602" type="curve" smooth="yes"/>
      <point x="667" y="602"/>
      <point x="679" y="600"/>
      <point x="693" y="594" type="curve"/>
      <point x="693" y="703" type="line"/>
      <point x="675" y="711"/>
      <point x="654" y="715"/>
      <point x="628" y="715" type="curve" smooth="yes"/>
      <point x="557" y="715"/>
      <point x="504" y="689"/>
      <point x="460" y="617" type="curve" smooth="yes"/>
      <point x="334" y="427" type="line"/>
      <point x="328" y="427" type="line"/>
      <point x="148" y="705" type="line"/>
      <point x="-5" y="705" type="line"/>
      <point x="284" y="267" type="line"/>
      <point x="260" y="367" type="line"/>
    </contour>
  </outline>
</glyph>
<glyph name="jdotless" format="2">
  <advance width="283.78035"/>
  <unicode hex="0237"/>
  <anchor x="144" y="0" name="bottom"/>
  <anchor x="144" y="484" name="top"/>
  <outline>
    <contour>
      <point x="-44" y="-193" type="line"/>
      <point x="13" y="-187" type="line" smooth="yes"/>
      <point x="164" y="-171"/>
      <point x="213" y="-110"/>
      <point x="213" y="14" type="curve" smooth="yes"/>
      <point x="213" y="503" type="line"/>
      <point x="74" y="503" type="line"/>
      <point x="74" y="13" type="line" smooth="yes"/>
      <point x="74" y="-50"/>
      <point x="44" y="-68"/>
      <point x="-7" y="-74" type="curve" smooth="yes"/>
      <point x="-56" y="-80" type="line"/>
    </contour>
  </outline>
</glyph>
<glyph name="bhook" format="2">
  <advance width="682"/>
  <unicode hex="0253"/>
  <outline>
    <contour>
      <point x="391" y="-10" type="curve" smooth="yes"/>
      <point x="538" y="-10"/>
      <point x="625" y="99"/>
      <point x="625" y="252" type="curve" smooth="yes"/>
      <point x="625" y="402"/>
      <point x="537" y="513"/>
      <point x="394" y="513" type="curve" smooth="yes"/>
      <point x="314" y="513"/>
      <point x="262" y="476"/>
      <point x="229" y="417" type="curve"/>
      <point x="222" y="417" type="line"/>
      <point x="223" y="510" type="line" smooth="yes"/>
      <point x="223" y="578"/>
      <point x="251" y="607"/>
      <point x="301" y="607" type="curve" smooth="yes"/>
      <point x="320" y="607"/>
      <point x="341" y="605"/>
      <point x="356" y="599" type="curve"/>
      <point x="367" y="703" type="line"/>
      <point x="349" y="711"/>
      <point x="313" y="715"/>
      <point x="287" y="715" type="curve" smooth="yes"/>
      <point x="145" y="715"/>
      <point x="84" y="635"/>
      <point x="84" y="515" type="curve" smooth="yes"/>
      <point x="84" y="0" type="line"/>
      <point x="205" y="0" type="line"/>
      <point x="205" y="100" type="line"/>
      <point x="212" y="100" type="line"/>
      <point x="247" y="27"/>
      <point x="308" y="-10"/>
    </contour>
    <contour>
      <point x="355" y="98" type="curve" smooth="yes"/>
      <point x="270" y="98"/>
      <point x="221" y="157"/>
      <point x="221" y="252" type="curve" smooth="yes"/>
      <point x="221" y="346"/>
      <point x="270" y="405"/>
      <point x="354" y="405" type="curve" smooth="yes"/>
      <point x="439" y="405"/>
      <point x="488" y="346"/>
      <point x="488" y="252" type="curve" smooth="yes"/>
      <point x="488" y="157"/>
      <point x="439" y="98"/>
    </contour>
  </outline>
</glyph>
<glyph name="dhook" format="2">
  <advance width="682"/>
  <unicode hex="0257"/>
  <outline>
    <contour>
      <point x="290" y="-10" type="curve" smooth="yes"/>
      <point x="373" y="-10"/>
      <point x="434" y="27"/>
      <point x="469" y="100" type="curve"/>
      <point x="477" y="100" type="line"/>
      <point x="477" y="0" type="line"/>
      <point x="598" y="0" type="line"/>
      <point x="598" y="510" type="line" smooth="yes"/>
      <point x="598" y="578"/>
      <point x="625" y="607"/>
      <point x="675" y="607" type="curve" smooth="yes"/>
      <point x="694" y="607"/>
      <point x="715" y="605"/>
      <point x="730" y="599" type="curve"/>
      <point x="741" y="703" type="line"/>
      <point x="723" y="711"/>
      <point x="687" y="715"/>
      <point x="661" y="715" type="curve" smooth="yes"/>
      <point x="519" y="715"/>
      <point x="459" y="636"/>
      <point x="459" y="516" type="curve" smooth="yes"/>
      <point x="459" y="417" type="line"/>
      <point x="452" y="417" type="line"/>
      <point x="422" y="476"/>
      <point x="367" y="513"/>
      <point x="286" y="513" type="curve" smooth="yes"/>
      <point x="143" y="513"/>
      <point x="57" y="402"/>
      <point x="57" y="252" type="curve" smooth="yes"/>
      <point x="57" y="99"/>
      <point x="143" y="-10"/>
    </contour>
    <contour>
      <point x="327" y="98" type="curve" smooth="yes"/>
      <point x="243" y="98"/>
      <point x="194" y="157"/>
      <point x="194" y="252" type="curve" smooth="yes"/>
      <point x="194" y="346"/>
      <point x="243" y="405"/>
      <point x="327" y="405" type="curve" smooth="yes"/>
      <point x="412" y="405"/>
      <point x="461" y="346"/>
      <point x="461" y="252" type="curve" smooth="yes"/>
      <point x="461" y="157"/>
      <point x="412" y="98"/>
    </contour>
  </outline>
</glyph>
<glyph name="schwa" format="2">
  <advance width="628"/>
  <unicode hex="0259"/>
  <outline>
    <contour>
      <point x="304" y="-10" type="curve" smooth="yes"/>
      <point x="473" y="-10"/>
      <point x="571" y="104"/>
      <point x="571" y="251" type="curve" smooth="yes"/>
      <point x="571" y="414"/>
      <point x="467" y="513"/>
      <point x="272" y="513" type="curve" smooth="yes"/>
      <point x="204" y="513"/>
      <point x="127" y="498"/>
      <point x="71" y="458" type="curve"/>
      <point x="110" y="362" type="line"/>
      <point x="155" y="394"/>
      <point x="214" y="404"/>
      <point x="266" y="404" type="curve" smooth="yes"/>
      <point x="381" y="404"/>
      <point x="441" y="359"/>
      <point x="441" y="249" type="curve" smooth="yes"/>
      <point x="441" y="233" type="line" smooth="yes"/>
      <point x="441" y="138"/>
      <point x="383" y="90"/>
      <point x="303" y="90" type="curve" smooth="yes"/>
      <point x="221" y="90"/>
      <point x="172" y="133"/>
      <point x="172" y="227" type="curve"/>
      <point x="157" y="208" type="line"/>
      <point x="463" y="208" type="line"/>
      <point x="463" y="295" type="line"/>
      <point x="56" y="295" type="line"/>
      <point x="56" y="253" type="line" smooth="yes"/>
      <point x="56" y="88"/>
      <point x="154" y="-10"/>
    </contour>
  </outline>
</glyph>
<glyph name="commaturnedmod" format="2">
  <advance width="500"/>
  <unicode hex="02BB"/>
  <anchor x="250" y="484" name="_top"/>
  <anchor x="250" y="695" name="top"/>
  <outline>
    <contour>
      <point x="179" y="579" type="line"/>
      <point x="321" y="579" type="line"/>
      <point x="321" y="695" type="line"/>
      <point x="223" y="695" type="line"/>
      <point x="251" y="677" type="line"/>
      <point x="251" y="709"/>
      <point x="266" y="750"/>
      <point x="299" y="782" type="curve"/>
      <point x="242" y="819" type="line"/>
      <point x="197" y="778"/>
      <point x="179" y="725"/>
      <point x="179" y="664" type="curve" smooth="yes"/>
    </contour>
  </outline>
</glyph>
<glyph name="secondtonechinese" format="2">
  <advance width="500"/>
  <unicode hex="02CA"/>
  <anchor x="250" y="484" name="_top"/>
  <anchor x="250" y="695" name="top"/>
  <outline>
    <contour>
      <point x="201" y="569" type="line"/>
      <point x="299" y="569" type="line"/>
      <point x="446" y="769" type="line"/>
      <point x="303" y="769" type="line"/>
    </contour>
  </outline>
</glyph>
<glyph name="fourthtofinechinese" format="2">
  <advance width="500"/>
  <unicode hex="02CB"/>
  <anchor x="250" y="484" name="_top"/>
  <anchor x="250" y="695" name="top"/>
  <outline>
    <contour>
      <point x="201" y="569" type="line"/>
      <point x="299" y="569" type="line"/>
      <point x="197" y="769" type="line"/>
      <point x="54" y="769" type="line"/>
    </contour>
  </outline>
</glyph>
<glyph name="gravecomb" format="2">
  <unicode hex="0300"/>
  <anchor x="0" y="484" name="_top"/>
  <anchor x="0" y="695" name="top"/>
  <outline>
    <contour>
      <point x="-49" y="569" type="line"/>
      <point x="62" y="569" type="line"/>
      <point x="-41" y="769" type="line"/>
      <point x="-196" y="769" type="line"/>
    </contour>
  </outline>
</glyph>
<glyph name="tildecomb" format="2">
  <unicode hex="0303"/>
  <anchor x="0" y="484" name="_top"/>
  <anchor x="0" y="698" name="top"/>
  <outline>
    <contour>
      <point x="-123" y="588" type="line"/>
      <point x="-115" y="631"/>
      <point x="-104" y="655"/>
      <point x="-70" y="655" type="curve" smooth="yes"/>
      <point x="-49" y="655"/>
      <point x="-30" y="642"/>
      <point x="-9" y="627" type="curve" smooth="yes"/>
      <point x="16" y="609"/>
      <point x="44" y="589"/>
      <point x="82" y="589" type="curve" smooth="yes"/>
      <point x="150" y="589"/>
      <point x="195" y="648"/>
      <point x="202" y="749" type="curve"/>
      <point x="123" y="753" type="line"/>
      <point x="115" y="710"/>
      <point x="104" y="686"/>
      <point x="70" y="686" type="curve" smooth="yes"/>
      <point x="49" y="686"/>
      <point x="29" y="700"/>
      <point x="8" y="714" type="curve" smooth="yes"/>
      <point x="-17" y="732"/>
      <point x="-45" y="751"/>
      <point x="-81" y="751" type="curve" smooth="yes"/>
      <point x="-150" y="751"/>
      <point x="-195" y="693"/>
      <point x="-202" y="593" type="curve"/>
    </contour>
  </outline>
</glyph>
<glyph name="macroncomb" format="2">
  <unicode hex="0304"/>
  <anchor x="0" y="484" name="_top"/>
  <anchor x="0" y="698" name="top"/>
  <outline>
    <contour>
      <point x="-180" y="616" type="line"/>
      <point x="180" y="616" type="line"/>
      <point x="180" y="720" type="line"/>
      <point x="-180" y="720" type="line"/>
    </contour>
  </outline>
</glyph>
<glyph name="brevecomb" format="2">
  <unicode hex="0306"/>
  <anchor x="0" y="484" name="_top"/>
  <anchor x="0" y="698" name="top"/>
  <outline>
    <contour>
      <point x="0" y="561" type="curve" smooth="yes"/>
      <point x="120" y="561"/>
      <point x="176" y="650"/>
      <point x="179" y="769" type="curve"/>
      <point x="86" y="777" type="line"/>
      <point x="81" y="706"/>
      <point x="59" y="660"/>
      <point x="0" y="660" type="curve" smooth="yes"/>
      <point x="-59" y="660"/>
      <point x="-81" y="706"/>
      <point x="-86" y="777" type="curve"/>
      <point x="-179" y="769" type="line"/>
      <point x="-176" y="650"/>
      <point x="-121" y="561"/>
    </contour>
  </outline>
</glyph>
<glyph name="dotaccentcomb" format="2">
  <unicode hex="0307"/>
  <anchor x="0" y="484" name="_top"/>
  <anchor x="0" y="703" name="top"/>
  <outline>
    <contour>
      <point x="-69" y="606" type="line"/>
      <point x="69" y="606" type="line"/>
      <point x="69" y="737" type="line"/>
      <point x="-69" y="737" type="line"/>
    </contour>
  </outline>
</glyph>
<glyph name="hungarumlautcomb" format="2">
  <unicode hex="030B"/>
  <anchor x="0" y="484" name="_top"/>
  <anchor x="0" y="695" name="top"/>
  <outline>
    <contour>
      <point x="39" y="570" type="line"/>
      <point x="122" y="570" type="line"/>
      <point x="214" y="770" type="line"/>
      <point x="86" y="770" type="line"/>
    </contour>
    <contour>
      <point x="-127" y="570" type="line"/>
      <point x="-43" y="570" type="line"/>
      <point x="48" y="770" type="line"/>
      <point x="-81" y="770" type="line"/>
    </contour>
  </outline>
</glyph>
<glyph name="dblgravecomb" format="2">
  <unicode hex="030F"/>
  <anchor x="0" y="484" name="_top"/>
  <anchor x="0" y="695" name="top"/>
  <outline>
    <contour>
      <point x="43" y="562" type="line"/>
      <point x="128" y="562" type="line"/>
      <point x="81" y="769" type="line"/>
      <point x="-48" y="769" type="line"/>
    </contour>
    <contour>
      <point x="-122" y="562" type="line"/>
      <point x="-39" y="562" type="line"/>
      <point x="-86" y="769" type="line"/>
      <point x="-213" y="769" type="line"/>
    </contour>
  </outline>
</glyph>
<glyph name="breveinvertedcomb" format="2">
  <unicode hex="0311"/>
  <anchor x="0" y="484" name="_top"/>
  <anchor x="0" y="698" name="top"/>
  <outline>
    <contour>
      <point x="-86" y="561" type="line"/>
      <point x="-81" y="632"/>
      <point x="-59" y="678"/>
      <point x="0" y="678" type="curve" smooth="yes"/>
      <point x="59" y="678"/>
      <point x="81" y="632"/>
      <point x="86" y="561" type="curve"/>
      <point x="179" y="570" type="line"/>
      <point x="176" y="689"/>
      <point x="121" y="777"/>
      <point x="0" y="777" type="curve" smooth="yes"/>
      <point x="-120" y="777"/>
      <point x="-176" y="689"/>
      <point x="-179" y="570" type="curve"/>
    </contour>
  </outline>
</glyph>
<glyph name="ogonekcomb" format="2">
  <unicode hex="0328"/>
  <anchor x="0" y="0" name="_ogonek"/>
  <outline>
    <contour>
      <point x="-29" y="-206" type="curve" smooth="yes"/>
      <point x="6" y="-206"/>
      <point x="32" y="-201"/>
      <point x="63" y="-188" type="curve"/>
      <point x="43" y="-111" type="line"/>
      <point x="24" y="-118"/>
      <point x="9" y="-121"/>
      <point x="-11" y="-121" type="curve" smooth="yes"/>
      <point x="-36" y="-121"/>
      <point x="-58" y="-110"/>
      <point x="-58" y="-79" type="curve" smooth="yes"/>
      <point x="-58" y="-47"/>
      <point x="-31" y="-19"/>
      <point x="0" y="0" type="curve"/>
      <point x="-49" y="44" type="line"/>
      <point x="-112" y="13"/>
      <point x="-156" y="-47"/>
      <point x="-156" y="-106" type="curve" smooth="yes"/>
      <point x="-156" y="-166"/>
      <point x="-108" y="-206"/>
    </contour>
  </outline>
</glyph>
<glyph name="brevebelowcomb" format="2">
  <unicode hex="032E"/>
  <anchor x="0" y="0" name="_bottom"/>
  <anchor x="0" y="-170" name="bottom"/>
  <outline>
    <contour>
      <point x="0" y="-215" type="curve" smooth="yes"/>
      <point x="114" y="-215"/>
      <point x="182" y="-152"/>
      <point x="185" y="-54" type="curve"/>
      <point x="96" y="-46" type="line"/>
      <point x="90" y="-99"/>
      <point x="59" y="-125"/>
      <point x="0" y="-125" type="curve" smooth="yes"/>
      <point x="-59" y="-125"/>
      <point x="-90" y="-99"/>
      <point x="-96" y="-46" type="curve"/>
      <point x="-185" y="-54" type="line"/>
      <point x="-182" y="-153"/>
      <point x="-113" y="-215"/>
    </contour>
  </outline>
</glyph>
<glyph name="strokeshortcomb" format="2">
  <unicode hex="0335"/>
  <anchor x="0" y="585" name="_stroke"/>
  <outline>
    <contour>
      <point x="-202" y="540" type="line"/>
      <point x="203" y="540" type="line"/>
      <point x="203" y="638" type="line"/>
      <point x="-202" y="638" type="line"/>
    </contour>
  </outline>
</glyph>
<glyph name="slashlongcomb" format="2">
  <unicode hex="0338"/>
  <anchor x="0" y="248" name="_center"/>
  <outline>
    <contour>
      <point x="-146" y="-69" type="line"/>
      <point x="216" y="522" type="line"/>
      <point x="147" y="563" type="line"/>
      <point x="-216" y="-27" type="line"/>
    </contour>
  </outline>
</glyph>
<glyph name="Sigma" format="2">
  <advance width="612"/>
  <unicode hex="03A3"/>
  <outline>
    <contour>
      <point x="51" y="-180" type="line"/>
      <point x="560" y="-180" type="line"/>
      <point x="560" y="-65" type="line"/>
      <point x="179" y="-65" type="line"/>
      <point x="182" y="-108" type="line"/>
      <point x="415" y="221" type="line"/>
      <point x="415" y="305" type="line"/>
      <point x="184" y="630" type="line"/>
      <point x="181" y="590" type="line"/>
      <point x="560" y="590" type="line"/>
      <point x="560" y="705" type="line"/>
      <point x="51" y="705" type="line"/>
      <point x="51" y="608" type="line"/>
      <point x="312" y="239" type="line"/>
      <point x="312" y="286" type="line"/>
      <point x="51" y="-83" type="line"/>
    </contour>
  </outline>
</glyph>
<glyph name="mu" format="2">
  <advance width="667"/>
  <unicode hex="03BC"/>
  <outline>
    <contour>
      <point x="83" y="-180" type="line"/>
      <point x="217" y="-180" type="line"/>
      <point x="205" y="41" type="line"/>
      <point x="211" y="41" type="line"/>
      <point x="228" y="10"/>
      <point x="258" y="-10"/>
      <point x="308" y="-10" type="curve" smooth="yes"/>
      <point x="371" y="-10"/>
      <point x="418" y="37"/>
      <point x="443" y="105" type="curve"/>
      <point x="450" y="105" type="line"/>
      <point x="450" y="0" type="line"/>
      <point x="583" y="0" type="line"/>
      <point x="583" y="503" type="line"/>
      <point x="444" y="503" type="line"/>
      <point x="444" y="229" type="line" smooth="yes"/>
      <point x="444" y="164"/>
      <point x="389" y="106"/>
      <point x="319" y="106" type="curve" smooth="yes"/>
      <point x="250" y="106"/>
      <point x="222" y="148"/>
      <point x="222" y="211" type="curve" smooth="yes"/>
      <point x="222" y="503" type="line"/>
      <point x="83" y="503" type="line"/>
    </contour>
  </outline>
</glyph>
<glyph name="E-cy" format="2">
  <advance width="736"/>
  <unicode hex="0404"/>
  <anchor x="415" y="0" name="bottom"/>
  <anchor x="416" y="709" name="top"/>
  <outline>
    <contour>
      <point x="431" y="-10" type="curve" smooth="yes"/>
      <point x="526" y="-10"/>
      <point x="599" y="11"/>
      <point x="671" y="65" type="curve"/>
      <point x="627" y="172" type="line"/>
      <point x="566" y="125"/>
      <point x="505" y="111"/>
      <point x="429" y="111" type="curve" smooth="yes"/>
      <point x="296" y="111"/>
      <point x="217" y="184"/>
      <point x="216" y="341" type="curve"/>
      <point x="175" y="296" type="line"/>
      <point x="552" y="296" type="line"/>
      <point x="552" y="414" type="line"/>
      <point x="177" y="414" type="line"/>
      <point x="217" y="377" type="line"/>
      <point x="219" y="521"/>
      <point x="296" y="594"/>
      <point x="429" y="594" type="curve" smooth="yes"/>
      <point x="505" y="594"/>
      <point x="561" y="578"/>
      <point x="627" y="533" type="curve"/>
      <point x="671" y="640" type="line"/>
      <point x="599" y="694"/>
      <point x="526" y="715"/>
      <point x="431" y="715" type="curve" smooth="yes"/>
      <point x="212" y="715"/>
      <point x="74" y="580"/>
      <point x="74" y="353" type="curve" smooth="yes"/>
      <point x="74" y="125"/>
      <point x="212" y="-10"/>
    </contour>
  </outline>
</glyph>
<glyph name="Lje-cy" format="2">
  <advance width="1199"/>
  <unicode hex="0409"/>
  <outline>
    <contour>
      <point x="91" y="-17" type="line"/>
      <point x="236" y="54"/>
      <point x="311" y="198"/>
      <point x="311" y="455" type="curve" smooth="yes"/>
      <point x="311" y="585" type="line"/>
      <point x="556" y="585" type="line"/>
      <point x="556" y="0" type="line"/>
      <point x="897" y="0" type="line" smooth="yes"/>
      <point x="1047" y="0"/>
      <point x="1143" y="79"/>
      <point x="1143" y="214" type="curve" smooth="yes"/>
      <point x="1143" y="348"/>
      <point x="1047" y="424"/>
      <point x="897" y="424" type="curve" smooth="yes"/>
      <point x="695" y="424" type="line"/>
      <point x="695" y="705" type="line"/>
      <point x="180" y="705" type="line"/>
      <point x="180" y="490" type="line" smooth="yes"/>
      <point x="180" y="246"/>
      <point x="132" y="145"/>
      <point x="19" y="81" type="curve"/>
    </contour>
    <contour>
      <point x="695" y="115" type="line"/>
      <point x="695" y="309" type="line"/>
      <point x="875" y="309" type="line" smooth="yes"/>
      <point x="962" y="309"/>
      <point x="1004" y="282"/>
      <point x="1004" y="212" type="curve" smooth="yes"/>
      <point x="1004" y="142"/>
      <point x="964" y="115"/>
      <point x="875" y="115" type="curve" smooth="yes"/>
    </contour>
  </outline>
</glyph>
<glyph name="Nje-cy" format="2">
  <advance width="1222"/>
  <unicode hex="040A"/>
  <outline>
    <contour>
      <point x="101" y="0" type="line"/>
      <point x="240" y="0" type="line"/>
      <point x="240" y="298" type="line"/>
      <point x="579" y="298" type="line"/>
      <point x="579" y="0" type="line"/>
      <point x="920" y="0" type="line" smooth="yes"/>
      <point x="1070" y="0"/>
      <point x="1166" y="79"/>
      <point x="1166" y="214" type="curve" smooth="yes"/>
      <point x="1166" y="348"/>
      <point x="1070" y="424"/>
      <point x="920" y="424" type="curve" smooth="yes"/>
      <point x="718" y="424" type="line"/>
      <point x="718" y="705" type="line"/>
      <point x="579" y="705" type="line"/>
      <point x="579" y="418" type="line"/>
      <point x="240" y="418" type="line"/>
      <point x="240" y="705" type="line"/>
      <point x="101" y="705" type="line"/>
    </contour>
    <contour>
      <point x="718" y="115" type="line"/>
      <point x="718" y="309" type="line"/>
      <point x="898" y="309" type="line" smooth="yes"/>
      <point x="985" y="309"/>
      <point x="1027" y="282"/>
      <point x="1027" y="212" type="curve" smooth="yes"/>
      <point x="1027" y="142"/>
      <point x="987" y="115"/>
      <point x="898" y="115" type="curve" smooth="yes"/>
    </contour>
  </outline>
</glyph>
<glyph name="Dzhe-cy" format="2">
  <advance width="823"/>
  <unicode hex="040F"/>
  <outline>
    <contour>
      <point x="350" y="-166" type="line"/>
      <point x="478" y="-166" type="line"/>
      <point x="478" y="0" type="line"/>
      <point x="722" y="0" type="line"/>
      <point x="722" y="705" type="line"/>
      <point x="583" y="705" type="line"/>
      <point x="583" y="120" type="line"/>
      <point x="240" y="120" type="line"/>
      <point x="240" y="705" type="line"/>
      <point x="101" y="705" type="line"/>
      <point x="101" y="0" type="line"/>
      <point x="350" y="0" type="line"/>
    </contour>
  </outline>
</glyph>
<glyph name="Be-cy" format="2">
  <advance width="733"/>
  <unicode hex="0411"/>
  <outline>
    <contour>
      <point x="101" y="0" type="line"/>
      <point x="442" y="0" type="line" smooth="yes"/>
      <point x="592" y="0"/>
      <point x="688" y="74"/>
      <point x="688" y="209" type="curve" smooth="yes"/>
      <point x="688" y="343"/>
      <point x="592" y="419"/>
      <point x="442" y="419" type="curve" smooth="yes"/>
      <point x="240" y="419" type="line"/>
      <point x="240" y="585" type="line"/>
      <point x="613" y="585" type="line"/>
      <point x="613" y="705" type="line"/>
      <point x="101" y="705" type="line"/>
    </contour>
    <contour>
      <point x="240" y="110" type="line"/>
      <point x="240" y="304" type="line"/>
      <point x="420" y="304" type="line" smooth="yes"/>
      <point x="507" y="304"/>
      <point x="549" y="272"/>
      <point x="549" y="207" type="curve" smooth="yes"/>
      <point x="549" y="142"/>
      <point x="509" y="110"/>
      <point x="420" y="110" type="curve" smooth="yes"/>
    </contour>
  </outline>
</glyph>
<glyph name="De-cy" format="2">
  <advance width="864"/>
  <unicode hex="0414"/>
  <outline>
    <contour>
      <point x="35" y="-166" type="line"/>
      <point x="163" y="-166" type="line"/>
      <point x="163" y="0" type="line"/>
      <point x="694" y="0" type="line"/>
      <point x="694" y="-166" type="line"/>
      <point x="822" y="-166" type="line"/>
      <point x="822" y="121" type="line"/>
      <point x="727" y="121" type="line"/>
      <point x="727" y="705" type="line"/>
      <point x="203" y="705" type="line"/>
      <point x="203" y="510" type="line" smooth="yes"/>
      <point x="203" y="322"/>
      <point x="176" y="205"/>
      <point x="110" y="121" type="curve"/>
      <point x="35" y="121" type="line"/>
    </contour>
    <contour>
      <point x="252" y="120" type="line"/>
      <point x="308" y="208"/>
      <point x="333" y="312"/>
      <point x="333" y="497" type="curve" smooth="yes"/>
      <point x="333" y="585" type="line"/>
      <point x="588" y="585" type="line"/>
      <point x="588" y="120" type="line"/>
    </contour>
  </outline>
</glyph>
<glyph name="Zhe-cy" format="2">
  <advance width="1094"/>
  <unicode hex="0416"/>
  <anchor x="919" y="0" name="bottomright"/>
  <anchor x="547" y="705" name="top"/>
  <outline>
    <contour>
      <point x="20" y="0" type="line"/>
      <point x="176" y="0" type="line"/>
      <point x="270" y="202" type="line" smooth="yes"/>
      <point x="301" y="269"/>
      <point x="342" y="296"/>
      <point x="409" y="296" type="curve" smooth="yes"/>
      <point x="478" y="296" type="line"/>
      <point x="478" y="0" type="line"/>
      <point x="617" y="0" type="line"/>
      <point x="617" y="296" type="line"/>
      <point x="686" y="296" type="line" smooth="yes"/>
      <point x="755" y="296"/>
      <point x="794" y="266"/>
      <point x="824" y="202" type="curve" smooth="yes"/>
      <point x="919" y="0" type="line"/>
      <point x="1074" y="0" type="line"/>
      <point x="952" y="252" type="line" smooth="yes"/>
      <point x="908" y="340"/>
      <point x="840" y="396"/>
      <point x="754" y="410" type="curve"/>
      <point x="816" y="368" type="line"/>
      <point x="1038" y="705" type="line"/>
      <point x="881" y="705" type="line"/>
      <point x="683" y="394" type="line"/>
      <point x="708" y="416" type="line"/>
      <point x="617" y="416" type="line"/>
      <point x="617" y="705" type="line"/>
      <point x="478" y="705" type="line"/>
      <point x="478" y="416" type="line"/>
      <point x="388" y="416" type="line"/>
      <point x="412" y="394" type="line"/>
      <point x="214" y="705" type="line"/>
      <point x="56" y="705" type="line"/>
      <point x="279" y="368" type="line"/>
      <point x="342" y="410" type="line"/>
      <point x="255" y="396"/>
      <point x="187" y="341"/>
      <point x="143" y="251" type="curve" smooth="yes"/>
    </contour>
  </outline>
</glyph>
<glyph name="Ii-cy" format="2">
  <advance width="837"/>
  <unicode hex="0418"/>
  <anchor x="601" y="0" name="bottomright"/>
  <anchor x="424" y="705" name="top"/>
  <outline>
    <contour>
      <point x="101" y="0" type="line"/>
      <point x="228" y="0" type="line"/>
      <point x="595" y="498" type="line"/>
      <point x="601" y="498" type="line"/>
      <point x="601" y="0" type="line"/>
      <point x="736" y="0" type="line"/>
      <point x="736" y="705" type="line"/>
      <point x="608" y="705" type="line"/>
      <point x="242" y="209" type="line"/>
      <point x="236" y="209" type="line"/>
      <point x="236" y="705" type="line"/>
      <point x="101" y="705" type="line"/>
    </contour>
  </outline>
</glyph>
<glyph name="Ka-cy" format="2">
  <advance width="747"/>
  <unicode hex="041A"/>
  <anchor x="571" y="0" name="bottomright"/>
  <anchor x="387" y="353" name="center"/>
  <anchor x="371" y="705" name="top"/>
  <anchor x="240" y="705" name="topleft"/>
  <outline>
    <contour>
      <point x="101" y="0" type="line"/>
      <point x="240" y="0" type="line"/>
      <point x="240" y="296" type="line"/>
      <point x="339" y="296" type="line" smooth="yes"/>
      <point x="408" y="296"/>
      <point x="446" y="266"/>
      <point x="477" y="202" type="curve" smooth="yes"/>
      <point x="571" y="0" type="line"/>
      <point x="727" y="0" type="line"/>
      <point x="604" y="252" type="line" smooth="yes"/>
      <point x="561" y="340"/>
      <point x="493" y="396"/>
      <point x="406" y="410" type="curve"/>
      <point x="469" y="366" type="line"/>
      <point x="691" y="705" type="line"/>
      <point x="533" y="705" type="line"/>
      <point x="336" y="391" type="line"/>
      <point x="361" y="416" type="line"/>
      <point x="240" y="416" type="line"/>
      <point x="240" y="705" type="line"/>
      <point x="101" y="705" type="line"/>
    </contour>
  </outline>
</glyph>
<glyph name="El-cy" format="2">
  <advance width="806"/>
  <unicode hex="041B"/>
  <anchor x="566" y="0" name="bottomright"/>
  <outline>
    <contour>
      <point x="91" y="-17" type="line"/>
      <point x="236" y="54"/>
      <point x="311" y="198"/>
      <point x="311" y="455" type="curve" smooth="yes"/>
      <point x="311" y="585" type="line"/>
      <point x="566" y="585" type="line"/>
      <point x="566" y="0" type="line"/>
      <point x="705" y="0" type="line"/>
      <point x="705" y="705" type="line"/>
      <point x="180" y="705" type="line"/>
      <point x="180" y="490" type="line" smooth="yes"/>
      <point x="180" y="246"/>
      <point x="132" y="145"/>
      <point x="19" y="81" type="curve"/>
    </contour>
  </outline>
</glyph>
<glyph name="U-cy" format="2">
  <advance width="683"/>
  <unicode hex="0423"/>
  <anchor x="344" y="705" name="top"/>
  <outline>
    <contour>
      <point x="188" y="0" type="line"/>
      <point x="337" y="0" type="line"/>
      <point x="696" y="705" type="line"/>
      <point x="551" y="705" type="line"/>
      <point x="366" y="339" type="line"/>
      <point x="361" y="339" type="line"/>
      <point x="138" y="705" type="line"/>
      <point x="-11" y="705" type="line"/>
      <point x="303" y="194" type="line"/>
      <point x="308" y="236" type="line"/>
    </contour>
  </outline>
</glyph>
<glyph name="Ef-cy" format="2">
  <advance width="995"/>
  <unicode hex="0424"/>
  <outline>
    <contour>
      <point x="427" y="-26" type="line"/>
      <point x="568" y="-26" type="line"/>
      <point x="568" y="104" type="line"/>
      <point x="534" y="80" type="line"/>
      <point x="560" y="80" type="line" smooth="yes"/>
      <point x="766" y="80"/>
      <point x="921" y="165"/>
      <point x="921" y="358" type="curve" smooth="yes"/>
      <point x="921" y="552"/>
      <point x="770" y="636"/>
      <point x="560" y="636" type="curve" smooth="yes"/>
      <point x="534" y="636" type="line"/>
      <point x="568" y="611" type="line"/>
      <point x="568" y="736" type="line"/>
      <point x="427" y="736" type="line"/>
      <point x="427" y="611" type="line"/>
      <point x="460" y="636" type="line"/>
      <point x="434" y="636" type="line" smooth="yes"/>
      <point x="225" y="636"/>
      <point x="74" y="552"/>
      <point x="74" y="358" type="curve" smooth="yes"/>
      <point x="74" y="165"/>
      <point x="228" y="80"/>
      <point x="434" y="80" type="curve" smooth="yes"/>
      <point x="460" y="80" type="line"/>
      <point x="427" y="104" type="line"/>
    </contour>
    <contour>
      <point x="428" y="159" type="line"/>
      <point x="456" y="198" type="line"/>
      <point x="421" y="198" type="line" smooth="yes"/>
      <point x="317" y="198"/>
      <point x="214" y="225"/>
      <point x="214" y="358" type="curve" smooth="yes"/>
      <point x="214" y="493"/>
      <point x="314" y="518"/>
      <point x="421" y="518" type="curve" smooth="yes"/>
      <point x="456" y="518" type="line"/>
      <point x="428" y="557" type="line"/>
    </contour>
    <contour>
      <point x="567" y="159" type="line"/>
      <point x="567" y="557" type="line"/>
      <point x="538" y="518" type="line"/>
      <point x="573" y="518" type="line" smooth="yes"/>
      <point x="681" y="518"/>
      <point x="781" y="493"/>
      <point x="781" y="358" type="curve" smooth="yes"/>
      <point x="781" y="225"/>
      <point x="677" y="198"/>
      <point x="573" y="198" type="curve" smooth="yes"/>
      <point x="538" y="198" type="line"/>
    </contour>
  </outline>
</glyph>
<glyph name="Tse-cy" format="2">
  <advance width="870"/>
  <unicode hex="0426"/>
  <outline>
    <contour>
      <point x="700" y="-166" type="line"/>
      <point x="828" y="-166" type="line"/>
      <point x="828" y="116" type="line"/>
      <point x="723" y="116" type="line"/>
      <point x="723" y="705" type="line"/>
      <point x="584" y="705" type="line"/>
      <point x="584" y="120" type="line"/>
      <point x="240" y="120" type="line"/>
      <point x="240" y="705" type="line"/>
      <point x="101" y="705" type="line"/>
      <point x="101" y="0" type="line"/>
      <point x="700" y="0" type="line"/>
    </contour>
  </outline>
</glyph>
<glyph name="Sha-cy" format="2">
  <advance width="1138"/>
  <unicode hex="0428"/>
  <outline>
    <contour>
      <point x="101" y="0" type="line"/>
      <point x="1037" y="0" type="line"/>
      <point x="1037" y="705" type="line"/>
      <point x="898" y="705" type="line"/>
      <point x="898" y="120" type="line"/>
      <point x="638" y="120" type="line"/>
      <point x="638" y="705" type="line"/>
      <point x="499" y="705" type="line"/>
      <point x="499" y="120" type="line"/>
      <point x="240" y="120" type="line"/>
      <point x="240" y="705" type="line"/>
      <point x="101" y="705" type="line"/>
    </contour>
  </outline>
</glyph>
<glyph name="Shcha-cy" format="2">
  <advance width="1178"/>
  <unicode hex="0429"/>
  <outline>
    <contour>
      <point x="1008" y="-166" type="line"/>
      <point x="1136" y="-166" type="line"/>
      <point x="1136" y="111" type="line"/>
      <point x="1037" y="111" type="line"/>
      <point x="1037" y="705" type="line"/>
      <point x="898" y="705" type="line"/>
      <point x="898" y="120" type="line"/>
      <point x="638" y="120" type="line"/>
      <point x="638" y="705" type="line"/>
      <point x="499" y="705" type="line"/>
      <point x="499" y="120" type="line"/>
      <point x="240" y="120" type="line"/>
      <point x="240" y="705" type="line"/>
      <point x="101" y="705" type="line"/>
      <point x="101" y="0" type="line"/>
      <point x="1008" y="0" type="line"/>
    </contour>
  </outline>
</glyph>
<glyph name="Hardsign-cy" format="2">
  <advance width="894"/>
  <unicode hex="042A"/>
  <outline>
    <contour>
      <point x="251" y="0" type="line"/>
      <point x="592" y="0" type="line" smooth="yes"/>
      <point x="742" y="0"/>
      <point x="838" y="79"/>
      <point x="838" y="214" type="curve" smooth="yes"/>
      <point x="838" y="348"/>
      <point x="742" y="424"/>
      <point x="592" y="424" type="curve" smooth="yes"/>
      <point x="390" y="424" type="line"/>
      <point x="390" y="705" type="line"/>
      <point x="31.006" y="705" type="line"/>
      <point x="31" y="585" type="line"/>
      <point x="251" y="585" type="line"/>
    </contour>
    <contour>
      <point x="390" y="115" type="line"/>
      <point x="390" y="309" type="line"/>
      <point x="570" y="309" type="line" smooth="yes"/>
      <point x="657" y="309"/>
      <point x="699" y="282"/>
      <point x="699" y="212" type="curve" smooth="yes"/>
      <point x="699" y="142"/>
      <point x="659" y="115"/>
      <point x="570" y="115" type="curve" smooth="yes"/>
    </contour>
  </outline>
</glyph>
<glyph name="Yeru-cy" format="2">
  <advance width="992"/>
  <unicode hex="042B"/>
  <anchor x="494" y="705" name="top"/>
  <outline>
    <contour>
      <point x="101" y="0" type="line"/>
      <point x="426" y="0" type="line" smooth="yes"/>
      <point x="576" y="0"/>
      <point x="672" y="79"/>
      <point x="672" y="214" type="curve" smooth="yes"/>
      <point x="672" y="348"/>
      <point x="576" y="424"/>
      <point x="426" y="424" type="curve" smooth="yes"/>
      <point x="240" y="424" type="line"/>
      <point x="240" y="705" type="line"/>
      <point x="101" y="705" type="line"/>
    </contour>
    <contour>
      <point x="240" y="115" type="line"/>
      <point x="240" y="309" type="line"/>
      <point x="404" y="309" type="line" smooth="yes"/>
      <point x="491" y="309"/>
      <point x="533" y="282"/>
      <point x="533" y="212" type="curve" smooth="yes"/>
      <point x="533" y="142"/>
      <point x="493" y="115"/>
      <point x="404" y="115" type="curve" smooth="yes"/>
    </contour>
    <contour>
      <point x="752" y="0" type="line"/>
      <point x="891" y="0" type="line"/>
      <point x="891" y="705" type="line"/>
      <point x="752" y="705" type="line"/>
    </contour>
  </outline>
</glyph>
<glyph name="Iu-cy" format="2">
  <advance width="1132"/>
  <unicode hex="042E"/>
  <outline>
    <contour>
      <point x="715" y="-10" type="curve" smooth="yes"/>
      <point x="919" y="-10"/>
      <point x="1057" y="132"/>
      <point x="1057" y="354" type="curve" smooth="yes"/>
      <point x="1057" y="574"/>
      <point x="919" y="715"/>
      <point x="715" y="715" type="curve" smooth="yes"/>
      <point x="533" y="715"/>
      <point x="406" y="603"/>
      <point x="379" y="419" type="curve"/>
      <point x="240" y="419" type="line"/>
      <point x="240" y="705" type="line"/>
      <point x="101" y="705" type="line"/>
      <point x="101" y="0" type="line"/>
      <point x="240" y="0" type="line"/>
      <point x="240" y="299" type="line"/>
      <point x="377" y="299" type="line"/>
      <point x="399" y="107"/>
      <point x="529" y="-10"/>
    </contour>
    <contour>
      <point x="715" y="111" type="curve" smooth="yes"/>
      <point x="589" y="111"/>
      <point x="516" y="200"/>
      <point x="516" y="353" type="curve" smooth="yes"/>
      <point x="516" y="506"/>
      <point x="589" y="594"/>
      <point x="715" y="594" type="curve" smooth="yes"/>
      <point x="842" y="594"/>
      <point x="915" y="506"/>
      <point x="915" y="353" type="curve" smooth="yes"/>
      <point x="915" y="201"/>
      <point x="842" y="111"/>
    </contour>
  </outline>
</glyph>
<glyph name="be-cy" format="2">
  <advance width="673"/>
  <unicode hex="0431"/>
  <outline>
    <contour>
      <point x="341" y="-10" type="curve" smooth="yes"/>
      <point x="495" y="-10"/>
      <point x="609" y="89"/>
      <point x="609" y="244" type="curve" smooth="yes"/>
      <point x="609" y="394"/>
      <point x="500" y="486"/>
      <point x="373" y="486" type="curve" smooth="yes"/>
      <point x="274" y="485"/>
      <point x="215" y="434"/>
      <point x="190" y="374" type="curve"/>
      <point x="184" y="374" type="line"/>
      <point x="184" y="396" type="line" smooth="yes"/>
      <point x="184" y="492"/>
      <point x="242" y="552"/>
      <point x="358" y="577" type="curve" smooth="yes"/>
      <point x="562" y="621" type="line"/>
      <point x="527" y="730" type="line"/>
      <point x="349" y="689" type="line" smooth="yes"/>
      <point x="91" y="632"/>
      <point x="64" y="474"/>
      <point x="64" y="350" type="curve" smooth="yes"/>
      <point x="64" y="277" type="line" smooth="yes"/>
      <point x="64" y="97"/>
      <point x="178" y="-10"/>
    </contour>
    <contour>
      <point x="337" y="98" type="curve" smooth="yes"/>
      <point x="255" y="98"/>
      <point x="203" y="150"/>
      <point x="203" y="240" type="curve" smooth="yes"/>
      <point x="203" y="322"/>
      <point x="256" y="378"/>
      <point x="337" y="378" type="curve" smooth="yes"/>
      <point x="417" y="378"/>
      <point x="470" y="322"/>
      <point x="470" y="235" type="curve" smooth="yes"/>
      <point x="470" y="145"/>
      <point x="418" y="98"/>
    </contour>
  </outline>
</glyph>
<glyph name="ge-cy" format="2">
  <advance width="522"/>
  <unicode hex="0433"/>
  <anchor x="101" y="0" name="bottomright"/>
  <anchor x="194" y="253" name="center"/>
  <anchor x="275" y="489" name="top"/>
  <outline>
    <contour>
      <point x="90" y="0" type="line"/>
      <point x="229" y="0" type="line"/>
      <point x="229" y="389" type="line"/>
      <point x="496" y="389" type="line"/>
      <point x="496" y="503" type="line"/>
      <point x="90" y="503" type="line"/>
    </contour>
  </outline>
</glyph>
<glyph name="ka-cy" format="2">
  <advance width="643"/>
  <unicode hex="043A"/>
  <anchor x="502" y="0" name="bottomright"/>
  <anchor x="312" y="253" name="center"/>
  <anchor x="345" y="489" name="top"/>
  <outline>
    <contour>
      <point x="90" y="0" type="line"/>
      <point x="229" y="0" type="line"/>
      <point x="229" y="203" type="line"/>
      <point x="298" y="203" type="line" smooth="yes"/>
      <point x="350" y="203"/>
      <point x="372" y="182"/>
      <point x="397" y="141" type="curve" smooth="yes"/>
      <point x="482" y="0" type="line"/>
      <point x="631" y="0" type="line"/>
      <point x="519" y="189" type="line" smooth="yes"/>
      <point x="483" y="247"/>
      <point x="453" y="273"/>
      <point x="396" y="279" type="curve"/>
      <point x="410" y="250" type="line"/>
      <point x="607" y="503" type="line"/>
      <point x="458" y="503" type="line"/>
      <point x="307" y="307" type="line"/>
      <point x="229" y="307" type="line"/>
      <point x="229" y="503" type="line"/>
      <point x="90" y="503" type="line"/>
    </contour>
  </outline>
</glyph>
<glyph name="el-cy" format="2">
  <advance width="673"/>
  <unicode hex="043B"/>
  <anchor x="449" y="0" name="bottomright"/>
  <outline>
    <contour>
      <point x="72" y="-14" type="line"/>
      <point x="226" y="21"/>
      <point x="277" y="142"/>
      <point x="277" y="341" type="curve" smooth="yes"/>
      <point x="277" y="389" type="line"/>
      <point x="444" y="389" type="line"/>
      <point x="444" y="0" type="line"/>
      <point x="583" y="0" type="line"/>
      <point x="583" y="503" type="line"/>
      <point x="150" y="503" type="line"/>
      <point x="150" y="345" type="line" smooth="yes"/>
      <point x="150" y="196"/>
      <point x="125" y="122"/>
      <point x="28" y="92" type="curve"/>
    </contour>
  </outline>
</glyph>
<glyph name="pe-cy" format="2">
  <advance width="687"/>
  <unicode hex="043F"/>
  <anchor x="458" y="0" name="bottomright"/>
  <outline>
    <contour>
      <point x="90" y="0" type="line"/>
      <point x="229" y="0" type="line"/>
      <point x="229" y="389" type="line"/>
      <point x="458" y="389" type="line"/>
      <point x="458" y="0" type="line"/>
      <point x="597" y="0" type="line"/>
      <point x="597" y="503" type="line"/>
      <point x="90" y="503" type="line"/>
    </contour>
  </outline>
</glyph>
<glyph name="te-cy" format="2">
  <advance width="549"/>
  <unicode hex="0442"/>
  <anchor x="205" y="0" name="bottomright"/>
  <outline>
    <contour>
      <point x="205" y="0" type="line"/>
      <point x="344" y="0" type="line"/>
      <point x="344" y="389" type="line"/>
      <point x="527" y="389" type="line"/>
      <point x="527" y="503" type="line"/>
      <point x="22" y="503" type="line"/>
      <point x="22" y="389" type="line"/>
      <point x="205" y="389" type="line"/>
    </contour>
  </outline>
</glyph>
<glyph name="ef-cy" format="2">
  <advance width="1001"/>
  <unicode hex="0444"/>
  <outline>
    <contour>
      <point x="431" y="-180" type="line"/>
      <point x="570" y="-180" type="line"/>
      <point x="565" y="81" type="line"/>
      <point x="571" y="81" type="line"/>
      <point x="593" y="27"/>
      <point x="652" y="-10"/>
      <point x="724" y="-10" type="curve" smooth="yes"/>
      <point x="847" y="-10"/>
      <point x="937" y="92"/>
      <point x="937" y="252" type="curve" smooth="yes"/>
      <point x="937" y="412"/>
      <point x="848" y="513"/>
      <point x="724" y="513" type="curve" smooth="yes"/>
      <point x="654" y="513"/>
      <point x="594" y="478"/>
      <point x="570" y="423" type="curve"/>
      <point x="565" y="423" type="line"/>
      <point x="570" y="672" type="line"/>
      <point x="431" y="672" type="line"/>
      <point x="437" y="423" type="line"/>
      <point x="431" y="423" type="line"/>
      <point x="407" y="478"/>
      <point x="347" y="513"/>
      <point x="277" y="513" type="curve" smooth="yes"/>
      <point x="153" y="513"/>
      <point x="64" y="413"/>
      <point x="64" y="252" type="curve" smooth="yes"/>
      <point x="64" y="92"/>
      <point x="153" y="-10"/>
      <point x="277" y="-10" type="curve" smooth="yes"/>
      <point x="349" y="-10"/>
      <point x="408" y="27"/>
      <point x="431" y="81" type="curve"/>
      <point x="436" y="81" type="line"/>
    </contour>
    <contour>
      <point x="317" y="98" type="curve" smooth="yes"/>
      <point x="251" y="98"/>
      <point x="203" y="143"/>
      <point x="203" y="253" type="curve" smooth="yes"/>
      <point x="203" y="362"/>
      <point x="250" y="405"/>
      <point x="317" y="405" type="curve" smooth="yes"/>
      <point x="378" y="405"/>
      <point x="431" y="362"/>
      <point x="431" y="253" type="curve" smooth="yes"/>
      <point x="431" y="144"/>
      <point x="379" y="98"/>
    </contour>
    <contour>
      <point x="684" y="98" type="curve" smooth="yes"/>
      <point x="623" y="98"/>
      <point x="570" y="143"/>
      <point x="570" y="253" type="curve" smooth="yes"/>
      <point x="570" y="362"/>
      <point x="623" y="405"/>
      <point x="684" y="405" type="curve" smooth="yes"/>
      <point x="750" y="405"/>
      <point x="798" y="362"/>
      <point x="798" y="253" type="curve" smooth="yes"/>
      <point x="798" y="143"/>
      <point x="750" y="98"/>
    </contour>
  </outline>
</glyph>
<glyph name="tse-cy" format="2">
  <advance width="708"/>
  <unicode hex="0446"/>
  <outline>
    <contour>
      <point x="551" y="-134" type="line"/>
      <point x="669" y="-134" type="line"/>
      <point x="669" y="113" type="line"/>
      <point x="587" y="113" type="line"/>
      <point x="587" y="503" type="line"/>
      <point x="448" y="503" type="line"/>
      <point x="448" y="114" type="line"/>
      <point x="229" y="114" type="line"/>
      <point x="229" y="503" type="line"/>
      <point x="90" y="503" type="line"/>
      <point x="90" y="0" type="line"/>
      <point x="551" y="0" type="line"/>
    </contour>
  </outline>
</glyph>
<glyph name="softsign-cy" format="2">
  <advance width="660"/>
  <unicode hex="044C"/>
  <outline>
    <contour>
      <point x="90" y="0" type="line"/>
      <point x="388" y="0" type="line" smooth="yes"/>
      <point x="520" y="0"/>
      <point x="603" y="71"/>
      <point x="603" y="174" type="curve" smooth="yes"/>
      <point x="603" y="283"/>
      <point x="529" y="343"/>
      <point x="388" y="343" type="curve" smooth="yes"/>
      <point x="229" y="343" type="line"/>
      <point x="229" y="503" type="line"/>
      <point x="90" y="503" type="line"/>
    </contour>
    <contour>
      <point x="229" y="98" type="line"/>
      <point x="229" y="245" type="line"/>
      <point x="357" y="245" type="line" smooth="yes"/>
      <point x="423" y="245"/>
      <point x="464" y="230"/>
      <point x="464" y="173" type="curve" smooth="yes"/>
      <point x="464" y="117"/>
      <point x="423" y="98"/>
      <point x="357" y="98" type="curve" smooth="yes"/>
    </contour>
  </outline>
</glyph>
<glyph name="iu-cy" format="2">
  <advance width="937"/>
  <unicode hex="044E"/>
  <outline>
    <contour>
      <point x="606" y="-10" type="curve" smooth="yes"/>
      <point x="770" y="-10"/>
      <point x="873" y="95"/>
      <point x="873" y="253" type="curve" smooth="yes"/>
      <point x="873" y="409"/>
      <point x="770" y="513"/>
      <point x="606" y="513" type="curve" smooth="yes"/>
      <point x="464" y="513"/>
      <point x="368" y="436"/>
      <point x="344" y="314" type="curve"/>
      <point x="229" y="314" type="line"/>
      <point x="229" y="503" type="line"/>
      <point x="90" y="503" type="line"/>
      <point x="90" y="0" type="line"/>
      <point x="229" y="0" type="line"/>
      <point x="229" y="200" type="line"/>
      <point x="342" y="200" type="line"/>
      <point x="363" y="72"/>
      <point x="460" y="-10"/>
    </contour>
    <contour>
      <point x="606" y="106" type="curve" smooth="yes"/>
      <point x="522" y="106"/>
      <point x="472" y="164"/>
      <point x="472" y="253" type="curve" smooth="yes"/>
      <point x="472" y="342"/>
      <point x="521" y="397"/>
      <point x="606" y="397" type="curve" smooth="yes"/>
      <point x="691" y="397"/>
      <point x="739" y="342"/>
      <point x="739" y="253" type="curve" smooth="yes"/>
      <point x="739" y="164"/>
      <point x="690" y="106"/>
    </contour>
  </outline>
</glyph>
<glyph name="e-cy" format="2">
  <advance width="596"/>
  <unicode hex="0454"/>
  <outline>
    <contour>
      <point x="354" y="-10" type="curve" smooth="yes"/>
      <point x="448" y="-10"/>
      <point x="517" y="10"/>
      <point x="562" y="44" type="curve"/>
      <point x="523" y="138" type="line"/>
      <point x="484" y="107"/>
      <point x="434" y="96"/>
      <point x="370" y="96" type="curve" smooth="yes"/>
      <point x="263" y="96"/>
      <point x="191" y="134"/>
      <point x="190" y="230" type="curve"/>
      <point x="182" y="208" type="line"/>
      <point x="456" y="208" type="line"/>
      <point x="456" y="304" type="line"/>
      <point x="182" y="304" type="line"/>
      <point x="190" y="283" type="line"/>
      <point x="192" y="365"/>
      <point x="262" y="407"/>
      <point x="370" y="407" type="curve" smooth="yes"/>
      <point x="433" y="407"/>
      <point x="485" y="393"/>
      <point x="523" y="364" type="curve"/>
      <point x="562" y="459" type="line"/>
      <point x="518" y="490"/>
      <point x="451" y="513"/>
      <point x="360" y="513" type="curve" smooth="yes"/>
      <point x="179" y="513"/>
      <point x="64" y="414"/>
      <point x="64" y="254" type="curve" smooth="yes"/>
      <point x="64" y="91"/>
      <point x="180" y="-10"/>
    </contour>
  </outline>
</glyph>
<glyph name="lje-cy" format="2">
  <advance width="1014"/>
  <unicode hex="0459"/>
  <outline>
    <contour>
      <point x="72" y="-14" type="line"/>
      <point x="226" y="21"/>
      <point x="279" y="142"/>
      <point x="279" y="341" type="curve" smooth="yes"/>
      <point x="279" y="389" type="line"/>
      <point x="444" y="389" type="line"/>
      <point x="444" y="0" type="line"/>
      <point x="742" y="0" type="line" smooth="yes"/>
      <point x="874" y="0"/>
      <point x="957" y="71"/>
      <point x="957" y="173" type="curve" smooth="yes"/>
      <point x="957" y="282"/>
      <point x="883" y="343"/>
      <point x="742" y="343" type="curve" smooth="yes"/>
      <point x="583" y="343" type="line"/>
      <point x="583" y="503" type="line"/>
      <point x="150" y="503" type="line"/>
      <point x="150" y="345" type="line" smooth="yes"/>
      <point x="150" y="196"/>
      <point x="125" y="122"/>
      <point x="28" y="92" type="curve"/>
    </contour>
    <contour>
      <point x="583" y="98" type="line"/>
      <point x="583" y="245" type="line"/>
      <point x="721" y="245" type="line" smooth="yes"/>
      <point x="779" y="245"/>
      <point x="818" y="227"/>
      <point x="818" y="172" type="curve" smooth="yes"/>
      <point x="818" y="120"/>
      <point x="778" y="98"/>
      <point x="721" y="98" type="curve" smooth="yes"/>
    </contour>
  </outline>
</glyph>
<glyph name="dzhe-cy" format="2">
  <advance width="682"/>
  <unicode hex="045F"/>
  <outline>
    <contour>
      <point x="282" y="-134" type="line"/>
      <point x="400" y="-134" type="line"/>
      <point x="400" y="0" type="line"/>
      <point x="592" y="0" type="line"/>
      <point x="592" y="503" type="line"/>
      <point x="453" y="503" type="line"/>
      <point x="453" y="114" type="line"/>
      <point x="229" y="114" type="line"/>
      <point x="229" y="503" type="line"/>
      <point x="90" y="503" type="line"/>
      <point x="90" y="0" type="line"/>
      <point x="282" y="0" type="line"/>
    </contour>
  </outline>
</glyph>
<glyph name="Yat-cy" format="2">
  <advance width="813"/>
  <unicode hex="0462"/>
  <outline>
    <contour>
      <point x="170" y="0" type="line"/>
      <point x="511" y="0" type="line" smooth="yes"/>
      <point x="661" y="0"/>
      <point x="757" y="67"/>
      <point x="757" y="202" type="curve" smooth="yes"/>
      <point x="757" y="336"/>
      <point x="661" y="401"/>
      <point x="511" y="401" type="curve" smooth="yes"/>
      <point x="309" y="401" type="line"/>
      <point x="309" y="503" type="line"/>
      <point x="557" y="503" type="line"/>
      <point x="557" y="613" type="line"/>
      <point x="309" y="613" type="line"/>
      <point x="309" y="705" type="line"/>
      <point x="170" y="705" type="line"/>
      <point x="170" y="613" type="line"/>
      <point x="3" y="613" type="line"/>
      <point x="3" y="503" type="line"/>
      <point x="170" y="503" type="line"/>
    </contour>
    <contour>
      <point x="309" y="110" type="line"/>
      <point x="309" y="291" type="line"/>
      <point x="489" y="291" type="line" smooth="yes"/>
      <point x="576" y="291"/>
      <point x="618" y="263"/>
      <point x="618" y="200" type="curve" smooth="yes"/>
      <point x="618" y="138"/>
      <point x="578" y="110"/>
      <point x="489" y="110" type="curve" smooth="yes"/>
    </contour>
  </outline>
</glyph>
<glyph name="Yusbig-cy" format="2">
  <advance width="1096"/>
  <unicode hex="046A"/>
  <outline>
    <contour>
      <point x="20" y="0" type="line"/>
      <point x="176" y="0" type="line"/>
      <point x="270" y="202" type="line" smooth="yes"/>
      <point x="300" y="266"/>
      <point x="337" y="296"/>
      <point x="409" y="296" type="curve" smooth="yes"/>
      <point x="479" y="296" type="line"/>
      <point x="479" y="0" type="line"/>
      <point x="618" y="0" type="line"/>
      <point x="618" y="296" type="line"/>
      <point x="687" y="296" type="line" smooth="yes"/>
      <point x="759" y="296"/>
      <point x="796" y="266"/>
      <point x="826" y="202" type="curve" smooth="yes"/>
      <point x="920" y="0" type="line"/>
      <point x="1076" y="0" type="line"/>
      <point x="952" y="255" type="line" smooth="yes"/>
      <point x="903" y="356"/>
      <point x="815" y="407"/>
      <point x="698" y="407" type="curve" smooth="yes"/>
      <point x="651" y="407" type="line"/>
      <point x="682" y="370" type="line"/>
      <point x="977" y="705" type="line"/>
      <point x="118" y="705" type="line"/>
      <point x="413" y="370" type="line"/>
      <point x="444" y="407" type="line"/>
      <point x="398" y="407" type="line" smooth="yes"/>
      <point x="281" y="407"/>
      <point x="194" y="356"/>
      <point x="145" y="255" type="curve" smooth="yes"/>
    </contour>
    <contour>
      <point x="545" y="387" type="line"/>
      <point x="315" y="648" type="line"/>
      <point x="315" y="595" type="line"/>
      <point x="779" y="595" type="line"/>
      <point x="780" y="648" type="line"/>
      <point x="550" y="387" type="line"/>
    </contour>
  </outline>
</glyph>
<glyph name="Izhitsa-cy" format="2">
  <advance width="801"/>
  <unicode hex="0474"/>
  <outline>
    <contour>
      <point x="302" y="0" type="line"/>
      <point x="421" y="0" type="line"/>
      <point x="618" y="459" type="line" smooth="yes"/>
      <point x="667" y="574"/>
      <point x="703" y="597"/>
      <point x="800" y="597" type="curve"/>
      <point x="788" y="715" type="line"/>
      <point x="639" y="715"/>
      <point x="560" y="661"/>
      <point x="500" y="512" type="curve" smooth="yes"/>
      <point x="365" y="179" type="line"/>
      <point x="359" y="179" type="line"/>
      <point x="145" y="705" type="line"/>
      <point x="-5" y="705" type="line"/>
    </contour>
  </outline>
</glyph>
<glyph name="izhitsa-cy" format="2">
  <advance width="638"/>
  <unicode hex="0475"/>
  <outline>
    <contour>
      <point x="223" y="0" type="line"/>
      <point x="365" y="0" type="line"/>
      <point x="494" y="317" type="line" smooth="yes"/>
      <point x="518" y="376"/>
      <point x="542" y="395"/>
      <point x="611" y="396" type="curve"/>
      <point x="596" y="513" type="line"/>
      <point x="446" y="513"/>
      <point x="411" y="450"/>
      <point x="380" y="365" type="curve" smooth="yes"/>
      <point x="300" y="143" type="line"/>
      <point x="293" y="143" type="line"/>
      <point x="164" y="503" type="line"/>
      <point x="17" y="503" type="line"/>
    </contour>
  </outline>
</glyph>
<glyph name="gheupturn-cy" format="2">
  <advance width="521"/>
  <unicode hex="0491"/>
  <outline>
    <contour>
      <point x="90" y="0" type="line"/>
      <point x="229" y="0" type="line"/>
      <point x="229" y="389" type="line"/>
      <point x="495" y="389" type="line"/>
      <point x="495" y="617" type="line"/>
      <point x="377" y="617" type="line"/>
      <point x="377" y="503" type="line"/>
      <point x="90" y="503" type="line"/>
    </contour>
  </outline>
</glyph>
<glyph name="Ghestroke-cy" format="2">
  <advance width="629"/>
  <unicode hex="0492"/>
  <outline>
    <contour>
      <point x="117" y="0" type="line"/>
      <point x="256" y="0" type="line"/>
      <point x="256" y="286" type="line"/>
      <point x="451" y="286" type="line"/>
      <point x="451" y="395" type="line"/>
      <point x="256" y="396" type="line"/>
      <point x="256" y="585" type="line"/>
      <point x="600" y="585" type="line"/>
      <point x="600" y="705" type="line"/>
      <point x="117" y="705" type="line"/>
      <point x="117" y="396" type="line"/>
      <point x="18" y="396" type="line"/>
      <point x="18" y="286" type="line"/>
      <point x="117" y="286" type="line"/>
    </contour>
  </outline>
</glyph>
<glyph name="ghestroke-cy" format="2">
  <advance width="537"/>
  <unicode hex="0493"/>
  <outline>
    <contour>
      <point x="106" y="0" type="line"/>
      <point x="245" y="0" type="line"/>
      <point x="245" y="177" type="line"/>
      <point x="392" y="177" type="line"/>
      <point x="392" y="277" type="line"/>
      <point x="245" y="277" type="line"/>
      <point x="245" y="389" type="line"/>
      <point x="511" y="389" type="line"/>
      <point x="511" y="503" type="line"/>
      <point x="106" y="503" type="line"/>
      <point x="106" y="277" type="line"/>
      <point x="12" y="277" type="line"/>
      <point x="12" y="177" type="line"/>
      <point x="106" y="177" type="line"/>
    </contour>
  </outline>
</glyph>
<glyph name="ghemiddlehook-cy" format="2">
  <advance width="668"/>
  <unicode hex="0495"/>
  <outline>
    <contour>
      <point x="388" y="-188" type="line"/>
      <point x="554" y="-150"/>
      <point x="610" y="-61"/>
      <point x="610" y="49" type="curve" smooth="yes"/>
      <point x="610" y="115" type="line" smooth="yes"/>
      <point x="610" y="252"/>
      <point x="540" y="319"/>
      <point x="408" y="319" type="curve" smooth="yes"/>
      <point x="325" y="319"/>
      <point x="270" y="284"/>
      <point x="234" y="238" type="curve"/>
      <point x="229" y="238" type="line"/>
      <point x="229" y="393" type="line"/>
      <point x="511" y="393" type="line"/>
      <point x="511" y="503" type="line"/>
      <point x="90" y="503" type="line"/>
      <point x="90" y="0" type="line"/>
      <point x="229" y="0" type="line"/>
      <point x="229" y="99" type="line" smooth="yes"/>
      <point x="229" y="166"/>
      <point x="282" y="211"/>
      <point x="363" y="211" type="curve" smooth="yes"/>
      <point x="445" y="211"/>
      <point x="471" y="170"/>
      <point x="471" y="109" type="curve" smooth="yes"/>
      <point x="471" y="49" type="line" smooth="yes"/>
      <point x="471" y="-31"/>
      <point x="430" y="-60"/>
      <point x="345" y="-83" type="curve"/>
    </contour>
  </outline>
</glyph>
<glyph name="Zedescender-cy" format="2">
  <advance width="681"/>
  <unicode hex="0498"/>
  <outline>
    <contour>
      <point x="253" y="-169" type="line"/>
      <point x="381" y="-169" type="line"/>
      <point x="381" y="-7" type="line"/>
      <point x="537" y="9"/>
      <point x="608" y="87"/>
      <point x="608" y="197" type="curve" smooth="yes"/>
      <point x="608" y="281"/>
      <point x="566" y="337"/>
      <point x="490" y="361" type="curve"/>
      <point x="490" y="367" type="line"/>
      <point x="556" y="395"/>
      <point x="591" y="450"/>
      <point x="591" y="522" type="curve" smooth="yes"/>
      <point x="591" y="635"/>
      <point x="506" y="715"/>
      <point x="324" y="715" type="curve" smooth="yes"/>
      <point x="206" y="715"/>
      <point x="106" y="687"/>
      <point x="42" y="639" type="curve"/>
      <point x="90" y="529" type="line"/>
      <point x="146" y="575"/>
      <point x="231" y="597"/>
      <point x="309" y="597" type="curve" smooth="yes"/>
      <point x="408" y="597"/>
      <point x="453" y="562"/>
      <point x="453" y="502" type="curve" smooth="yes"/>
      <point x="453" y="440"/>
      <point x="411" y="415"/>
      <point x="321" y="415" type="curve" smooth="yes"/>
      <point x="152" y="415" type="line"/>
      <point x="152" y="300" type="line"/>
      <point x="338" y="300" type="line" smooth="yes"/>
      <point x="430" y="300"/>
      <point x="471" y="274"/>
      <point x="471" y="210" type="curve" smooth="yes"/>
      <point x="471" y="139"/>
      <point x="420" y="108"/>
      <point x="307" y="108" type="curve" smooth="yes"/>
      <point x="215" y="108"/>
      <point x="132" y="129"/>
      <point x="75" y="176" type="curve"/>
      <point x="27" y="67" type="line"/>
      <point x="80" y="24"/>
      <point x="158" y="0"/>
      <point x="253" y="-8" type="curve"/>
    </contour>
  </outline>
</glyph>
<glyph name="Kastroke-cy" format="2">
  <advance width="808"/>
  <unicode hex="049E"/>
  <outline>
    <contour>
      <point x="162" y="0" type="line"/>
      <point x="301" y="0" type="line"/>
      <point x="301" y="296" type="line"/>
      <point x="400" y="296" type="line" smooth="yes"/>
      <point x="466" y="296"/>
      <point x="507" y="270"/>
      <point x="538" y="202" type="curve" smooth="yes"/>
      <point x="632" y="0" type="line"/>
      <point x="788" y="0" type="line"/>
      <point x="666" y="252" type="line" smooth="yes"/>
      <point x="622" y="340"/>
      <point x="563" y="386"/>
      <point x="509" y="398" type="curve"/>
      <point x="547" y="353" type="line"/>
      <point x="768" y="705" type="line"/>
      <point x="610" y="705" type="line"/>
      <point x="414" y="380" type="line"/>
      <point x="444" y="412" type="line"/>
      <point x="296" y="412" type="line"/>
      <point x="296" y="515" type="line"/>
      <point x="427" y="515" type="line"/>
      <point x="427" y="614" type="line"/>
      <point x="301" y="614" type="line"/>
      <point x="301" y="705" type="line"/>
      <point x="162" y="705" type="line"/>
      <point x="162" y="614" type="line"/>
      <point x="11" y="614" type="line"/>
      <point x="11" y="515" type="line"/>
      <point x="162" y="515" type="line"/>
    </contour>
  </outline>
</glyph>
<glyph name="Enghe-cy" format="2">
  <advance width="1016"/>
  <unicode hex="04A4"/>
  <outline>
    <contour>
      <point x="101" y="0" type="line"/>
      <point x="240" y="0" type="line"/>
      <point x="240" y="297" type="line"/>
      <point x="589" y="297" type="line"/>
      <point x="589" y="0" type="line"/>
      <point x="728" y="0" type="line"/>
      <point x="728" y="585" type="line"/>
      <point x="985" y="585" type="line"/>
      <point x="985" y="705" type="line"/>
      <point x="589" y="705" type="line"/>
      <point x="589" y="417" type="line"/>
      <point x="240" y="417" type="line"/>
      <point x="240" y="705" type="line"/>
      <point x="101" y="705" type="line"/>
    </contour>
  </outline>
</glyph>
<glyph name="haabkhasian-cy" format="2">
  <advance width="793"/>
  <unicode hex="04A9"/>
  <outline>
    <contour>
      <point x="376" y="-10" type="curve" smooth="yes"/>
      <point x="540" y="-10"/>
      <point x="699" y="67"/>
      <point x="699" y="219" type="curve" smooth="yes"/>
      <point x="699" y="320"/>
      <point x="619" y="375"/>
      <point x="512" y="375" type="curve" smooth="yes"/>
      <point x="404" y="375"/>
      <point x="328" y="316"/>
      <point x="328" y="214" type="curve" smooth="yes"/>
      <point x="328" y="63"/>
      <point x="483" y="-10"/>
      <point x="643" y="-10" type="curve" smooth="yes"/>
      <point x="701" y="-10"/>
      <point x="744" y="-5"/>
      <point x="786" y="13" type="curve"/>
      <point x="763" y="107" type="line"/>
      <point x="721" y="83"/>
      <point x="669" y="74"/>
      <point x="624" y="74" type="curve" smooth="yes"/>
      <point x="497" y="74"/>
      <point x="435" y="118"/>
      <point x="435" y="204" type="curve" smooth="yes"/>
      <point x="435" y="256"/>
      <point x="464" y="286"/>
      <point x="512" y="286" type="curve" smooth="yes"/>
      <point x="561" y="286"/>
      <point x="590" y="256"/>
      <point x="590" y="204" type="curve" smooth="yes"/>
      <point x="590" y="113"/>
      <point x="512" y="84"/>
      <point x="380" y="84" type="curve" smooth="yes"/>
      <point x="274" y="84"/>
      <point x="193" y="136"/>
      <point x="193" y="254" type="curve" smooth="yes"/>
      <point x="193" y="363"/>
      <point x="257" y="411"/>
      <point x="358" y="411" type="curve" smooth="yes"/>
      <point x="381" y="411"/>
      <point x="405" y="407"/>
      <point x="419" y="400" type="curve"/>
      <point x="443" y="498" type="line"/>
      <point x="417" y="507"/>
      <point x="376" y="513"/>
      <point x="339" y="513" type="curve" smooth="yes"/>
      <point x="166" y="513"/>
      <point x="64" y="409"/>
      <point x="64" y="250" type="curve" smooth="yes"/>
      <point x="64" y="86"/>
      <point x="185" y="-10"/>
    </contour>
  </outline>
</glyph>
<glyph name="tedescender-cy" format="2">
  <advance width="549"/>
  <unicode hex="04AD"/>
  <outline>
    <contour>
      <point x="297" y="-128" type="line"/>
      <point x="415" y="-128" type="line"/>
      <point x="415" y="99" type="line"/>
      <point x="344" y="99" type="line"/>
      <point x="344" y="389" type="line"/>
      <point x="527" y="389" type="line"/>
      <point x="527" y="503" type="line"/>
      <point x="22" y="503" type="line"/>
      <point x="22" y="389" type="line"/>
      <point x="205" y="389" type="line"/>
      <point x="205" y="0" type="line"/>
      <point x="297" y="0" type="line"/>
    </contour>
  </outline>
</glyph>
<glyph name="Tetse-cy" format="2">
  <advance width="1009"/>
  <unicode hex="04B4"/>
  <outline>
    <contour>
      <point x="839" y="-166" type="line"/>
      <point x="967" y="-166" type="line"/>
      <point x="967" y="116" type="line"/>
      <point x="862" y="116" type="line"/>
      <point x="862" y="705" type="line"/>
      <point x="723" y="705" type="line"/>
      <point x="723" y="120" type="line"/>
      <point x="379" y="120" type="line"/>
      <point x="379" y="585" type="line"/>
      <point x="553" y="585" type="line"/>
      <point x="553" y="705" type="line"/>
      <point x="31.006" y="705" type="line"/>
      <point x="31" y="585" type="line"/>
      <point x="240" y="585" type="line"/>
      <point x="240" y="0" type="line"/>
      <point x="839" y="0" type="line"/>
    </contour>
  </outline>
</glyph>
<glyph name="tetse-cy" format="2">
  <advance width="826"/>
  <unicode hex="04B5"/>
  <outline>
    <contour>
      <point x="669" y="-134" type="line"/>
      <point x="787" y="-134" type="line"/>
      <point x="787" y="113" type="line"/>
      <point x="705" y="113" type="line"/>
      <point x="705" y="503" type="line"/>
      <point x="566" y="503" type="line"/>
      <point x="566" y="114" type="line"/>
      <point x="319" y="114" type="line"/>
      <point x="319" y="389" type="line"/>
      <point x="453" y="389" type="line"/>
      <point x="453" y="503" type="line"/>
      <point x="22" y="503" type="line"/>
      <point x="22" y="389" type="line"/>
      <point x="180" y="389" type="line"/>
      <point x="180" y="0" type="line"/>
      <point x="669" y="0" type="line"/>
    </contour>
  </outline>
</glyph>
<glyph name="Cheverticalstroke-cy" format="2">
  <advance width="774"/>
  <unicode hex="04B8"/>
  <outline>
    <contour>
      <point x="534" y="0" type="line"/>
      <point x="673" y="0" type="line"/>
      <point x="673" y="705" type="line"/>
      <point x="534" y="705" type="line"/>
      <point x="534" y="395" type="line"/>
      <point x="497" y="373"/>
      <point x="447" y="365"/>
      <point x="384" y="365" type="curve"/>
      <point x="425" y="356" type="line"/>
      <point x="425" y="528" type="line"/>
      <point x="325" y="528" type="line"/>
      <point x="325" y="356" type="line"/>
      <point x="360" y="366" type="line"/>
      <point x="259" y="373"/>
      <point x="209" y="429"/>
      <point x="209" y="542" type="curve" smooth="yes"/>
      <point x="209" y="705" type="line"/>
      <point x="71" y="705" type="line"/>
      <point x="71" y="541" type="line" smooth="yes"/>
      <point x="71" y="342"/>
      <point x="182" y="251"/>
      <point x="349" y="244" type="curve"/>
      <point x="325" y="262" type="line"/>
      <point x="325" y="100" type="line"/>
      <point x="425" y="100" type="line"/>
      <point x="425" y="262" type="line"/>
      <point x="391" y="245" type="line"/>
      <point x="444" y="245"/>
      <point x="505" y="256"/>
      <point x="534" y="273" type="curve"/>
    </contour>
  </outline>
</glyph>
<glyph name="Cheabkhasian-cy" format="2">
  <advance width="1023"/>
  <unicode hex="04BC"/>
  <anchor x="694" y="0" name="ogonek"/>
  <outline>
    <contour>
      <point x="649" y="-10" type="curve" smooth="yes"/>
      <point x="748" y="-10"/>
      <point x="850" y="14"/>
      <point x="915" y="65" type="curve"/>
      <point x="869" y="176" type="line"/>
      <point x="808" y="129"/>
      <point x="730" y="111"/>
      <point x="654" y="111" type="curve" smooth="yes"/>
      <point x="499" y="111"/>
      <point x="413" y="179"/>
      <point x="399" y="312" type="curve"/>
      <point x="380" y="294" type="line"/>
      <point x="948" y="294" type="line"/>
      <point x="948" y="345" type="line" smooth="yes"/>
      <point x="948" y="565"/>
      <point x="820" y="715"/>
      <point x="607" y="715" type="curve" smooth="yes"/>
      <point x="403" y="715"/>
      <point x="268" y="582"/>
      <point x="256" y="382" type="curve"/>
      <point x="278" y="404" type="line"/>
      <point x="245" y="404" type="line" smooth="yes"/>
      <point x="186" y="404"/>
      <point x="166" y="428"/>
      <point x="166" y="486" type="curve" smooth="yes"/>
      <point x="166" y="548" type="line"/>
      <point x="31" y="548" type="line"/>
      <point x="31" y="489" type="line" smooth="yes"/>
      <point x="31" y="367"/>
      <point x="100" y="294"/>
      <point x="231" y="294" type="curve" smooth="yes"/>
      <point x="283" y="294" type="line"/>
      <point x="257" y="313" type="line"/>
      <point x="274" y="112"/>
      <point x="419" y="-10"/>
    </contour>
    <contour>
      <point x="608" y="594" type="curve" smooth="yes"/>
      <point x="738" y="594"/>
      <point x="814" y="520"/>
      <point x="814" y="352" type="curve"/>
      <point x="843" y="404" type="line"/>
      <point x="377" y="404" type="line"/>
      <point x="398" y="379" type="line"/>
      <point x="406" y="526"/>
      <point x="485" y="594"/>
    </contour>
  </outline>
</glyph>
<glyph name="cheabkhasian-cy" format="2">
  <advance width="733"/>
  <unicode hex="04BD"/>
  <anchor x="536" y="0" name="ogonek"/>
  <outline>
    <contour>
      <point x="482" y="-10" type="curve" smooth="yes"/>
      <point x="550" y="-10"/>
      <point x="628" y="5"/>
      <point x="684" y="45" type="curve"/>
      <point x="645" y="141" type="line"/>
      <point x="601" y="109"/>
      <point x="540" y="99"/>
      <point x="488" y="99" type="curve" smooth="yes"/>
      <point x="384" y="99"/>
      <point x="326" y="136"/>
      <point x="316" y="224" type="curve"/>
      <point x="300" y="208" type="line"/>
      <point x="699" y="208" type="line"/>
      <point x="699" y="250" type="line" smooth="yes"/>
      <point x="699" y="415"/>
      <point x="601" y="513"/>
      <point x="450" y="513" type="curve" smooth="yes"/>
      <point x="290" y="513"/>
      <point x="193" y="410"/>
      <point x="185" y="273" type="curve"/>
      <point x="214" y="295" type="line"/>
      <point x="184" y="295" type="line" smooth="yes"/>
      <point x="139" y="295"/>
      <point x="120" y="316"/>
      <point x="120" y="356" type="curve" smooth="yes"/>
      <point x="120" y="405" type="line"/>
      <point x="10" y="405" type="line"/>
      <point x="10" y="356" type="line" smooth="yes"/>
      <point x="10" y="268"/>
      <point x="62" y="208"/>
      <point x="169" y="208" type="curve" smooth="yes"/>
      <point x="204" y="208" type="line"/>
      <point x="184" y="236" type="line"/>
      <point x="191" y="83"/>
      <point x="294" y="-10"/>
    </contour>
    <contour>
      <point x="451" y="413" type="curve" smooth="yes"/>
      <point x="534" y="413"/>
      <point x="583" y="370"/>
      <point x="583" y="276" type="curve"/>
      <point x="598" y="295" type="line"/>
      <point x="302" y="295" type="line"/>
      <point x="314" y="270" type="line"/>
      <point x="314" y="365"/>
      <point x="371" y="413"/>
    </contour>
  </outline>
</glyph>
<glyph name="kahook-cy" format="2">
  <advance width="654"/>
  <unicode hex="04C4"/>
  <outline>
    <contour>
      <point x="381" y="-188" type="line"/>
      <point x="547" y="-150"/>
      <point x="598" y="-61"/>
      <point x="598" y="49" type="curve" smooth="yes"/>
      <point x="598" y="89" type="line" smooth="yes"/>
      <point x="598" y="228"/>
      <point x="510" y="301"/>
      <point x="355" y="301" type="curve"/>
      <point x="410" y="250" type="line"/>
      <point x="607" y="503" type="line"/>
      <point x="458" y="503" type="line"/>
      <point x="307" y="307" type="line"/>
      <point x="229" y="307" type="line"/>
      <point x="229" y="503" type="line"/>
      <point x="90" y="503" type="line"/>
      <point x="90" y="0" type="line"/>
      <point x="229" y="0" type="line"/>
      <point x="229" y="203" type="line"/>
      <point x="328" y="203" type="line" smooth="yes"/>
      <point x="418" y="203"/>
      <point x="459" y="163"/>
      <point x="459" y="83" type="curve" smooth="yes"/>
      <point x="459" y="49" type="line" smooth="yes"/>
      <point x="459" y="-31"/>
      <point x="420" y="-64"/>
      <point x="335" y="-82" type="curve"/>
    </contour>
  </outline>
</glyph>
<glyph name="Eltail-cy" format="2">
  <advance width="832"/>
  <unicode hex="04C5"/>
  <outline>
    <contour>
      <point x="591" y="-163" type="line"/>
      <point x="708" y="-163" type="line"/>
      <point x="799" y="107" type="line"/>
      <point x="705" y="107" type="line"/>
      <point x="705" y="705" type="line"/>
      <point x="180" y="705" type="line"/>
      <point x="180" y="490" type="line" smooth="yes"/>
      <point x="180" y="246"/>
      <point x="132" y="145"/>
      <point x="19" y="81" type="curve"/>
      <point x="91" y="-17" type="line"/>
      <point x="236" y="54"/>
      <point x="311" y="198"/>
      <point x="311" y="455" type="curve" smooth="yes"/>
      <point x="311" y="585" type="line"/>
      <point x="566" y="585" type="line"/>
      <point x="566" y="0" type="line"/>
      <point x="646" y="0" type="line"/>
    </contour>
  </outline>
</glyph>
<glyph name="Dzeabkhasian-cy" format="2">
  <advance width="681"/>
  <unicode hex="04E0"/>
  <outline>
    <contour>
      <point x="313" y="-10" type="curve" smooth="yes"/>
      <point x="508" y="-10"/>
      <point x="608" y="73"/>
      <point x="608" y="210" type="curve" smooth="yes"/>
      <point x="608" y="333"/>
      <point x="516" y="413"/>
      <point x="366" y="413" type="curve" smooth="yes"/>
      <point x="299" y="413" type="line"/>
      <point x="338" y="375" type="line"/>
      <point x="582" y="612" type="line"/>
      <point x="582" y="705" type="line"/>
      <point x="45" y="705" type="line"/>
      <point x="45" y="585" type="line"/>
      <point x="453" y="585" type="line"/>
      <point x="442" y="626" type="line"/>
      <point x="188" y="388" type="line"/>
      <point x="188" y="304" type="line"/>
      <point x="328" y="304" type="line" smooth="yes"/>
      <point x="418" y="304"/>
      <point x="469" y="281"/>
      <point x="469" y="208" type="curve" smooth="yes"/>
      <point x="469" y="143"/>
      <point x="418" y="111"/>
      <point x="307" y="111" type="curve" smooth="yes"/>
      <point x="215" y="111"/>
      <point x="132" y="129"/>
      <point x="75" y="176" type="curve"/>
      <point x="27" y="63" type="line"/>
      <point x="92" y="12"/>
      <point x="194" y="-10"/>
    </contour>
  </outline>
</glyph>
<glyph name="gestrokehook-cy" format="2">
  <advance width="537"/>
  <unicode hex="04FB"/>
  <outline>
    <contour>
      <point x="89" y="-187" type="line"/>
      <point x="155" y="-182" type="line" smooth="yes"/>
      <point x="257" y="-175"/>
      <point x="330" y="-109"/>
      <point x="330" y="24" type="curve" smooth="yes"/>
      <point x="330" y="51" type="line"/>
      <point x="245" y="51" type="line"/>
      <point x="245" y="177" type="line"/>
      <point x="392" y="177" type="line"/>
      <point x="392" y="277" type="line"/>
      <point x="245" y="277" type="line"/>
      <point x="245" y="389" type="line"/>
      <point x="511" y="389" type="line"/>
      <point x="511" y="503" type="line"/>
      <point x="106" y="503" type="line"/>
      <point x="106" y="277" type="line"/>
      <point x="12" y="277" type="line"/>
      <point x="12" y="177" type="line"/>
      <point x="106" y="177" type="line"/>
      <point x="106" y="0" type="line"/>
      <point x="211" y="0" type="line"/>
      <point x="211" y="-58"/>
      <point x="188" y="-79"/>
      <point x="143" y="-83" type="curve" smooth="yes"/>
      <point x="79" y="-88" type="line"/>
    </contour>
  </outline>
</glyph>
<glyph name="Hahook-cy" format="2">
  <advance width="715"/>
  <unicode hex="04FC"/>
  <outline>
    <contour>
      <point x="431" y="-187" type="line"/>
      <point x="580" y="-172"/>
      <point x="660" y="-112"/>
      <point x="660" y="-10" type="curve" smooth="yes"/>
      <point x="660" y="34"/>
      <point x="639" y="89"/>
      <point x="591" y="159" type="curve" smooth="yes"/>
      <point x="447" y="388" type="line"/>
      <point x="447" y="332" type="line"/>
      <point x="680" y="705" type="line"/>
      <point x="522" y="705" type="line"/>
      <point x="360" y="436" type="line"/>
      <point x="354" y="436" type="line"/>
      <point x="194" y="705" type="line"/>
      <point x="36" y="705" type="line"/>
      <point x="267" y="331" type="line"/>
      <point x="266" y="388" type="line"/>
      <point x="24" y="0" type="line"/>
      <point x="181" y="0" type="line"/>
      <point x="354" y="283" type="line"/>
      <point x="360" y="283" type="line"/>
      <point x="467" y="107" type="line" smooth="yes"/>
      <point x="497" y="61"/>
      <point x="513" y="28"/>
      <point x="513" y="4" type="curve" smooth="yes"/>
      <point x="513" y="-43"/>
      <point x="490" y="-61"/>
      <point x="406" y="-71" type="curve"/>
    </contour>
  </outline>
</glyph>
<glyph name="Shhadescender-cy" format="2">
  <advance width="800"/>
  <unicode hex="0526"/>
  <outline>
    <contour>
      <point x="656" y="-163" type="line"/>
      <point x="784" y="-163" type="line"/>
      <point x="784" y="107" type="line"/>
      <point x="687" y="107" type="line"/>
      <point x="687" y="162" type="line" smooth="yes"/>
      <point x="687" y="361"/>
      <point x="576" y="459"/>
      <point x="392" y="459" type="curve" smooth="yes"/>
      <point x="338" y="459"/>
      <point x="275" y="447"/>
      <point x="240" y="431" type="curve"/>
      <point x="240" y="705" type="line"/>
      <point x="101" y="705" type="line"/>
      <point x="101" y="0" type="line"/>
      <point x="240" y="0" type="line"/>
      <point x="240" y="309" type="line"/>
      <point x="279" y="328"/>
      <point x="331" y="338"/>
      <point x="377" y="338" type="curve" smooth="yes"/>
      <point x="487" y="338"/>
      <point x="548" y="283"/>
      <point x="548" y="151" type="curve" smooth="yes"/>
      <point x="548" y="0" type="line"/>
      <point x="656" y="0" type="line"/>
    </contour>
  </outline>
</glyph>
<glyph name="EnLeftHook-cy" format="2">
  <advance width="829"/>
  <unicode hex="0528"/>
  <outline>
    <contour>
      <point x="-11" y="-193" type="line"/>
      <point x="33" y="-190" type="line" smooth="yes"/>
      <point x="181" y="-180"/>
      <point x="240" y="-120"/>
      <point x="240" y="11" type="curve" smooth="yes"/>
      <point x="240" y="297" type="line"/>
      <point x="589" y="297" type="line"/>
      <point x="589" y="0" type="line"/>
      <point x="728" y="0" type="line"/>
      <point x="728" y="705" type="line"/>
      <point x="589" y="705" type="line"/>
      <point x="589" y="417" type="line"/>
      <point x="240" y="417" type="line"/>
      <point x="240" y="705" type="line"/>
      <point x="101" y="705" type="line"/>
      <point x="101" y="14" type="line" smooth="yes"/>
      <point x="101" y="-39"/>
      <point x="78" y="-67"/>
      <point x="26" y="-72" type="curve" smooth="yes"/>
      <point x="-20" y="-76" type="line"/>
    </contour>
  </outline>
</glyph>
<glyph name="Eldescender-cy" format="2">
  <advance width="856"/>
  <unicode hex="052E"/>
  <outline>
    <contour>
      <point x="674" y="-163" type="line"/>
      <point x="802" y="-163" type="line"/>
      <point x="802" y="107" type="line"/>
      <point x="705" y="107" type="line"/>
      <point x="705" y="705" type="line"/>
      <point x="180" y="705" type="line"/>
      <point x="180" y="490" type="line" smooth="yes"/>
      <point x="180" y="246"/>
      <point x="132" y="145"/>
      <point x="19" y="81" type="curve"/>
      <point x="91" y="-17" type="line"/>
      <point x="236" y="54"/>
      <point x="311" y="198"/>
      <point x="311" y="455" type="curve" smooth="yes"/>
      <point x="311" y="585" type="line"/>
      <point x="566" y="585" type="line"/>
      <point x="566" y="0" type="line"/>
      <point x="674" y="0" type="line"/>
    </contour>
  </outline>
</glyph>
<glyph name="Germandbls" format="2">
  <advance width="804"/>
  <unicode hex="1E9E"/>
  <outline>
    <contour>
      <point x="497" y="-10" type="curve" smooth="yes"/>
      <point x="643" y="-10"/>
      <point x="731" y="78"/>
      <point x="731" y="197" type="curve" smooth="yes"/>
      <point x="731" y="284"/>
      <point x="679" y="345"/>
      <point x="602" y="364" type="curve"/>
      <point x="602" y="370" type="line"/>
      <point x="654" y="398"/>
      <point x="687" y="453"/>
      <point x="687" y="524" type="curve" smooth="yes"/>
      <point x="687" y="639"/>
      <point x="582" y="715"/>
      <point x="413" y="715" type="curve" smooth="yes"/>
      <point x="199" y="715"/>
      <point x="101" y="619"/>
      <point x="101" y="447" type="curve" smooth="yes"/>
      <point x="101" y="0" type="line"/>
      <point x="240" y="0" type="line"/>
      <point x="240" y="447" type="line" smooth="yes"/>
      <point x="240" y="555"/>
      <point x="295" y="597"/>
      <point x="410" y="597" type="curve" smooth="yes"/>
      <point x="503" y="597"/>
      <point x="548" y="567"/>
      <point x="548" y="505" type="curve" smooth="yes"/>
      <point x="548" y="441"/>
      <point x="498" y="408"/>
      <point x="434" y="408" type="curve" smooth="yes"/>
      <point x="353" y="408" type="line"/>
      <point x="353" y="301" type="line"/>
      <point x="462" y="301" type="line" smooth="yes"/>
      <point x="545" y="301"/>
      <point x="592" y="274"/>
      <point x="592" y="207" type="curve" smooth="yes"/>
      <point x="592" y="140"/>
      <point x="548" y="106"/>
      <point x="475" y="106" type="curve" smooth="yes"/>
      <point x="424" y="106"/>
      <point x="394" y="116"/>
      <point x="343" y="148" type="curve"/>
      <point x="305" y="41" type="line"/>
      <point x="363" y="4"/>
      <point x="420" y="-10"/>
    </contour>
  </outline>
</glyph>
<glyph name="emdash" format="2">
  <advance width="1000"/>
  <unicode hex="2014"/>
  <outline>
    <contour>
      <point x="0" y="229" type="line"/>
      <point x="1000" y="229" type="line"/>
      <point x="1000" y="319" type="line"/>
      <point x="0" y="319" type="line"/>
    </contour>
  </outline>
</glyph>
<glyph name="quoteleft" format="2">
  <advance width="297.26012"/>
  <unicode hex="2018"/>
  <outline>
    <contour>
      <point x="65" y="390" type="line"/>
      <point x="232" y="390" type="line"/>
      <point x="232" y="541" type="line"/>
      <point x="123" y="541" type="line"/>
      <point x="151" y="519" type="line"/>
      <point x="154" y="569"/>
      <point x="176" y="626"/>
      <point x="215" y="661" type="curve"/>
      <point x="148" y="713" type="line"/>
      <point x="86" y="658"/>
      <point x="65" y="581"/>
      <point x="65" y="504" type="curve" smooth="yes"/>
    </contour>
  </outline>
</glyph>
<glyph name="quoteright" format="2">
  <advance width="297.26012"/>
  <unicode hex="2019"/>
  <outline>
    <contour>
      <point x="149" y="383" type="line"/>
      <point x="211" y="438"/>
      <point x="232" y="515"/>
      <point x="232" y="592" type="curve" smooth="yes"/>
      <point x="232" y="705" type="line"/>
      <point x="65" y="705" type="line"/>
      <point x="65" y="555" type="line"/>
      <point x="175" y="555" type="line"/>
      <point x="147" y="577" type="line"/>
      <point x="143" y="527"/>
      <point x="121" y="470"/>
      <point x="82" y="434" type="curve"/>
    </contour>
  </outline>
</glyph>
<glyph name="quotesinglbase" format="2">
  <advance width="297.26012"/>
  <unicode hex="201A"/>
  <outline>
    <contour>
      <point x="149" y="-172" type="line"/>
      <point x="211" y="-117"/>
      <point x="232" y="-40"/>
      <point x="232" y="37" type="curve" smooth="yes"/>
      <point x="232" y="150" type="line"/>
      <point x="65" y="150" type="line"/>
      <point x="65" y="0" type="line"/>
      <point x="175" y="0" type="line"/>
      <point x="147" y="22" type="line"/>
      <point x="143" y="-28"/>
      <point x="121" y="-85"/>
      <point x="82" y="-120" type="curve"/>
    </contour>
  </outline>
</glyph>
<glyph name="daggerdbl" format="2">
  <advance width="355"/>
  <unicode hex="2021"/>
  <outline>
    <contour>
      <point x="129" y="156" type="line"/>
      <point x="226" y="156" type="line"/>
      <point x="226" y="271" type="line"/>
      <point x="336" y="271" type="line"/>
      <point x="336" y="351" type="line"/>
      <point x="226" y="351" type="line"/>
      <point x="226" y="511" type="line"/>
      <point x="336" y="511" type="line"/>
      <point x="336" y="592" type="line"/>
      <point x="226" y="592" type="line"/>
      <point x="226" y="705" type="line"/>
      <point x="129" y="705" type="line"/>
      <point x="129" y="592" type="line"/>
      <point x="19" y="592" type="line"/>
      <point x="19" y="511" type="line"/>
      <point x="129" y="511" type="line"/>
      <point x="129" y="351" type="line"/>
      <point x="19" y="351" type="line"/>
      <point x="19" y="271" type="line"/>
      <point x="129" y="271" type="line"/>
    </contour>
  </outline>
</glyph>
<glyph name="guilsinglleft" format="2">
  <advance width="300.74566"/>
  <unicode hex="2039"/>
  <outline>
    <contour>
      <point x="171" y="67" type="line"/>
      <point x="261" y="106" type="line"/>
      <point x="170" y="271" type="line"/>
      <point x="261" y="434" type="line"/>
      <point x="170" y="475" type="line"/>
      <point x="54" y="304" type="line"/>
      <point x="54" y="238" type="line"/>
    </contour>
  </outline>
</glyph>
<glyph name="colonsign" format="2">
  <advance width="600"/>
  <unicode hex="20A1"/>
  <outline>
    <contour>
      <point x="65" y="-115" type="line"/>
      <point x="154" y="-115" type="line"/>
      <point x="192" y="96" type="line"/>
      <point x="173" y="79" type="line"/>
      <point x="198" y="58"/>
      <point x="250" y="33"/>
      <point x="288" y="24" type="curve"/>
      <point x="288" y="66" type="line"/>
      <point x="258" y="-115" type="line"/>
      <point x="348" y="-115" type="line"/>
      <point x="372" y="34" type="line"/>
      <point x="312" y="19" type="line"/>
      <point x="326" y="17"/>
      <point x="340" y="16"/>
      <point x="359" y="16" type="curve" smooth="yes"/>
      <point x="442" y="16"/>
      <point x="518" y="42"/>
      <point x="569" y="92" type="curve"/>
      <point x="524" y="194" type="line"/>
      <point x="478" y="149"/>
      <point x="424" y="135"/>
      <point x="366" y="135" type="curve" smooth="yes"/>
      <point x="257" y="135"/>
      <point x="188" y="215"/>
      <point x="188" y="353" type="curve" smooth="yes"/>
      <point x="188" y="482"/>
      <point x="250" y="570"/>
      <point x="366" y="570" type="curve" smooth="yes"/>
      <point x="424" y="570"/>
      <point x="478" y="553"/>
      <point x="524" y="511" type="curve"/>
      <point x="568" y="613" type="line"/>
      <point x="547" y="633"/>
      <point x="518" y="650"/>
      <point x="497" y="658" type="curve"/>
      <point x="514" y="627" type="line"/>
      <point x="549" y="820" type="line"/>
      <point x="460" y="820" type="line"/>
      <point x="432" y="646" type="line"/>
      <point x="452" y="667" type="line"/>
      <point x="420" y="677"/>
      <point x="371" y="682"/>
      <point x="326" y="682" type="curve"/>
      <point x="329" y="655" type="line"/>
      <point x="355" y="820" type="line"/>
      <point x="266" y="820" type="line"/>
      <point x="232" y="625" type="line"/>
      <point x="288" y="679" type="line"/>
      <point x="140" y="652"/>
      <point x="48" y="527"/>
      <point x="48" y="353" type="curve" smooth="yes"/>
      <point x="48" y="261"/>
      <point x="79" y="175"/>
      <point x="128" y="116" type="curve"/>
      <point x="117" y="153" type="line"/>
    </contour>
  </outline>
</glyph>
<glyph name="franc" format="2">
  <advance width="600"/>
  <unicode hex="20A3"/>
  <outline>
    <contour>
      <point x="135" y="0" type="line"/>
      <point x="263" y="0" type="line"/>
      <point x="263" y="131" type="line"/>
      <point x="442" y="131" type="line"/>
      <point x="442" y="213" type="line"/>
      <point x="263" y="213" type="line"/>
      <point x="263" y="334" type="line"/>
      <point x="535" y="334" type="line"/>
      <point x="535" y="436" type="line"/>
      <point x="263" y="436" type="line"/>
      <point x="263" y="604" type="line"/>
      <point x="557" y="604" type="line"/>
      <point x="557" y="705" type="line"/>
      <point x="135" y="705" type="line"/>
      <point x="135" y="213" type="line"/>
      <point x="27" y="213" type="line"/>
      <point x="27" y="131" type="line"/>
      <point x="135" y="131" type="line"/>
    </contour>
  </outline>
</glyph>
<glyph name="naira" format="2">
  <advance width="600"/>
  <unicode hex="20A6"/>
  <outline>
    <contour>
      <point x="122" y="0" type="line"/>
      <point x="224" y="0" type="line"/>
      <point x="224" y="491" type="line"/>
      <point x="228" y="491" type="line"/>
      <point x="355" y="0" type="line"/>
      <point x="478" y="0" type="line"/>
      <point x="478" y="225" type="line"/>
      <point x="581" y="225" type="line"/>
      <point x="581" y="305" type="line"/>
      <point x="462" y="305" type="line"/>
      <point x="462" y="402" type="line"/>
      <point x="581" y="402" type="line"/>
      <point x="581" y="482" type="line"/>
      <point x="478" y="482" type="line"/>
      <point x="478" y="705" type="line"/>
      <point x="376" y="705" type="line"/>
      <point x="376" y="212" type="line"/>
      <point x="372" y="212" type="line"/>
      <point x="245" y="705" type="line"/>
      <point x="122" y="705" type="line"/>
      <point x="122" y="482" type="line"/>
      <point x="19" y="482" type="line"/>
      <point x="19" y="402" type="line"/>
      <point x="138" y="402" type="line"/>
      <point x="138" y="305" type="line"/>
      <point x="19" y="305" type="line"/>
      <point x="19" y="225" type="line"/>
      <point x="122" y="225" type="line"/>
    </contour>
  </outline>
</glyph>
<glyph name="peseta" format="2">
  <advance width="600"/>
  <unicode hex="20A7"/>
  <outline>
    <contour>
      <point x="131" y="0" type="line"/>
      <point x="246" y="0" type="line"/>
      <point x="246" y="232" type="line"/>
      <point x="280" y="232" type="line" smooth="yes"/>
      <point x="396" y="232"/>
      <point x="467" y="318"/>
      <point x="473" y="454" type="curve"/>
      <point x="448" y="421" type="line"/>
      <point x="586" y="421" type="line"/>
      <point x="586" y="517" type="line"/>
      <point x="448" y="517" type="line"/>
      <point x="474" y="484" type="line"/>
      <point x="467" y="622"/>
      <point x="393" y="705"/>
      <point x="265" y="705" type="curve" smooth="yes"/>
      <point x="131" y="705" type="line"/>
      <point x="131" y="517" type="line"/>
      <point x="14" y="517" type="line"/>
      <point x="14" y="421" type="line"/>
      <point x="131" y="421" type="line"/>
    </contour>
    <contour>
      <point x="229" y="325" type="line"/>
      <point x="229" y="611" type="line"/>
      <point x="272" y="611" type="line" smooth="yes"/>
      <point x="328" y="611"/>
      <point x="375" y="579"/>
      <point x="375" y="468" type="curve" smooth="yes"/>
      <point x="375" y="365"/>
      <point x="335" y="325"/>
      <point x="272" y="325" type="curve" smooth="yes"/>
    </contour>
  </outline>
</glyph>
<glyph name="won" format="2">
  <advance width="600"/>
  <unicode hex="20A9"/>
  <outline>
    <contour>
      <point x="132" y="0" type="line"/>
      <point x="236" y="0" type="line"/>
      <point x="298" y="385" type="line"/>
      <point x="302" y="385" type="line"/>
      <point x="365" y="0" type="line"/>
      <point x="469" y="0" type="line"/>
      <point x="483" y="233" type="line"/>
      <point x="586" y="233" type="line"/>
      <point x="586" y="309" type="line"/>
      <point x="477" y="309" type="line"/>
      <point x="483" y="397" type="line"/>
      <point x="586" y="397" type="line"/>
      <point x="586" y="474" type="line"/>
      <point x="497" y="474" type="line"/>
      <point x="516" y="705" type="line"/>
      <point x="415" y="705" type="line"/>
      <point x="406" y="102" type="line"/>
      <point x="402" y="102" type="line"/>
      <point x="333" y="498" type="line"/>
      <point x="269" y="498" type="line"/>
      <point x="199" y="102" type="line"/>
      <point x="195" y="102" type="line"/>
      <point x="186" y="705" type="line"/>
      <point x="84" y="705" type="line"/>
      <point x="103" y="474" type="line"/>
      <point x="14" y="474" type="line"/>
      <point x="14" y="397" type="line"/>
      <point x="118" y="397" type="line"/>
      <point x="123" y="309" type="line"/>
      <point x="14" y="309" type="line"/>
      <point x="14" y="232" type="line"/>
      <point x="118" y="232" type="line"/>
    </contour>
  </outline>
</glyph>
<glyph name="dong" format="2">
  <advance width="600"/>
  <unicode hex="20AB"/>
  <outline>
    <contour>
      <point x="235" y="-10" type="curve" smooth="yes"/>
      <point x="301" y="-10"/>
      <point x="352" y="25"/>
      <point x="381" y="72" type="curve"/>
      <point x="387" y="72" type="line"/>
      <point x="387" y="0" type="line"/>
      <point x="496" y="0" type="line"/>
      <point x="496" y="531" type="line"/>
      <point x="591" y="531" type="line"/>
      <point x="591" y="608" type="line"/>
      <point x="496" y="608" type="line"/>
      <point x="496" y="705" type="line"/>
      <point x="385" y="705" type="line"/>
      <point x="385" y="608" type="line"/>
      <point x="223" y="608" type="line"/>
      <point x="223" y="531" type="line"/>
      <point x="380" y="531" type="line"/>
      <point x="380" y="377" type="line"/>
      <point x="374" y="377" type="line"/>
      <point x="345" y="429"/>
      <point x="295" y="455"/>
      <point x="235" y="455" type="curve" smooth="yes"/>
      <point x="104" y="455"/>
      <point x="32" y="364"/>
      <point x="32" y="225" type="curve" smooth="yes"/>
      <point x="32" y="83"/>
      <point x="104" y="-10"/>
    </contour>
    <contour>
      <point x="53" y="-154" type="line"/>
      <point x="506" y="-154" type="line"/>
      <point x="506" y="-74" type="line"/>
      <point x="53" y="-74" type="line"/>
    </contour>
    <contour>
      <point x="269" y="79" type="curve" smooth="yes"/>
      <point x="190" y="79"/>
      <point x="146" y="134"/>
      <point x="146" y="220" type="curve" smooth="yes"/>
      <point x="146" y="305"/>
      <point x="191" y="361"/>
      <point x="270" y="361" type="curve" smooth="yes"/>
      <point x="342" y="361"/>
      <point x="392" y="305"/>
      <point x="392" y="220" type="curve" smooth="yes"/>
      <point x="392" y="134"/>
      <point x="342" y="79"/>
    </contour>
  </outline>
</glyph>
<glyph name="euro" format="2">
  <advance width="600"/>
  <unicode hex="20AC"/>
  <outline>
    <contour>
      <point x="390" y="-10" type="curve" smooth="yes"/>
      <point x="469" y="-10"/>
      <point x="535" y="11"/>
      <point x="582" y="58" type="curve"/>
      <point x="545" y="151" type="line"/>
      <point x="505" y="111"/>
      <point x="458" y="94"/>
      <point x="400" y="94" type="curve" smooth="yes"/>
      <point x="314" y="94"/>
      <point x="261" y="150"/>
      <point x="246" y="252" type="curve"/>
      <point x="230" y="232" type="line"/>
      <point x="460" y="232" type="line"/>
      <point x="460" y="309" type="line"/>
      <point x="210" y="309" type="line"/>
      <point x="243" y="289" type="line"/>
      <point x="240" y="326"/>
      <point x="240" y="385"/>
      <point x="243" y="415" type="curve"/>
      <point x="209" y="397" type="line"/>
      <point x="460" y="397" type="line"/>
      <point x="460" y="474" type="line"/>
      <point x="226" y="474" type="line"/>
      <point x="246" y="453" type="line"/>
      <point x="257" y="554"/>
      <point x="314" y="611"/>
      <point x="400" y="611" type="curve" smooth="yes"/>
      <point x="456" y="611"/>
      <point x="498" y="595"/>
      <point x="542" y="558" type="curve"/>
      <point x="580" y="649" type="line"/>
      <point x="530" y="696"/>
      <point x="469" y="715"/>
      <point x="390" y="715" type="curve" smooth="yes"/>
      <point x="242" y="715"/>
      <point x="136" y="618"/>
      <point x="111" y="454" type="curve"/>
      <point x="135" y="474" type="line"/>
      <point x="19" y="474" type="line"/>
      <point x="19" y="397" type="line"/>
      <point x="132" y="397" type="line"/>
      <point x="110" y="417" type="line"/>
      <point x="106" y="382"/>
      <point x="106" y="329"/>
      <point x="109" y="283" type="curve"/>
      <point x="131" y="309" type="line"/>
      <point x="19" y="309" type="line"/>
      <point x="19" y="232" type="line"/>
      <point x="129" y="232" type="line"/>
      <point x="110" y="256" type="line"/>
      <point x="138" y="82"/>
      <point x="244" y="-10"/>
    </contour>
  </outline>
</glyph>
<glyph name="peso" format="2">
  <advance width="600"/>
  <unicode hex="20B1"/>
  <outline>
    <contour>
      <point x="128" y="0" type="line"/>
      <point x="243" y="0" type="line"/>
      <point x="243" y="232" type="line"/>
      <point x="278" y="232" type="line" smooth="yes"/>
      <point x="361" y="232"/>
      <point x="442" y="279"/>
      <point x="470" y="359" type="curve"/>
      <point x="440" y="343" type="line"/>
      <point x="586" y="343" type="line"/>
      <point x="586" y="420.006" type="line"/>
      <point x="465" y="420" type="line"/>
      <point x="476" y="415" type="line"/>
      <point x="483" y="443"/>
      <point x="483" y="500"/>
      <point x="477" y="527" type="curve"/>
      <point x="465" y="518" type="line"/>
      <point x="586" y="518" type="line"/>
      <point x="586" y="595" type="line"/>
      <point x="439" y="595" type="line"/>
      <point x="472" y="583" type="line"/>
      <point x="444" y="663"/>
      <point x="365" y="705"/>
      <point x="273" y="705" type="curve" smooth="yes"/>
      <point x="128" y="705" type="line"/>
      <point x="128" y="589" type="line"/>
      <point x="14" y="589" type="line"/>
      <point x="14" y="513" type="line"/>
      <point x="128" y="513" type="line"/>
      <point x="128" y="415" type="line"/>
      <point x="14" y="415" type="line"/>
      <point x="14" y="338" type="line"/>
      <point x="128" y="338" type="line"/>
    </contour>
    <contour>
      <point x="229" y="325" type="line"/>
      <point x="229" y="611" type="line"/>
      <point x="272" y="611" type="line" smooth="yes"/>
      <point x="333" y="611"/>
      <point x="380" y="579"/>
      <point x="380" y="468" type="curve" smooth="yes"/>
      <point x="380" y="364"/>
      <point x="341" y="325"/>
      <point x="272" y="325" type="curve" smooth="yes"/>
    </contour>
  </outline>
</glyph>
<glyph name="hryvnia" format="2">
  <advance width="600"/>
  <unicode hex="20B4"/>
  <outline>
    <contour>
      <point x="310" y="-10" type="curve" smooth="yes"/>
      <point x="398" y="-10"/>
      <point x="459" y="6"/>
      <point x="528" y="41" type="curve"/>
      <point x="504" y="138" type="line"/>
      <point x="456" y="108"/>
      <point x="395" y="94"/>
      <point x="332" y="94" type="curve" smooth="yes"/>
      <point x="260" y="94"/>
      <point x="211" y="114"/>
      <point x="211" y="164" type="curve" smooth="yes"/>
      <point x="211" y="196"/>
      <point x="232" y="220"/>
      <point x="260" y="248" type="curve"/>
      <point x="218" y="227" type="line"/>
      <point x="561" y="227" type="line"/>
      <point x="561" y="304" type="line"/>
      <point x="278" y="304" type="line"/>
      <point x="291" y="285" type="line"/>
      <point x="406" y="415" type="line"/>
      <point x="371" y="402" type="line"/>
      <point x="561" y="402" type="line"/>
      <point x="561" y="479" type="line"/>
      <point x="449" y="479" type="line"/>
      <point x="460" y="469" type="line"/>
      <point x="494" y="503"/>
      <point x="504" y="538"/>
      <point x="504" y="581" type="curve" smooth="yes"/>
      <point x="504" y="660"/>
      <point x="436" y="715"/>
      <point x="309" y="715" type="curve" smooth="yes"/>
      <point x="229" y="715"/>
      <point x="168" y="702"/>
      <point x="106" y="668" type="curve"/>
      <point x="132" y="573" type="line"/>
      <point x="190" y="603"/>
      <point x="225" y="613"/>
      <point x="282" y="613" type="curve" smooth="yes"/>
      <point x="345" y="613"/>
      <point x="386" y="594"/>
      <point x="386" y="552" type="curve" smooth="yes"/>
      <point x="386" y="518"/>
      <point x="375" y="498"/>
      <point x="339" y="464" type="curve"/>
      <point x="369" y="479" type="line"/>
      <point x="37" y="479" type="line"/>
      <point x="37" y="402" type="line"/>
      <point x="314" y="402" type="line"/>
      <point x="307" y="422" type="line"/>
      <point x="187" y="288" type="line"/>
      <point x="219" y="304" type="line"/>
      <point x="37" y="304" type="line"/>
      <point x="37" y="227" type="line"/>
      <point x="152" y="227" type="line"/>
      <point x="140" y="236" type="line"/>
      <point x="117" y="213"/>
      <point x="99" y="176"/>
      <point x="99" y="136" type="curve" smooth="yes"/>
      <point x="99" y="43"/>
      <point x="181" y="-10"/>
    </contour>
  </outline>
</glyph>
<glyph name="ruble" format="2">
  <advance width="600"/>
  <unicode hex="20BD"/>
  <outline>
    <contour>
      <point x="128" y="0" type="line"/>
      <point x="248" y="0" type="line"/>
      <point x="248" y="128" type="line"/>
      <point x="432" y="128" type="line"/>
      <point x="432" y="205" type="line"/>
      <point x="248" y="205" type="line"/>
      <point x="248" y="299" type="line"/>
      <point x="349" y="299" type="line" smooth="yes"/>
      <point x="496" y="299"/>
      <point x="583" y="377"/>
      <point x="583" y="502" type="curve" smooth="yes"/>
      <point x="583" y="622"/>
      <point x="496" y="705"/>
      <point x="344" y="705" type="curve" smooth="yes"/>
      <point x="128" y="705" type="line"/>
      <point x="128" y="381" type="line"/>
      <point x="14" y="381" type="line"/>
      <point x="14" y="299" type="line"/>
      <point x="128" y="299" type="line"/>
      <point x="128" y="205" type="line"/>
      <point x="14" y="205" type="line"/>
      <point x="14" y="128" type="line"/>
      <point x="128" y="128" type="line"/>
    </contour>
    <contour>
      <point x="248" y="381" type="line"/>
      <point x="248" y="605" type="line"/>
      <point x="340" y="605" type="line" smooth="yes"/>
      <point x="426" y="605"/>
      <point x="469" y="568"/>
      <point x="469" y="493" type="curve" smooth="yes"/>
      <point x="469" y="417"/>
      <point x="426" y="381"/>
      <point x="341" y="381" type="curve" smooth="yes"/>
    </contour>
  </outline>
</glyph>
<glyph name="numero" format="2">
  <advance width="1160"/>
  <unicode hex="2116"/>
  <outline>
    <contour>
      <point x="101" y="0" type="line"/>
      <point x="236" y="0" type="line"/>
      <point x="236" y="487" type="line"/>
      <point x="242" y="487" type="line"/>
      <point x="595" y="0" type="line"/>
      <point x="728" y="0" type="line"/>
      <point x="728" y="705" type="line"/>
      <point x="593" y="705" type="line"/>
      <point x="593" y="210" type="line"/>
      <point x="587" y="210" type="line"/>
      <point x="225" y="705" type="line"/>
      <point x="101" y="705" type="line"/>
    </contour>
    <contour>
      <point x="813" y="208" type="line"/>
      <point x="1123" y="208" type="line"/>
      <point x="1123" y="293" type="line"/>
      <point x="813" y="293" type="line"/>
    </contour>
    <contour>
      <point x="968" y="374" type="curve" smooth="yes"/>
      <point x="1066" y="374"/>
      <point x="1133" y="441"/>
      <point x="1133" y="545" type="curve" smooth="yes"/>
      <point x="1133" y="649"/>
      <point x="1066" y="715"/>
      <point x="968" y="715" type="curve" smooth="yes"/>
      <point x="870" y="715"/>
      <point x="803" y="649"/>
      <point x="803" y="545" type="curve" smooth="yes"/>
      <point x="803" y="441"/>
      <point x="870" y="374"/>
    </contour>
    <contour>
      <point x="968" y="455" type="curve" smooth="yes"/>
      <point x="923" y="455"/>
      <point x="893" y="489"/>
      <point x="893" y="545" type="curve" smooth="yes"/>
      <point x="893" y="601"/>
      <point x="923" y="634"/>
      <point x="968" y="634" type="curve" smooth="yes"/>
      <point x="1013" y="634"/>
      <point x="1043" y="601"/>
      <point x="1043" y="545" type="curve" smooth="yes"/>
      <point x="1043" y="489"/>
      <point x="1013" y="455"/>
    </contour>
  </outline>
</glyph>
<glyph name="radical" format="2">
  <advance width="600"/>
  <unicode hex="221A"/>
  <outline>
    <contour>
      <point x="223" y="-180" type="line"/>
      <point x="352" y="-180" type="line"/>
      <point x="588" y="758" type="line"/>
      <point x="483" y="758" type="line"/>
      <point x="289" y="-45" type="line"/>
      <point x="283" y="-45" type="line"/>
      <point x="175" y="332" type="line"/>
      <point x="1" y="332" type="line"/>
      <point x="1" y="239" type="line"/>
      <point x="142" y="239" type="line"/>
      <point x="87" y="277" type="line"/>
    </contour>
  </outline>
</glyph>
<glyph name="infinity" format="2">
  <advance width="600"/>
  <unicode hex="221E"/>
  <outline>
    <contour>
      <point x="178" y="122" type="curve" smooth="yes"/>
      <point x="220" y="122"/>
      <point x="267" y="143"/>
      <point x="300" y="200" type="curve"/>
      <point x="333" y="143"/>
      <point x="381" y="122"/>
      <point x="422" y="122" type="curve" smooth="yes"/>
      <point x="511" y="122"/>
      <point x="566" y="185"/>
      <point x="566" y="284" type="curve" smooth="yes"/>
      <point x="566" y="381"/>
      <point x="512" y="446"/>
      <point x="422" y="446" type="curve" smooth="yes"/>
      <point x="381" y="446"/>
      <point x="333" y="425"/>
      <point x="300" y="368" type="curve"/>
      <point x="268" y="425"/>
      <point x="220" y="446"/>
      <point x="178" y="446" type="curve" smooth="yes"/>
      <point x="88" y="446"/>
      <point x="34" y="381"/>
      <point x="34" y="284" type="curve" smooth="yes"/>
      <point x="34" y="185"/>
      <point x="89" y="122"/>
    </contour>
    <contour>
      <point x="183" y="200" type="curve" smooth="yes"/>
      <point x="140" y="200"/>
      <point x="116" y="237"/>
      <point x="116" y="284" type="curve" smooth="yes"/>
      <point x="116" y="331"/>
      <point x="140" y="368"/>
      <point x="183" y="368" type="curve" smooth="yes"/>
      <point x="215" y="368"/>
      <point x="249" y="349"/>
      <point x="270" y="285" type="curve"/>
      <point x="249" y="220"/>
      <point x="214" y="200"/>
    </contour>
    <contour>
      <point x="417" y="200" type="curve" smooth="yes"/>
      <point x="386" y="200"/>
      <point x="351" y="220"/>
      <point x="331" y="284" type="curve"/>
      <point x="351" y="348"/>
      <point x="386" y="368"/>
      <point x="417" y="368" type="curve" smooth="yes"/>
      <point x="460" y="368"/>
      <point x="484" y="331"/>
      <point x="484" y="284" type="curve" smooth="yes"/>
      <point x="484" y="237"/>
      <point x="460" y="200"/>
    </contour>
  </outline>
</glyph>
<glyph name="greaterequal" format="2">
  <advance width="600"/>
  <unicode hex="2265"/>
  <outline>
    <contour>
      <point x="56" y="130" type="line"/>
      <point x="544" y="285" type="line"/>
      <point x="544" y="391" type="line"/>
      <point x="56" y="546" type="line"/>
      <point x="56" y="450" type="line"/>
      <point x="411" y="341" type="line"/>
      <point x="411" y="335" type="line"/>
      <point x="56" y="225" type="line"/>
    </contour>
    <contour>
      <point x="56" y="0" type="line"/>
      <point x="544" y="0" type="line"/>
      <point x="544" y="91" type="line"/>
      <point x="56" y="91" type="line"/>
    </contour>
  </outline>
</glyph>
<glyph name="lozenge" format="2">
  <advance width="600"/>
  <unicode hex="25CA"/>
  <outline>
    <contour>
      <point x="251" y="-200" type="line"/>
      <point x="349" y="-200" type="line"/>
      <point x="554" y="279" type="line"/>
      <point x="349" y="758" type="line"/>
      <point x="251" y="758" type="line"/>
      <point x="45" y="279" type="line"/>
    </contour>
    <contour>
      <point x="300" y="-83" type="line"/>
      <point x="146" y="279" type="line"/>
      <point x="300" y="641" type="line"/>
      <point x="454" y="279" type="line"/>
    </contour>
  </outline>
</glyph>
<glyph name="fi" format="2">
  <advance width="689"/>
  <unicode hex="FB01"/>
  <anchor x="150.415" y="0" name="bottom"/>
  <anchor x="366" y="0" name="caret_1"/>
  <anchor x="557.993" y="0" name="ogonek"/>
  <anchor x="258.132" y="705" name="top"/>
  <outline>
    <contour>
      <point x="118" y="0" type="line"/>
      <point x="257" y="0" type="line"/>
      <point x="257" y="399" type="line"/>
      <point x="475" y="399" type="line"/>
      <point x="475" y="0" type="line"/>
      <point x="614" y="0" type="line"/>
      <point x="614" y="503" type="line"/>
      <point x="226" y="503" type="line"/>
      <point x="256" y="486" type="line"/>
      <point x="256" y="515" type="line" smooth="yes"/>
      <point x="256" y="574"/>
      <point x="291" y="596"/>
      <point x="355" y="598" type="curve" smooth="yes"/>
      <point x="409" y="600" type="line"/>
      <point x="400" y="714" type="line"/>
      <point x="354" y="711" type="line" smooth="yes"/>
      <point x="201" y="703"/>
      <point x="118" y="632"/>
      <point x="118" y="498" type="curve" smooth="yes"/>
      <point x="118" y="474" type="line"/>
      <point x="149" y="503" type="line"/>
      <point x="18" y="503" type="line"/>
      <point x="18" y="399" type="line"/>
      <point x="118" y="399" type="line"/>
    </contour>
    <contour>
      <point x="472" y="606" type="line"/>
      <point x="614" y="606" type="line"/>
      <point x="614" y="733" type="line"/>
      <point x="472" y="733" type="line"/>
    </contour>
  </outline>
</glyph>
<glyph name="__descender-cy.case.mirror" format="2">
  <advance width="16.09249"/>
  <anchor x="8" y="0" name="_bottomright"/>
  <outline>
    <contour>
      <point x="27" y="-163" type="line"/>
      <point x="27" y="0" type="line"/>
      <point x="85" y="0" type="line"/>
      <point x="85" y="107" type="line"/>
      <point x="-95" y="107" type="line"/>
      <point x="-95" y="-163" type="line"/>
    </contour>
  </outline>
</glyph>
<glyph name="__strokehook-cy" format="2">
  <advance width="592.21387"/>
  <anchor x="102" y="0" name="_bottomright"/>
  <outline>
    <contour>
      <point x="78" y="-185" type="line"/>
      <point x="141" y="-180" type="line" smooth="yes"/>
      <point x="271" y="-171"/>
      <point x="329" y="-108"/>
      <point x="329" y="23" type="curve" smooth="yes"/>
      <point x="329" y="107" type="line"/>
      <point x="102" y="107" type="line"/>
      <point x="102" y="0" type="line"/>
      <point x="206" y="0" type="line"/>
      <point x="206" y="-57"/>
      <point x="179" y="-82"/>
      <point x="121" y="-88" type="curve" smooth="yes"/>
      <point x="69" y="-93" type="line"/>
    </contour>
  </outline>
</glyph>
<glyph name="__tail-cy" format="2">
  <advance width="26.06358"/>
  <anchor x="0" y="0" name="_bottomright"/>
  <outline>
    <contour>
      <point x="19" y="-128" type="line"/>
      <point x="133" y="-128" type="line"/>
      <point x="211" y="97" type="line"/>
      <point x="0" y="97" type="line"/>
      <point x="0" y="0" type="line"/>
      <point x="63.006" y="0" type="line"/>
    </contour>
  </outline>
</glyph>
<glyph name="acutecomb_dotaccentcomb" format="2">
  <anchor x="0" y="484" name="_top"/>
  <outline>
    <contour>
      <point x="-55" y="562" type="line"/>
      <point x="49" y="562" type="line"/>
      <point x="203" y="770" type="line"/>
      <point x="53" y="770" type="line"/>
    </contour>
    <contour>
      <point x="-143" y="759" type="line"/>
      <point x="-7" y="759" type="line"/>
      <point x="-7" y="860" type="line"/>
      <point x="-143" y="860" type="line"/>
    </contour>
  </outline>
</glyph>
<glyph name="brevecomb-cy.case" format="2">
  <anchor x="0" y="705" name="_top"/>
  <outline>
    <contour>
      <point x="-1" y="763" type="curve" smooth="yes"/>
      <point x="105" y="763"/>
      <point x="181" y="821"/>
      <point x="200" y="931" type="curve"/>
      <point x="113" y="945" type="line"/>
      <point x="94" y="888"/>
      <point x="62" y="862"/>
      <point x="-2" y="862" type="curve" smooth="yes"/>
      <point x="-64" y="862"/>
      <point x="-97" y="889"/>
      <point x="-112" y="946" type="curve"/>
      <point x="-200" y="931" type="line"/>
      <point x="-185" y="824"/>
      <point x="-108" y="763"/>
    </contour>
  </outline>
</glyph>
<glyph name="brevecomb_gravecomb.case" format="2">
  <anchor x="0" y="705" name="_top"/>
  <outline>
    <contour>
      <point x="0" y="766" type="curve" smooth="yes"/>
      <point x="115" y="766"/>
      <point x="184" y="831"/>
      <point x="187" y="928" type="curve"/>
      <point x="103" y="935" type="line"/>
      <point x="95" y="880"/>
      <point x="59" y="852"/>
      <point x="0" y="852" type="curve" smooth="yes"/>
      <point x="-58" y="852"/>
      <point x="-96" y="881"/>
      <point x="-103" y="935" type="curve"/>
      <point x="-186" y="928" type="line"/>
      <point x="-184" y="831"/>
      <point x="-115" y="766"/>
    </contour>
    <contour>
      <point x="-42" y="919" type="line"/>
      <point x="56" y="919" type="line"/>
      <point x="-20" y="1057" type="line"/>
      <point x="-165" y="1057" type="line"/>
    </contour>
  </outline>
</glyph>
<glyph name="brevecomb_hookabovecomb.case" format="2">
  <anchor x="0" y="705" name="_top"/>
  <outline>
    <contour>
      <point x="0" y="766" type="curve" smooth="yes"/>
      <point x="115" y="766"/>
      <point x="184" y="831"/>
      <point x="187" y="928" type="curve"/>
      <point x="103" y="935" type="line"/>
      <point x="95" y="880"/>
      <point x="59" y="852"/>
      <point x="0" y="852" type="curve" smooth="yes"/>
      <point x="-58" y="852"/>
      <point x="-96" y="881"/>
      <point x="-103" y="935" type="curve"/>
      <point x="-186" y="928" type="line"/>
      <point x="-184" y="831"/>
      <point x="-115" y="766"/>
    </contour>
    <contour>
      <point x="-42" y="914" type="curve"/>
      <point x="45" y="914" type="line"/>
      <point x="45" y="963"/>
      <point x="114" y="964"/>
      <point x="114" y="1018" type="curve" smooth="yes"/>
      <point x="114" y="1052"/>
      <point x="74" y="1075"/>
      <point x="5" y="1075" type="curve" smooth="yes"/>
      <point x="-52" y="1075"/>
      <point x="-85" y="1067"/>
      <point x="-116" y="1053" type="curve"/>
      <point x="-96" y="993" type="line"/>
      <point x="-74" y="1002"/>
      <point x="-54" y="1007"/>
      <point x="-36" y="1007" type="curve" smooth="yes"/>
      <point x="-14" y="1007"/>
      <point x="0" y="1000"/>
      <point x="0" y="988" type="curve" smooth="yes"/>
      <point x="0" y="962"/>
      <point x="-42" y="961"/>
    </contour>
  </outline>
</glyph>
<glyph name="brevecomb_hookabovecomb" format="2">
  <anchor x="0" y="484" name="_top"/>
  <outline>
    <contour>
      <point x="0" y="561" type="curve" smooth="yes"/>
      <point x="115" y="561"/>
      <point x="184" y="626"/>
      <point x="187" y="724" type="curve"/>
      <point x="103" y="731" type="line"/>
      <point x="95" y="675"/>
      <point x="59" y="647"/>
      <point x="0" y="647" type="curve" smooth="yes"/>
      <point x="-58" y="647"/>
      <point x="-96" y="676"/>
      <point x="-103" y="731" type="curve"/>
      <point x="-186" y="724" type="line"/>
      <point x="-184" y="626"/>
      <point x="-115" y="561"/>
    </contour>
    <contour>
      <point x="-48" y="714" type="curve"/>
      <point x="45" y="714" type="line"/>
      <point x="45" y="763"/>
      <point x="114" y="777"/>
      <point x="114" y="831" type="curve" smooth="yes"/>
      <point x="114" y="865"/>
      <point x="74" y="887"/>
      <point x="5" y="887" type="curve" smooth="yes"/>
      <point x="-52" y="887"/>
      <point x="-85" y="880"/>
      <point x="-116" y="866" type="curve"/>
      <point x="-96" y="804" type="line"/>
      <point x="-74" y="814"/>
      <point x="-54" y="817"/>
      <point x="-36" y="817" type="curve" smooth="yes"/>
      <point x="-14" y="817"/>
      <point x="0" y="813"/>
      <point x="0" y="800" type="curve" smooth="yes"/>
      <point x="0" y="774"/>
      <point x="-48" y="761"/>
    </contour>
  </outline>
</glyph>
<glyph name="brevecomb_tildecomb.case" format="2">
  <anchor x="0" y="705" name="_top"/>
  <outline>
    <contour>
      <point x="0" y="766" type="curve" smooth="yes"/>
      <point x="111" y="766"/>
      <point x="180" y="825"/>
      <point x="187" y="907" type="curve"/>
      <point x="103" y="916" type="line"/>
      <point x="94" y="870"/>
      <point x="56" y="845"/>
      <point x="0" y="845" type="curve" smooth="yes"/>
      <point x="-56" y="845"/>
      <point x="-94" y="870"/>
      <point x="-103" y="916" type="curve"/>
      <point x="-186" y="907" type="line"/>
      <point x="-180" y="825"/>
      <point x="-111" y="766"/>
    </contour>
    <contour>
      <point x="-115" y="951" type="line"/>
      <point x="-109" y="981"/>
      <point x="-99" y="999"/>
      <point x="-70" y="999" type="curve" smooth="yes"/>
      <point x="-53" y="999"/>
      <point x="-36" y="990"/>
      <point x="-16" y="980" type="curve" smooth="yes"/>
      <point x="9" y="967"/>
      <point x="37" y="952"/>
      <point x="73" y="952" type="curve" smooth="yes"/>
      <point x="150" y="952"/>
      <point x="185" y="992"/>
      <point x="190" y="1071" type="curve"/>
      <point x="115" y="1075" type="line"/>
      <point x="110" y="1046"/>
      <point x="99" y="1028"/>
      <point x="70" y="1028" type="curve" smooth="yes"/>
      <point x="53" y="1028"/>
      <point x="35" y="1037"/>
      <point x="14" y="1047" type="curve" smooth="yes"/>
      <point x="-12" y="1060"/>
      <point x="-42" y="1074"/>
      <point x="-77" y="1074" type="curve" smooth="yes"/>
      <point x="-157" y="1074"/>
      <point x="-184" y="1033"/>
      <point x="-190" y="955" type="curve"/>
    </contour>
  </outline>
</glyph>
<glyph name="brevecomb_tildecomb" format="2">
  <anchor x="0" y="484" name="_top"/>
  <outline>
    <contour>
      <point x="0" y="561" type="curve" smooth="yes"/>
      <point x="111" y="561"/>
      <point x="180" y="621"/>
      <point x="187" y="708" type="curve"/>
      <point x="103" y="717" type="line"/>
      <point x="94" y="671"/>
      <point x="56" y="647"/>
      <point x="0" y="647" type="curve" smooth="yes"/>
      <point x="-56" y="647"/>
      <point x="-94" y="671"/>
      <point x="-103" y="717" type="curve"/>
      <point x="-186" y="708" type="line"/>
      <point x="-180" y="620"/>
      <point x="-111" y="561"/>
    </contour>
    <contour>
      <point x="-115" y="758" type="line"/>
      <point x="-109" y="787"/>
      <point x="-99" y="805"/>
      <point x="-70" y="805" type="curve" smooth="yes"/>
      <point x="-53" y="805"/>
      <point x="-36" y="796"/>
      <point x="-16" y="785" type="curve" smooth="yes"/>
      <point x="9" y="772"/>
      <point x="37" y="757"/>
      <point x="73" y="757" type="curve" smooth="yes"/>
      <point x="150" y="757"/>
      <point x="185" y="804"/>
      <point x="190" y="883" type="curve"/>
      <point x="115" y="887" type="line"/>
      <point x="110" y="857"/>
      <point x="99" y="839"/>
      <point x="70" y="839" type="curve" smooth="yes"/>
      <point x="53" y="839"/>
      <point x="35" y="848"/>
      <point x="14" y="858" type="curve" smooth="yes"/>
      <point x="-12" y="871"/>
      <point x="-42" y="886"/>
      <point x="-77" y="886" type="curve" smooth="yes"/>
      <point x="-157" y="886"/>
      <point x="-184" y="840"/>
      <point x="-190" y="761" type="curve"/>
    </contour>
  </outline>
</glyph>
<glyph name="breveinvertedcomb.case" format="2">
  <anchor x="0" y="705" name="_top"/>
  <anchor x="0" y="865" name="top"/>
  <outline>
    <contour>
      <point x="-101" y="760" type="line"/>
      <point x="-95" y="818"/>
      <point x="-62" y="854"/>
      <point x="1" y="854" type="curve" smooth="yes"/>
      <point x="66" y="854"/>
      <point x="96" y="816"/>
      <point x="102" y="760" type="curve"/>
      <point x="191" y="771" type="line"/>
      <point x="185" y="884"/>
      <point x="111" y="953"/>
      <point x="0" y="953" type="curve" smooth="yes"/>
      <point x="-110" y="953"/>
      <point x="-184" y="885"/>
      <point x="-191" y="771" type="curve"/>
    </contour>
  </outline>
</glyph>
<glyph name="caroncomb_dotaccentcomb.case" format="2">
  <anchor x="0" y="705" name="_top"/>
  <outline>
    <contour>
      <point x="-64" y="765" type="line"/>
      <point x="64" y="765" type="line"/>
      <point x="176" y="923" type="line"/>
      <point x="71" y="923" type="line"/>
      <point x="0" y="837" type="line"/>
      <point x="-70" y="923" type="line"/>
      <point x="-176" y="923" type="line"/>
    </contour>
    <contour>
      <point x="-72" y="964" type="line"/>
      <point x="73" y="964" type="line"/>
      <point x="73" y="1068" type="line"/>
      <point x="-72" y="1068" type="line"/>
    </contour>
  </outline>
</glyph>
<glyph name="caroncomb_dotaccentcomb" format="2">
  <anchor x="0" y="484" name="_top"/>
  <outline>
    <contour>
      <point x="-64" y="562" type="line"/>
      <point x="64" y="562" type="line"/>
      <point x="174" y="720" type="line"/>
      <point x="70" y="720" type="line"/>
      <point x="0" y="633" type="line"/>
      <point x="-69" y="720" type="line"/>
      <point x="-174" y="720" type="line"/>
    </contour>
    <contour>
      <point x="-71" y="762" type="line"/>
      <point x="72" y="762" type="line"/>
      <point x="72" y="864" type="line"/>
      <point x="-71" y="864" type="line"/>
    </contour>
  </outline>
</glyph>
<glyph name="circumflexcomb_acutecomb" format="2">
  <anchor x="0" y="484" name="_top"/>
  <outline>
    <contour>
      <point x="-183" y="572" type="line"/>
      <point x="-78" y="572" type="line"/>
      <point x="0" y="681" type="line"/>
      <point x="77" y="572" type="line"/>
      <point x="183" y="572" type="line"/>
      <point x="64" y="760" type="line"/>
      <point x="-64" y="760" type="line"/>
    </contour>
    <contour>
      <point x="118" y="706" type="line"/>
      <point x="200" y="706" type="line"/>
      <point x="303" y="859" type="line"/>
      <point x="183" y="859" type="line"/>
    </contour>
  </outline>
</glyph>
<glyph name="circumflexcomb_gravecomb.case" format="2">
  <anchor x="0" y="705" name="_top"/>
  <outline>
    <contour>
      <point x="-183" y="767" type="line"/>
      <point x="-78" y="767" type="line"/>
      <point x="0" y="876" type="line"/>
      <point x="77" y="767" type="line"/>
      <point x="183" y="767" type="line"/>
      <point x="64" y="953" type="line"/>
      <point x="-64" y="953" type="line"/>
    </contour>
    <contour>
      <point x="155" y="901" type="line"/>
      <point x="238" y="901" type="line"/>
      <point x="174" y="1054" type="line"/>
      <point x="54" y="1054" type="line"/>
    </contour>
  </outline>
</glyph>
<glyph name="circumflexcomb_tildecomb" format="2">
  <anchor x="0" y="484" name="_top"/>
  <outline>
    <contour>
      <point x="-183" y="572" type="line"/>
      <point x="-78" y="572" type="line"/>
      <point x="0" y="665" type="line"/>
      <point x="77" y="572" type="line"/>
      <point x="183" y="572" type="line"/>
      <point x="64" y="736" type="line"/>
      <point x="-64" y="736" type="line"/>
    </contour>
    <contour>
      <point x="-115" y="761" type="line"/>
      <point x="-109" y="792"/>
      <point x="-97" y="808"/>
      <point x="-70" y="808" type="curve" smooth="yes"/>
      <point x="-53" y="808"/>
      <point x="-36" y="799"/>
      <point x="-16" y="789" type="curve" smooth="yes"/>
      <point x="9" y="776"/>
      <point x="37" y="761"/>
      <point x="73" y="761" type="curve" smooth="yes"/>
      <point x="152" y="761"/>
      <point x="185" y="809"/>
      <point x="190" y="886" type="curve"/>
      <point x="115" y="891" type="line"/>
      <point x="109" y="860"/>
      <point x="99" y="843"/>
      <point x="70" y="843" type="curve" smooth="yes"/>
      <point x="53" y="843"/>
      <point x="35" y="852"/>
      <point x="14" y="862" type="curve" smooth="yes"/>
      <point x="-12" y="875"/>
      <point x="-42" y="890"/>
      <point x="-77" y="890" type="curve" smooth="yes"/>
      <point x="-158" y="890"/>
      <point x="-186" y="843"/>
      <point x="-190" y="764" type="curve"/>
    </contour>
  </outline>
</glyph>
<glyph name="commaturnedabovecomb.case" format="2">
  <anchor x="0" y="705" name="_top"/>
  <anchor x="0" y="865" name="top"/>
  <outline>
    <contour>
      <point x="-75" y="765" type="line"/>
      <point x="74" y="765" type="line"/>
      <point x="74" y="881" type="line"/>
      <point x="-27" y="881" type="line"/>
      <point x="1" y="864" type="line"/>
      <point x="1" y="895"/>
      <point x="10" y="924"/>
      <point x="40" y="949" type="curve"/>
      <point x="-13" y="987" type="line"/>
      <point x="-59" y="946"/>
      <point x="-75" y="899"/>
      <point x="-75" y="838" type="curve" smooth="yes"/>
    </contour>
  </outline>
</glyph>
